SplineFontDB: 3.0
FontName: CheyenneSans-SemiBold
FullName: Cheyenne Sans SemiBold
FamilyName: Cheyenne Sans SemiBold
Weight: Demi
Version: 1.000; ttfautohint (v1.8.2)
ItalicAngle: 0
UnderlinePosition: -150
UnderlineWidth: 50
Ascent: 800
Descent: 200
InvalidEm: 0
sfntRevision: 0x00010000
LayerCount: 2
Layer: 0 1 "Back" 1
Layer: 1 1 "Fore" 0
XUID: [1021 788 582120202 2683807]
StyleMap: 0x0040
FSType: 0
OS2Version: 3
OS2_WeightWidthSlopeOnly: 0
OS2_UseTypoMetrics: 0
CreationTime: 1513572760
ModificationTime: 1545430719
PfmFamily: 81
TTFWeight: 600
TTFWidth: 5
LineGap: 0
VLineGap: 0
Panose: 0 0 7 0 0 0 0 0 0 0
OS2TypoAscent: 743
OS2TypoAOffset: 0
OS2TypoDescent: -161
OS2TypoDOffset: 0
OS2TypoLinegap: 0
OS2WinAscent: 822
OS2WinAOffset: 0
OS2WinDescent: 178
OS2WinDOffset: 0
HheadAscent: 822
HheadAOffset: 0
HheadDescent: -178
HheadDOffset: 0
OS2SubXSize: 650
OS2SubYSize: 600
OS2SubXOff: 0
OS2SubYOff: 75
OS2SupXSize: 650
OS2SupYSize: 600
OS2SupXOff: 0
OS2SupYOff: 350
OS2StrikeYSize: 50
OS2StrikeYPos: 310
OS2CapHeight: 723
OS2XHeight: 517
OS2Vendor: 'IMPA'
OS2CodePages: 20000193.00000000
OS2UnicodeRanges: 00000007.00000000.00000000.00000000
Lookup: 1 0 0 "'aalt' Access All Alternates in Latin lookup 0" { "'aalt' Access All Alternates in Latin lookup 0 subtable"  } ['aalt' ('DFLT' <'dflt' > 'latn' <'AZE ' 'CAT ' 'CRT ' 'KAZ ' 'MOL ' 'ROM ' 'TAT ' 'TRK ' 'dflt' > ) ]
Lookup: 3 0 0 "'aalt' Access All Alternates in Latin lookup 1" { "'aalt' Access All Alternates in Latin lookup 1 subtable"  } ['aalt' ('DFLT' <'dflt' > 'latn' <'AZE ' 'CAT ' 'CRT ' 'KAZ ' 'MOL ' 'ROM ' 'TAT ' 'TRK ' 'dflt' > ) ]
Lookup: 6 0 0 "'ccmp' Glyph Composition/Decomposition in Latin lookup 2" { "'ccmp' Glyph Composition/Decomposition in Latin lookup 2 contextual 0"  "'ccmp' Glyph Composition/Decomposition in Latin lookup 2 contextual 1"  } ['ccmp' ('DFLT' <'dflt' > 'latn' <'AZE ' 'CAT ' 'CRT ' 'KAZ ' 'MOL ' 'ROM ' 'TAT ' 'TRK ' 'dflt' > ) ]

StartChar: .notdef
Encoding: 65536 -1 0
Width: 666
Flags: W
LayerCount: 2
Fore
SplineSet
576 820.5 m 128,-1,1
 581 815 581 815 581 805 c 2,2,-1
 581 -133 l 2,3,4
 581 -148 581 -148 573 -154.5 c 128,-1,5
 565 -161 565 -161 548 -161 c 2,6,-1
 112 -161 l 2,7,8
 97 -161 97 -161 91 -155.5 c 128,-1,9
 85 -150 85 -150 85 -137 c 2,10,-1
 85 803 l 2,11,12
 85 814 85 814 90 820 c 128,-1,13
 95 826 95 826 104 826 c 2,14,-1
 563 826 l 2,15,0
 571 826 571 826 576 820.5 c 128,-1,1
526 772.5 m 128,-1,17
 522 777 522 777 515 777 c 2,18,-1
 172 777 l 1,19,-1
 530 -57 l 1,20,-1
 530 760 l 2,21,16
 530 768 530 768 526 772.5 c 128,-1,17
141 -107 m 128,-1,23
 146 -112 146 -112 158 -112 c 2,24,-1
 494 -112 l 1,25,-1
 136 716 l 1,26,-1
 136 -92 l 2,27,22
 136 -102 136 -102 141 -107 c 128,-1,23
EndSplineSet
EndChar

StartChar: exclam
Encoding: 33 33 4
Width: 265
GlyphClass: 2
Flags: W
LayerCount: 2
Fore
SplineSet
169 205 m 1,0,-1
 91 205 l 1,1,-1
 57 723 l 1,2,-1
 201 723 l 1,3,-1
 169 205 l 1,0,-1
197 0 m 1,4,-1
 60 0 l 1,5,-1
 60 138 l 1,6,-1
 197 138 l 1,7,-1
 197 0 l 1,4,-1
EndSplineSet
EndChar

StartChar: quotedbl
Encoding: 34 34 5
Width: 449
GlyphClass: 2
Flags: W
LayerCount: 2
Fore
SplineSet
366 464 m 1,0,-1
 302 464 l 1,1,-1
 269 723 l 1,2,-1
 401 723 l 1,3,-1
 366 464 l 1,0,-1
167 464 m 1,4,-1
 103 464 l 1,5,-1
 70 723 l 1,6,-1
 202 723 l 1,7,-1
 167 464 l 1,4,-1
EndSplineSet
EndChar

StartChar: numbersign
Encoding: 35 35 6
Width: 603
GlyphClass: 2
Flags: W
LayerCount: 2
Fore
SplineSet
452 434 m 1,0,-1
 431 296 l 1,1,-1
 538 296 l 1,2,-1
 538 229 l 1,3,-1
 421 229 l 1,4,-1
 387 -2 l 1,5,-1
 319 7 l 1,6,-1
 352 229 l 1,7,-1
 212 229 l 1,8,-1
 178 -2 l 1,9,-1
 111 7 l 1,10,-1
 144 229 l 1,11,-1
 29 229 l 1,12,-1
 29 296 l 1,13,-1
 154 296 l 1,14,-1
 175 434 l 1,15,-1
 61 434 l 1,16,-1
 61 501 l 1,17,-1
 185 501 l 1,18,-1
 218 725 l 1,19,-1
 285 717 l 1,20,-1
 253 501 l 1,21,-1
 393 501 l 1,22,-1
 427 725 l 1,23,-1
 494 717 l 1,24,-1
 462 501 l 1,25,-1
 570 501 l 1,26,-1
 570 434 l 1,27,-1
 452 434 l 1,0,-1
383 434 m 1,28,-1
 243 434 l 1,29,-1
 222 296 l 1,30,-1
 362 296 l 1,31,-1
 383 434 l 1,28,-1
EndSplineSet
EndChar

StartChar: dollar
Encoding: 36 36 7
Width: 631
GlyphClass: 2
Flags: W
LayerCount: 2
Fore
SplineSet
560.5 97.5 m 128,-1,1
 534 53 534 53 486 26 c 128,-1,2
 438 -1 438 -1 375 -5 c 0,3,4
 366 -6 366 -6 363 -8.5 c 128,-1,5
 360 -11 360 -11 360 -19 c 2,6,-1
 360 -80 l 1,7,-1
 278 -80 l 1,8,-1
 278 -6 l 1,9,10
 195 -2 195 -2 135 25.5 c 128,-1,11
 75 53 75 53 25 108 c 1,12,-1
 97 181 l 1,13,14
 135 138 135 138 178 114 c 128,-1,15
 221 90 221 90 279 85 c 1,16,-1
 280 308 l 1,17,18
 158 340 158 340 106 392 c 128,-1,19
 54 444 54 444 54 522 c 128,-1,20
 54 600 54 600 109.5 654 c 128,-1,21
 165 708 165 708 263 724 c 0,22,23
 269 725 269 725 274 728.5 c 128,-1,24
 279 732 279 732 279 738 c 2,25,-1
 279 791 l 1,26,-1
 360 791 l 1,27,-1
 360 727 l 1,28,29
 476 704 476 704 557 637 c 1,30,-1
 492 559 l 1,31,32
 472 583 472 583 439.5 602 c 128,-1,33
 407 621 407 621 370 630 c 2,34,-1
 367 631 l 2,35,36
 363 631 363 631 361 628.5 c 128,-1,37
 359 626 359 626 359 623 c 2,38,-1
 359 413 l 1,39,-1
 418 396 l 1,40,41
 498 368 498 368 542.5 318 c 128,-1,42
 587 268 587 268 587 197 c 0,43,0
 587 142 587 142 560.5 97.5 c 128,-1,1
281 634 m 1,44,45
 256 634 256 634 227.5 622.5 c 128,-1,46
 199 611 199 611 179.5 588 c 128,-1,47
 160 565 160 565 160 534 c 0,48,49
 160 489 160 489 194 465 c 128,-1,50
 228 441 228 441 279 427 c 1,51,-1
 281 634 l 1,44,45
447.5 115 m 128,-1,53
 480 142 480 142 480 181 c 128,-1,54
 480 220 480 220 451.5 247 c 128,-1,55
 423 274 423 274 360 293 c 1,56,-1
 360 85 l 1,57,52
 415 88 415 88 447.5 115 c 128,-1,53
EndSplineSet
EndChar

StartChar: percent
Encoding: 37 37 8
Width: 921
GlyphClass: 2
Flags: W
LayerCount: 2
Fore
SplineSet
317 707.5 m 128,-1,1
 357 681 357 681 380 633.5 c 128,-1,2
 403 586 403 586 403 527 c 128,-1,3
 403 468 403 468 380 421.5 c 128,-1,4
 357 375 357 375 317 349 c 128,-1,5
 277 323 277 323 227 323 c 0,6,7
 176 323 176 323 135.5 349 c 128,-1,8
 95 375 95 375 72 421.5 c 128,-1,9
 49 468 49 468 49 527 c 128,-1,10
 49 586 49 586 72.5 633.5 c 128,-1,11
 96 681 96 681 136.5 707.5 c 128,-1,12
 177 734 177 734 227 734 c 128,-1,0
 277 734 277 734 317 707.5 c 128,-1,1
268 -4 m 1,13,-1
 193 -3 l 1,14,-1
 681 731 l 1,15,-1
 754 731 l 1,16,-1
 268 -4 l 1,13,-1
290 424 m 128,-1,18
 312 461 312 461 312 527 c 0,19,20
 312 594 312 594 289.5 632 c 128,-1,21
 267 670 267 670 226 670 c 0,22,23
 184 670 184 670 162 632 c 128,-1,24
 140 594 140 594 140 527 c 0,25,26
 140 462 140 462 162 424.5 c 128,-1,27
 184 387 184 387 226 387 c 128,-1,17
 268 387 268 387 290 424 c 128,-1,18
781.5 375.5 m 128,-1,29
 822 349 822 349 845 301.5 c 128,-1,30
 868 254 868 254 868 195 c 128,-1,31
 868 136 868 136 845 89 c 128,-1,32
 822 42 822 42 781.5 16 c 128,-1,33
 741 -10 741 -10 691 -10 c 128,-1,34
 641 -10 641 -10 600 16 c 128,-1,35
 559 42 559 42 536 89 c 128,-1,36
 513 136 513 136 513 195 c 128,-1,37
 513 254 513 254 536.5 301.5 c 128,-1,38
 560 349 560 349 600.5 375.5 c 128,-1,39
 641 402 641 402 691 402 c 128,-1,28
 741 402 741 402 781.5 375.5 c 128,-1,29
753.5 92.5 m 128,-1,41
 776 130 776 130 776 194 c 0,42,43
 776 260 776 260 753.5 299 c 128,-1,44
 731 338 731 338 690 338 c 0,45,46
 650 338 650 338 627.5 298.5 c 128,-1,47
 605 259 605 259 605 194 c 0,48,49
 605 130 605 130 627.5 92.5 c 128,-1,50
 650 55 650 55 690 55 c 0,51,40
 731 55 731 55 753.5 92.5 c 128,-1,41
EndSplineSet
EndChar

StartChar: ampersand
Encoding: 38 38 9
Width: 746
GlyphClass: 2
Flags: W
LayerCount: 2
Fore
SplineSet
439 714.5 m 128,-1,1
 487 695 487 695 515.5 659.5 c 128,-1,2
 544 624 544 624 544 578 c 128,-1,3
 544 532 544 532 504.5 482 c 128,-1,4
 465 432 465 432 379 384 c 1,5,-1
 512 227 l 1,6,7
 560 315 560 315 568 401 c 1,8,-1
 691 401 l 1,9,10
 678 339 678 339 650 287 c 128,-1,11
 622 235 622 235 571 156 c 1,12,-1
 704 0 l 1,13,-1
 564 0 l 1,14,-1
 498 75 l 1,15,16
 395 -5 395 -5 269 -5 c 0,17,18
 159 -5 159 -5 101 45.5 c 128,-1,19
 43 96 43 96 43 181 c 0,20,21
 43 252 43 252 85.5 303 c 128,-1,22
 128 354 128 354 220 403 c 1,23,24
 174 453 174 453 153 489.5 c 128,-1,25
 132 526 132 526 132 570 c 0,26,27
 132 616 132 616 157.5 653.5 c 128,-1,28
 183 691 183 691 229 712.5 c 128,-1,29
 275 734 275 734 333 734 c 128,-1,0
 391 734 391 734 439 714.5 c 128,-1,1
276.5 634.5 m 128,-1,31
 253 612 253 612 253 578 c 0,32,33
 253 550 253 550 269.5 520.5 c 128,-1,34
 286 491 286 491 308 468 c 2,35,-1
 327 447 l 1,36,37
 389 485 389 485 412.5 514 c 128,-1,38
 436 543 436 543 436 574 c 0,39,40
 436 615 436 615 408.5 636 c 128,-1,41
 381 657 381 657 341 657 c 0,42,30
 300 657 300 657 276.5 634.5 c 128,-1,31
205 272 m 128,-1,44
 177 238 177 238 177 197 c 0,45,46
 177 149 177 149 213 119 c 128,-1,47
 249 89 249 89 298 89 c 0,48,49
 333 89 333 89 371.5 105 c 128,-1,50
 410 121 410 121 439 148 c 1,51,-1
 280 332 l 1,52,43
 233 306 233 306 205 272 c 128,-1,44
EndSplineSet
EndChar

StartChar: quotesingle
Encoding: 39 39 10
Width: 252
GlyphClass: 2
Flags: W
LayerCount: 2
Fore
SplineSet
157 464 m 1,0,-1
 93 464 l 1,1,-1
 60 723 l 1,2,-1
 192 723 l 1,3,-1
 157 464 l 1,0,-1
EndSplineSet
EndChar

StartChar: parenleft
Encoding: 40 40 11
Width: 316
GlyphClass: 2
Flags: W
LayerCount: 2
Fore
SplineSet
205 506.5 m 128,-1,1
 174 392 174 392 174 277 c 0,2,3
 174 167 174 167 201.5 61.5 c 128,-1,4
 229 -44 229 -44 284 -161 c 1,5,-1
 200 -161 l 1,6,7
 131 -43 131 -43 96.5 57.5 c 128,-1,8
 62 158 62 158 62 278 c 128,-1,9
 62 398 62 398 100 512 c 128,-1,10
 138 626 138 626 205 723 c 1,11,-1
 290 723 l 1,12,0
 236 621 236 621 205 506.5 c 128,-1,1
EndSplineSet
EndChar

StartChar: parenright
Encoding: 41 41 12
Width: 321
GlyphClass: 2
Flags: W
LayerCount: 2
Fore
SplineSet
100 506.5 m 128,-1,1
 131 392 131 392 131 277 c 0,2,3
 131 167 131 167 103.5 61.5 c 128,-1,4
 76 -44 76 -44 21 -161 c 1,5,-1
 105 -161 l 1,6,7
 174 -43 174 -43 208.5 57.5 c 128,-1,8
 243 158 243 158 243 278 c 128,-1,9
 243 398 243 398 205 512 c 128,-1,10
 167 626 167 626 100 723 c 1,11,-1
 15 723 l 1,12,0
 69 621 69 621 100 506.5 c 128,-1,1
EndSplineSet
EndChar

StartChar: asterisk
Encoding: 42 42 13
Width: 435
GlyphClass: 2
Flags: W
LayerCount: 2
Fore
SplineSet
218 486 m 1,0,-1
 136 351 l 1,1,-1
 68 398 l 1,2,-1
 167 518 l 1,3,-1
 28 558 l 1,4,-1
 54 631 l 1,5,-1
 187 575 l 1,6,-1
 176 723 l 1,7,-1
 259 723 l 1,8,-1
 248 574 l 1,9,-1
 383 633 l 1,10,-1
 406 560 l 1,11,-1
 270 519 l 1,12,-1
 367 402 l 1,13,-1
 299 354 l 1,14,-1
 218 486 l 1,0,-1
EndSplineSet
EndChar

StartChar: plus
Encoding: 43 43 14
Width: 570
GlyphClass: 2
Flags: W
LayerCount: 2
Fore
SplineSet
510 318 m 1,0,-1
 329 318 l 1,1,-1
 329 137 l 1,2,-1
 239 137 l 1,3,-1
 239 318 l 1,4,-1
 56 318 l 1,5,-1
 56 409 l 1,6,-1
 238 409 l 1,7,-1
 238 591 l 1,8,-1
 329 591 l 1,9,-1
 329 409 l 1,10,-1
 510 409 l 1,11,-1
 510 318 l 1,0,-1
EndSplineSet
EndChar

StartChar: comma
Encoding: 44 44 15
Width: 256
GlyphClass: 2
Flags: W
LayerCount: 2
Fore
SplineSet
100 -3 m 1,0,-1
 52 1 l 1,1,-1
 52 128 l 1,2,-1
 185 128 l 1,3,-1
 185 16 l 1,4,-1
 92 -133 l 1,5,-1
 43 -133 l 1,6,-1
 100 -3 l 1,0,-1
EndSplineSet
Substitution2: "'tnum' Tabular Numbers in Latin lookup 23 subtable" comma.tf
Substitution2: "'aalt' Access All Alternates in Latin lookup 0 subtable" comma.tf
EndChar

StartChar: hyphen
Encoding: 45 45 16
Width: 386
GlyphClass: 2
Flags: W
LayerCount: 2
Fore
SplineSet
323 212 m 1,0,-1
 58 212 l 1,1,-1
 58 303 l 1,2,-1
 323 303 l 1,3,-1
 323 212 l 1,0,-1
EndSplineSet
EndChar

StartChar: period
Encoding: 46 46 17
Width: 248
GlyphClass: 2
Flags: W
LayerCount: 2
Fore
SplineSet
189 0 m 1,0,-1
 51 0 l 1,1,-1
 51 140 l 1,2,-1
 189 140 l 1,3,-1
 189 0 l 1,0,-1
EndSplineSet
Substitution2: "'tnum' Tabular Numbers in Latin lookup 23 subtable" period.tf
Substitution2: "'aalt' Access All Alternates in Latin lookup 0 subtable" period.tf
EndChar

StartChar: slash
Encoding: 47 47 18
Width: 363
GlyphClass: 2
Flags: W
LayerCount: 2
Fore
SplineSet
261 723 m 1,0,-1
 349 723 l 1,1,-1
 97 -28 l 1,2,-1
 9 -28 l 1,3,-1
 261 723 l 1,0,-1
EndSplineSet
Substitution2: "'frac' Diagonal Fractions in Latin lookup 16 subtable" fraction
Substitution2: "'aalt' Access All Alternates in Latin lookup 0 subtable" fraction
EndChar

StartChar: zero
Encoding: 48 48 19
Width: 651
GlyphClass: 2
Flags: W
LayerCount: 2
Fore
SplineSet
473 690.5 m 128,-1,1
 537 647 537 647 573 563 c 128,-1,2
 609 479 609 479 609 360 c 0,3,4
 609 242 609 242 573.5 159 c 128,-1,5
 538 76 538 76 474 33.5 c 128,-1,6
 410 -9 410 -9 326 -9 c 0,7,8
 241 -9 241 -9 177 33 c 128,-1,9
 113 75 113 75 77.5 158 c 128,-1,10
 42 241 42 241 42 359 c 0,11,12
 42 478 42 478 78 562.5 c 128,-1,13
 114 647 114 647 178.5 690.5 c 128,-1,14
 243 734 243 734 326 734 c 128,-1,0
 409 734 409 734 473 690.5 c 128,-1,1
437 155 m 128,-1,16
 475 219 475 219 475 359 c 0,17,18
 475 635 475 635 325 635 c 0,19,20
 253 635 253 635 214.5 568 c 128,-1,21
 176 501 176 501 176 359 c 0,22,23
 176 91 176 91 326 91 c 0,24,15
 399 91 399 91 437 155 c 128,-1,16
EndSplineSet
Substitution2: "'onum' Oldstyle Figures in Latin lookup 24 subtable" zero.osf
Substitution2: "'tnum' Tabular Numbers in Latin lookup 23 subtable" zero.tf
Substitution2: "'frac' Diagonal Fractions in Latin lookup 17 subtable" zero.numr
Substitution2: "'dnom' Denominators in Latin lookup 15 subtable" zero.dnom
Substitution2: "'numr' Numerators in Latin lookup 14 subtable" zero.numr
Substitution2: "'sups' Superscript in Latin lookup 13 subtable" uni2070
Substitution2: "'sinf' Scientific Inferiors in Latin lookup 12 subtable" zero.subs
Substitution2: "'subs' Subscript in Latin lookup 11 subtable" zero.subs
AlternateSubs2: "'aalt' Access All Alternates in Latin lookup 1 subtable" zero.subs uni2070 zero.numr zero.dnom zero.tf zero.osf
EndChar

StartChar: one
Encoding: 49 49 20
Width: 395
GlyphClass: 2
Flags: W
LayerCount: 2
Fore
SplineSet
164 585 m 1,0,-1
 30 543 l 1,1,-1
 30 629 l 1,2,-1
 217 723 l 1,3,-1
 288 723 l 1,4,-1
 288 0 l 1,5,-1
 164 0 l 1,6,-1
 164 585 l 1,0,-1
EndSplineSet
Substitution2: "'onum' Oldstyle Figures in Latin lookup 24 subtable" one.osf
Substitution2: "'tnum' Tabular Numbers in Latin lookup 23 subtable" one.tf
Substitution2: "'frac' Diagonal Fractions in Latin lookup 17 subtable" one.numr
Substitution2: "'dnom' Denominators in Latin lookup 15 subtable" one.dnom
Substitution2: "'numr' Numerators in Latin lookup 14 subtable" one.numr
Substitution2: "'sups' Superscript in Latin lookup 13 subtable" uni00B9
Substitution2: "'sinf' Scientific Inferiors in Latin lookup 12 subtable" one.subs
Substitution2: "'subs' Subscript in Latin lookup 11 subtable" one.subs
AlternateSubs2: "'aalt' Access All Alternates in Latin lookup 1 subtable" one.subs uni00B9 one.numr one.dnom one.tf one.osf
EndChar

StartChar: two
Encoding: 50 50 21
Width: 599
GlyphClass: 2
Flags: W
LayerCount: 2
Fore
SplineSet
39 96 m 1,0,-1
 269 309 l 2,1,2
 331 365 331 365 362 399 c 128,-1,3
 393 433 393 433 406.5 460.5 c 128,-1,4
 420 488 420 488 420 520 c 0,5,6
 420 574 420 574 383.5 602 c 128,-1,7
 347 630 347 630 296 630 c 0,8,9
 246 630 246 630 205.5 605 c 128,-1,10
 165 580 165 580 144 526 c 1,11,-1
 33 539 l 1,12,13
 52 629 52 629 120.5 681 c 128,-1,14
 189 733 189 733 300 733 c 0,15,16
 412 733 412 733 480 676 c 128,-1,17
 548 619 548 619 548 520 c 0,18,19
 547 462 547 462 516.5 413.5 c 128,-1,20
 486 365 486 365 406 286 c 2,21,-1
 219 104 l 1,22,-1
 555 104 l 1,23,-1
 555 0 l 1,24,-1
 39 0 l 1,25,-1
 39 96 l 1,0,-1
EndSplineSet
Substitution2: "'onum' Oldstyle Figures in Latin lookup 24 subtable" two.osf
Substitution2: "'tnum' Tabular Numbers in Latin lookup 23 subtable" two.tf
Substitution2: "'frac' Diagonal Fractions in Latin lookup 17 subtable" two.numr
Substitution2: "'dnom' Denominators in Latin lookup 15 subtable" two.dnom
Substitution2: "'numr' Numerators in Latin lookup 14 subtable" two.numr
Substitution2: "'sups' Superscript in Latin lookup 13 subtable" uni00B2
Substitution2: "'sinf' Scientific Inferiors in Latin lookup 12 subtable" two.subs
Substitution2: "'subs' Subscript in Latin lookup 11 subtable" two.subs
AlternateSubs2: "'aalt' Access All Alternates in Latin lookup 1 subtable" two.subs uni00B2 two.numr two.dnom two.tf two.osf
EndChar

StartChar: three
Encoding: 51 51 22
Width: 652
GlyphClass: 2
Flags: W
LayerCount: 2
Fore
SplineSet
141.5 690.5 m 128,-1,1
 219 733 219 733 326 733 c 0,2,3
 401 733 401 733 461 709 c 128,-1,4
 521 685 521 685 555 642.5 c 128,-1,5
 589 600 589 600 589 547 c 0,6,7
 589 434 589 434 453 386 c 1,8,9
 522 368 522 368 566.5 321 c 128,-1,10
 611 274 611 274 611 205 c 0,11,12
 611 141 611 141 571.5 92 c 128,-1,13
 532 43 532 43 465.5 16.5 c 128,-1,14
 399 -10 399 -10 320 -10 c 0,15,16
 201 -10 201 -10 129 30 c 128,-1,17
 57 70 57 70 34 168 c 1,18,-1
 147 181 l 1,19,20
 171 132 171 132 215 111 c 128,-1,21
 259 90 259 90 314 90 c 0,22,23
 388 90 388 90 432 122 c 128,-1,24
 476 154 476 154 476 204 c 0,25,26
 476 257 476 257 431 290.5 c 128,-1,27
 386 324 386 324 322 324 c 2,28,-1
 224 325 l 1,29,-1
 224 423 l 1,30,-1
 307 426 l 2,31,32
 373 427 373 427 415.5 459 c 128,-1,33
 458 491 458 491 458 538 c 0,34,35
 458 580 458 580 418.5 608 c 128,-1,36
 379 636 379 636 323 636 c 0,37,38
 263 636 263 636 221 615.5 c 128,-1,39
 179 595 179 595 160 545 c 1,40,-1
 49 558 l 1,41,0
 64 648 64 648 141.5 690.5 c 128,-1,1
EndSplineSet
Substitution2: "'onum' Oldstyle Figures in Latin lookup 24 subtable" three.osf
Substitution2: "'tnum' Tabular Numbers in Latin lookup 23 subtable" three.tf
Substitution2: "'frac' Diagonal Fractions in Latin lookup 17 subtable" three.numr
Substitution2: "'dnom' Denominators in Latin lookup 15 subtable" three.dnom
Substitution2: "'numr' Numerators in Latin lookup 14 subtable" three.numr
Substitution2: "'sups' Superscript in Latin lookup 13 subtable" uni00B3
Substitution2: "'sinf' Scientific Inferiors in Latin lookup 12 subtable" three.subs
Substitution2: "'subs' Subscript in Latin lookup 11 subtable" three.subs
AlternateSubs2: "'aalt' Access All Alternates in Latin lookup 1 subtable" three.subs uni00B3 three.numr three.dnom three.tf three.osf
EndChar

StartChar: four
Encoding: 52 52 23
Width: 625
GlyphClass: 2
Flags: W
LayerCount: 2
Fore
SplineSet
487 723 m 1,0,-1
 487 278 l 1,1,-1
 597 278 l 1,2,-1
 597 171 l 1,3,-1
 487 171 l 1,4,-1
 487 0 l 1,5,-1
 365 0 l 1,6,-1
 365 171 l 1,7,-1
 34 171 l 1,8,-1
 34 278 l 1,9,-1
 364 723 l 1,10,-1
 487 723 l 1,0,-1
364 278 m 1,11,-1
 364 551 l 1,12,-1
 161 278 l 1,13,-1
 364 278 l 1,11,-1
EndSplineSet
Substitution2: "'onum' Oldstyle Figures in Latin lookup 24 subtable" four.osf
Substitution2: "'tnum' Tabular Numbers in Latin lookup 23 subtable" four.tf
Substitution2: "'frac' Diagonal Fractions in Latin lookup 17 subtable" four.numr
Substitution2: "'dnom' Denominators in Latin lookup 15 subtable" four.dnom
Substitution2: "'numr' Numerators in Latin lookup 14 subtable" four.numr
Substitution2: "'sups' Superscript in Latin lookup 13 subtable" uni2074
Substitution2: "'sinf' Scientific Inferiors in Latin lookup 12 subtable" four.subs
Substitution2: "'subs' Subscript in Latin lookup 11 subtable" four.subs
AlternateSubs2: "'aalt' Access All Alternates in Latin lookup 1 subtable" four.subs uni2074 four.numr four.dnom four.tf four.osf
EndChar

StartChar: five
Encoding: 53 53 24
Width: 656
GlyphClass: 2
Flags: W
LayerCount: 2
Fore
SplineSet
568 723 m 1,0,-1
 561 621 l 1,1,-1
 213 621 l 1,2,-1
 196 420 l 1,3,4
 251 443 251 443 283 453 c 128,-1,5
 315 463 315 463 359 463 c 0,6,7
 430 463 430 463 486.5 437.5 c 128,-1,8
 543 412 543 412 576 360.5 c 128,-1,9
 609 309 609 309 609 236 c 0,10,11
 609 160 609 160 573.5 104.5 c 128,-1,12
 538 49 538 49 473.5 19.5 c 128,-1,13
 409 -10 409 -10 324 -10 c 0,14,15
 235 -10 235 -10 160 24 c 128,-1,16
 85 58 85 58 40 118 c 1,17,-1
 131 184 l 1,18,19
 175 135 175 135 213 112 c 128,-1,20
 251 89 251 89 309 89 c 0,21,22
 387 89 387 89 431.5 129 c 128,-1,23
 476 169 476 169 476 232 c 0,24,25
 476 293 476 293 436 328 c 128,-1,26
 396 363 396 363 330 363 c 0,27,28
 293 363 293 363 261 351 c 128,-1,29
 229 339 229 339 187 316 c 0,30,31
 180 312 180 312 177 312 c 0,32,33
 175 312 175 312 172 314 c 128,-1,34
 169 316 169 316 166 317 c 2,35,-1
 83 364 l 1,36,-1
 114 723 l 1,37,-1
 568 723 l 1,0,-1
EndSplineSet
Substitution2: "'onum' Oldstyle Figures in Latin lookup 24 subtable" five.osf
Substitution2: "'tnum' Tabular Numbers in Latin lookup 23 subtable" five.tf
Substitution2: "'frac' Diagonal Fractions in Latin lookup 17 subtable" five.numr
Substitution2: "'dnom' Denominators in Latin lookup 15 subtable" five.dnom
Substitution2: "'numr' Numerators in Latin lookup 14 subtable" five.numr
Substitution2: "'sups' Superscript in Latin lookup 13 subtable" uni2075
Substitution2: "'sinf' Scientific Inferiors in Latin lookup 12 subtable" five.subs
Substitution2: "'subs' Subscript in Latin lookup 11 subtable" five.subs
AlternateSubs2: "'aalt' Access All Alternates in Latin lookup 1 subtable" five.subs uni2075 five.numr five.dnom five.tf five.osf
EndChar

StartChar: six
Encoding: 54 54 25
Width: 632
GlyphClass: 2
Flags: W
LayerCount: 2
Fore
SplineSet
502 685.5 m 128,-1,1
 568 639 568 639 580 562 c 1,2,-1
 474 547 l 1,3,4
 453 590 453 590 423 612 c 128,-1,5
 393 634 393 634 343 634 c 0,6,7
 264 634 264 634 220 568.5 c 128,-1,8
 176 503 176 503 176 387 c 0,9,10
 176 360 176 360 177 345 c 1,11,12
 200 389 200 389 247.5 413.5 c 128,-1,13
 295 438 295 438 353 438 c 0,14,15
 426 438 426 438 479.5 409.5 c 128,-1,16
 533 381 533 381 561.5 332 c 128,-1,17
 590 283 590 283 590 221 c 0,18,19
 590 154 590 154 556 101.5 c 128,-1,20
 522 49 522 49 462 20 c 128,-1,21
 402 -9 402 -9 327 -9 c 0,22,23
 238 -9 238 -9 173 34 c 128,-1,24
 108 77 108 77 74 157.5 c 128,-1,25
 40 238 40 238 40 348 c 0,26,27
 40 467 40 467 76 553.5 c 128,-1,28
 112 640 112 640 180 686 c 128,-1,29
 248 732 248 732 340 732 c 0,30,0
 436 732 436 732 502 685.5 c 128,-1,1
258 330 m 128,-1,32
 225 316 225 316 205 292 c 128,-1,33
 185 268 185 268 185 239 c 0,34,35
 194 163 194 163 230 124 c 128,-1,36
 266 85 266 85 324 85 c 128,-1,37
 382 85 382 85 421.5 122 c 128,-1,38
 461 159 461 159 461 215 c 0,39,40
 461 272 461 272 423.5 308 c 128,-1,41
 386 344 386 344 328 344 c 0,42,31
 291 344 291 344 258 330 c 128,-1,32
EndSplineSet
Substitution2: "'onum' Oldstyle Figures in Latin lookup 24 subtable" six.osf
Substitution2: "'tnum' Tabular Numbers in Latin lookup 23 subtable" six.tf
Substitution2: "'frac' Diagonal Fractions in Latin lookup 17 subtable" six.numr
Substitution2: "'dnom' Denominators in Latin lookup 15 subtable" six.dnom
Substitution2: "'numr' Numerators in Latin lookup 14 subtable" six.numr
Substitution2: "'sups' Superscript in Latin lookup 13 subtable" uni2076
Substitution2: "'sinf' Scientific Inferiors in Latin lookup 12 subtable" six.subs
Substitution2: "'subs' Subscript in Latin lookup 11 subtable" six.subs
AlternateSubs2: "'aalt' Access All Alternates in Latin lookup 1 subtable" six.subs uni2076 six.numr six.dnom six.tf six.osf
EndChar

StartChar: seven
Encoding: 55 55 26
Width: 581
GlyphClass: 2
Flags: W
LayerCount: 2
Fore
SplineSet
556 723 m 1,0,-1
 556 599 l 1,1,2
 496 520 496 520 437 409 c 128,-1,3
 378 298 378 298 338 187.5 c 128,-1,4
 298 77 298 77 293 0 c 1,5,-1
 160 0 l 1,6,7
 169 71 169 71 201.5 173.5 c 128,-1,8
 234 276 234 276 293 394.5 c 128,-1,9
 352 513 352 513 436 621 c 1,10,-1
 30 621 l 1,11,-1
 30 723 l 1,12,-1
 556 723 l 1,0,-1
EndSplineSet
Substitution2: "'onum' Oldstyle Figures in Latin lookup 24 subtable" seven.osf
Substitution2: "'tnum' Tabular Numbers in Latin lookup 23 subtable" seven.tf
Substitution2: "'frac' Diagonal Fractions in Latin lookup 17 subtable" seven.numr
Substitution2: "'dnom' Denominators in Latin lookup 15 subtable" seven.dnom
Substitution2: "'numr' Numerators in Latin lookup 14 subtable" seven.numr
Substitution2: "'sups' Superscript in Latin lookup 13 subtable" uni2077
Substitution2: "'sinf' Scientific Inferiors in Latin lookup 12 subtable" seven.subs
Substitution2: "'subs' Subscript in Latin lookup 11 subtable" seven.subs
AlternateSubs2: "'aalt' Access All Alternates in Latin lookup 1 subtable" seven.subs uni2077 seven.numr seven.dnom seven.tf seven.osf
EndChar

StartChar: eight
Encoding: 56 56 27
Width: 631
GlyphClass: 2
Flags: W
LayerCount: 2
Fore
SplineSet
444.5 707 m 128,-1,1
 502 681 502 681 533.5 635.5 c 128,-1,2
 565 590 565 590 565 532 c 0,3,4
 565 469 565 469 528 433 c 128,-1,5
 491 397 491 397 454 380 c 1,6,7
 460 377 460 377 500 358.5 c 128,-1,8
 540 340 540 340 568.5 298.5 c 128,-1,9
 597 257 597 257 597 199 c 0,10,11
 597 135 597 135 561 87.5 c 128,-1,12
 525 40 525 40 460 15 c 128,-1,13
 395 -10 395 -10 309 -10 c 0,14,15
 183 -10 183 -10 108.5 39.5 c 128,-1,16
 34 89 34 89 34 178 c 0,17,18
 34 235 34 235 69 279.5 c 128,-1,19
 104 324 104 324 168 352 c 1,20,21
 53 406 53 406 53 516 c 0,22,23
 53 576 53 576 85.5 625.5 c 128,-1,24
 118 675 118 675 177 704 c 128,-1,25
 236 733 236 733 313 733 c 0,26,0
 387 733 387 733 444.5 707 c 128,-1,1
221.5 608.5 m 128,-1,28
 184 578 184 578 184 531 c 0,29,30
 184 460 184 460 266 439 c 2,31,-1
 352 416 l 2,32,33
 355 415 355 415 360 415 c 0,34,35
 379 415 379 415 400 432.5 c 128,-1,36
 421 450 421 450 435.5 477 c 128,-1,37
 450 504 450 504 450 531 c 0,38,39
 450 578 450 578 413.5 608.5 c 128,-1,40
 377 639 377 639 315 639 c 0,41,27
 259 639 259 639 221.5 608.5 c 128,-1,28
424.5 113.5 m 128,-1,43
 464 142 464 142 464 190 c 0,44,45
 464 227 464 227 443 251 c 128,-1,46
 422 275 422 275 374 288 c 2,47,-1
 268 316 l 2,48,49
 260 318 260 318 257 318 c 0,50,51
 236 318 236 318 211.5 301.5 c 128,-1,52
 187 285 187 285 170 257.5 c 128,-1,53
 153 230 153 230 153 198 c 0,54,55
 153 144 153 144 194.5 114.5 c 128,-1,56
 236 85 236 85 317 85 c 0,57,42
 385 85 385 85 424.5 113.5 c 128,-1,43
EndSplineSet
Substitution2: "'onum' Oldstyle Figures in Latin lookup 24 subtable" eight.osf
Substitution2: "'tnum' Tabular Numbers in Latin lookup 23 subtable" eight.tf
Substitution2: "'frac' Diagonal Fractions in Latin lookup 17 subtable" eight.numr
Substitution2: "'dnom' Denominators in Latin lookup 15 subtable" eight.dnom
Substitution2: "'numr' Numerators in Latin lookup 14 subtable" eight.numr
Substitution2: "'sups' Superscript in Latin lookup 13 subtable" uni2078
Substitution2: "'sinf' Scientific Inferiors in Latin lookup 12 subtable" eight.subs
Substitution2: "'subs' Subscript in Latin lookup 11 subtable" eight.subs
AlternateSubs2: "'aalt' Access All Alternates in Latin lookup 1 subtable" eight.subs uni2078 eight.numr eight.dnom eight.tf eight.osf
EndChar

StartChar: nine
Encoding: 57 57 28
Width: 632
GlyphClass: 2
Flags: W
LayerCount: 2
Fore
SplineSet
174 13 m 128,-1,1
 122 35 122 35 88.5 73.5 c 128,-1,2
 55 112 55 112 47 161 c 1,3,-1
 158 175 l 1,4,5
 176 135 176 135 205.5 112 c 128,-1,6
 235 89 235 89 284 89 c 0,7,8
 368 89 368 89 416.5 152.5 c 128,-1,9
 465 216 465 216 465 345 c 0,10,11
 465 370 465 370 464 383 c 1,12,13
 444 335 444 335 396 307.5 c 128,-1,14
 348 280 348 280 284 280 c 0,15,16
 211 280 211 280 155.5 308.5 c 128,-1,17
 100 337 100 337 69.5 387.5 c 128,-1,18
 39 438 39 438 39 502 c 0,19,20
 39 570 39 570 73.5 622 c 128,-1,21
 108 674 108 674 168 703 c 128,-1,22
 228 732 228 732 303 732 c 0,23,24
 392 732 392 732 456.5 689 c 128,-1,25
 521 646 521 646 555.5 565.5 c 128,-1,26
 590 485 590 485 590 375 c 0,27,28
 590 187 590 187 510.5 89 c 128,-1,29
 431 -9 431 -9 289 -9 c 0,30,0
 226 -9 226 -9 174 13 c 128,-1,1
371 393.5 m 128,-1,32
 404 408 404 408 424.5 432 c 128,-1,33
 445 456 445 456 445 483 c 0,34,35
 436 560 436 560 400 599 c 128,-1,36
 364 638 364 638 306 638 c 128,-1,37
 248 638 248 638 210.5 601.5 c 128,-1,38
 173 565 173 565 173 508 c 0,39,40
 173 453 173 453 209 416 c 128,-1,41
 245 379 245 379 301 379 c 0,42,31
 338 379 338 379 371 393.5 c 128,-1,32
EndSplineSet
Substitution2: "'onum' Oldstyle Figures in Latin lookup 24 subtable" nine.osf
Substitution2: "'tnum' Tabular Numbers in Latin lookup 23 subtable" nine.tf
Substitution2: "'frac' Diagonal Fractions in Latin lookup 17 subtable" nine.numr
Substitution2: "'dnom' Denominators in Latin lookup 15 subtable" nine.dnom
Substitution2: "'numr' Numerators in Latin lookup 14 subtable" nine.numr
Substitution2: "'sups' Superscript in Latin lookup 13 subtable" uni2079
Substitution2: "'sinf' Scientific Inferiors in Latin lookup 12 subtable" nine.subs
Substitution2: "'subs' Subscript in Latin lookup 11 subtable" nine.subs
AlternateSubs2: "'aalt' Access All Alternates in Latin lookup 1 subtable" nine.subs uni2079 nine.numr nine.dnom nine.tf nine.osf
EndChar

StartChar: colon
Encoding: 58 58 29
Width: 248
GlyphClass: 2
Flags: W
LayerCount: 2
Fore
SplineSet
189 362 m 1,0,-1
 51 362 l 1,1,-1
 51 501 l 1,2,-1
 189 501 l 1,3,-1
 189 362 l 1,0,-1
189 3 m 1,4,-1
 51 3 l 1,5,-1
 51 141 l 1,6,-1
 189 141 l 1,7,-1
 189 3 l 1,4,-1
EndSplineSet
EndChar

StartChar: semicolon
Encoding: 59 59 30
Width: 262
GlyphClass: 2
Flags: W
LayerCount: 2
Fore
SplineSet
52 499 m 1,0,-1
 190 499 l 1,1,-1
 190 358 l 1,2,-1
 52 358 l 1,3,-1
 52 499 l 1,0,-1
105 0 m 1,4,-1
 55 0 l 1,5,-1
 55 139 l 1,6,-1
 192 139 l 1,7,-1
 192 16 l 1,8,-1
 94 -149 l 1,9,-1
 43 -149 l 1,10,-1
 105 0 l 1,4,-1
EndSplineSet
EndChar

StartChar: less
Encoding: 60 60 31
Width: 566
GlyphClass: 2
Flags: W
LayerCount: 2
Fore
SplineSet
494 120 m 1,0,-1
 51 292 l 1,1,-1
 51 396 l 1,2,-1
 495 571 l 1,3,-1
 495 463 l 1,4,-1
 189 344 l 1,5,-1
 494 227 l 1,6,-1
 494 120 l 1,0,-1
EndSplineSet
EndChar

StartChar: equal
Encoding: 61 61 32
Width: 570
GlyphClass: 2
Flags: W
LayerCount: 2
Fore
SplineSet
510 414 m 1,0,-1
 56 414 l 1,1,-1
 56 505 l 1,2,-1
 510 505 l 1,3,-1
 510 414 l 1,0,-1
510 189 m 1,4,-1
 56 188 l 1,5,-1
 56 279 l 1,6,-1
 510 279 l 1,7,-1
 510 189 l 1,4,-1
EndSplineSet
EndChar

StartChar: greater
Encoding: 62 62 33
Width: 566
GlyphClass: 2
Flags: W
LayerCount: 2
Fore
SplineSet
373 344 m 1,0,-1
 66 463 l 1,1,-1
 66 571 l 1,2,-1
 510 396 l 1,3,-1
 510 292 l 1,4,-1
 67 120 l 1,5,-1
 67 227 l 1,6,-1
 373 344 l 1,0,-1
EndSplineSet
EndChar

StartChar: question
Encoding: 63 63 34
Width: 525
GlyphClass: 2
Flags: W
LayerCount: 2
Fore
SplineSet
112 692.5 m 128,-1,1
 176 733 176 733 263 733 c 0,2,3
 331 733 331 733 383.5 710.5 c 128,-1,4
 436 688 436 688 464.5 649 c 128,-1,5
 493 610 493 610 493 561 c 0,6,7
 493 522 493 522 479.5 490.5 c 128,-1,8
 466 459 466 459 446 435.5 c 128,-1,9
 426 412 426 412 393 380 c 128,-1,10
 360 348 360 348 341.5 326 c 128,-1,11
 323 304 323 304 310 274.5 c 128,-1,12
 297 245 297 245 297 208 c 1,13,-1
 197 208 l 1,14,15
 197 257 197 257 211.5 295.5 c 128,-1,16
 226 334 226 334 246 361.5 c 128,-1,17
 266 389 266 389 299 425 c 0,18,19
 336 466 336 466 353.5 493.5 c 128,-1,20
 371 521 371 521 371 555 c 0,21,22
 371 597 371 597 341 621.5 c 128,-1,23
 311 646 311 646 262 646 c 0,24,25
 217 646 217 646 177 619 c 128,-1,26
 137 592 137 592 121 550 c 1,27,-1
 16 578 l 1,28,0
 48 652 48 652 112 692.5 c 128,-1,1
316 0 m 1,29,-1
 179 0 l 1,30,-1
 179 138 l 1,31,-1
 316 138 l 1,32,-1
 316 0 l 1,29,-1
EndSplineSet
EndChar

StartChar: at
Encoding: 64 64 35
Width: 826
GlyphClass: 2
Flags: W
LayerCount: 2
Fore
SplineSet
557.5 -89 m 128,-1,1
 496 -110 496 -110 425 -110 c 0,2,3
 309 -110 309 -110 223 -61.5 c 128,-1,4
 137 -13 137 -13 91 70.5 c 128,-1,5
 45 154 45 154 45 255 c 0,6,7
 45 360 45 360 94.5 449.5 c 128,-1,8
 144 539 144 539 234.5 591.5 c 128,-1,9
 325 644 325 644 442 644 c 0,10,11
 533 644 533 644 612.5 610.5 c 128,-1,12
 692 577 692 577 741.5 506.5 c 128,-1,13
 791 436 791 436 791 331 c 0,14,15
 791 258 791 258 766.5 200.5 c 128,-1,16
 742 143 742 143 698.5 111 c 128,-1,17
 655 79 655 79 600 79 c 0,18,19
 527 79 527 79 509 128 c 0,20,21
 506 134 506 134 503 134 c 128,-1,22
 500 134 500 134 496 128 c 0,23,24
 445 65 445 65 364 65 c 0,25,26
 325 65 325 65 292 86.5 c 128,-1,27
 259 108 259 108 240 146.5 c 128,-1,28
 221 185 221 185 221 236 c 0,29,30
 221 297 221 297 245 349 c 128,-1,31
 269 401 269 401 313 432 c 128,-1,32
 357 463 357 463 414 463 c 0,33,34
 452 463 452 463 478 448.5 c 128,-1,35
 504 434 504 434 523 408 c 0,36,37
 525 406 525 406 527 407 c 128,-1,38
 529 408 529 408 530 412 c 2,39,-1
 537 438 l 1,40,-1
 611 438 l 1,41,-1
 575 220 l 2,42,43
 572 205 572 205 572 193 c 0,44,45
 572 152 572 152 608 152 c 0,46,47
 635 152 635 152 659 172.5 c 128,-1,48
 683 193 683 193 697.5 232 c 128,-1,49
 712 271 712 271 712 325 c 0,50,51
 712 412 712 412 674 467.5 c 128,-1,52
 636 523 636 523 575 548 c 128,-1,53
 514 573 514 573 442 573 c 0,54,55
 340 573 340 573 268.5 530.5 c 128,-1,56
 197 488 197 488 161.5 415.5 c 128,-1,57
 126 343 126 343 126 255 c 0,58,59
 126 166 126 166 163 99 c 128,-1,60
 200 32 200 32 271 -5 c 128,-1,61
 342 -42 342 -42 440 -42 c 0,62,63
 501 -42 501 -42 538.5 -27.5 c 128,-1,64
 576 -13 576 -13 621 19 c 1,65,-1
 662 -34 l 1,66,0
 619 -68 619 -68 557.5 -89 c 128,-1,1
331 171 m 128,-1,68
 350 143 350 143 385 143 c 0,69,70
 429 143 429 143 461.5 180.5 c 128,-1,71
 494 218 494 218 499 268 c 0,72,73
 500 275 500 275 500 287 c 0,74,75
 500 332 500 332 477.5 358.5 c 128,-1,76
 455 385 455 385 421 385 c 0,77,78
 374 385 374 385 343 344.5 c 128,-1,79
 312 304 312 304 312 245 c 0,80,67
 312 199 312 199 331 171 c 128,-1,68
EndSplineSet
EndChar

StartChar: A
Encoding: 65 65 36
Width: 705
GlyphClass: 2
Flags: W
AnchorPoint: "Anchor-5" 0 0 basechar 0
AnchorPoint: "Anchor-4" 0 0 basechar 0
AnchorPoint: "Anchor-3" 361 723 basechar 0
AnchorPoint: "Anchor-2" 675 10 basechar 0
LayerCount: 2
Fore
SplineSet
287 723 m 1,0,-1
 419 723 l 1,1,-1
 679 0 l 1,2,-1
 556 0 l 1,3,-1
 492 181 l 1,4,-1
 216 181 l 1,5,-1
 150 0 l 1,6,-1
 27 0 l 1,7,-1
 287 723 l 1,0,-1
462 290 m 1,8,-1
 354 605 l 1,9,-1
 244 290 l 1,10,-1
 462 290 l 1,8,-1
EndSplineSet
Substitution2: "Single Substitution lookup 30 subtable" ordfeminine
Substitution2: "'aalt' Access All Alternates in Latin lookup 0 subtable" ordfeminine
EndChar

StartChar: B
Encoding: 66 66 37
Width: 676
GlyphClass: 2
Flags: W
LayerCount: 2
Fore
SplineSet
85 723 m 1,0,-1
 334 723 l 2,1,2
 470 723 470 723 539 674.5 c 128,-1,3
 608 626 608 626 608 534 c 0,4,5
 608 476 608 476 578.5 436.5 c 128,-1,6
 549 397 549 397 479 370 c 1,7,8
 560 350 560 350 592.5 304 c 128,-1,9
 625 258 625 258 625 195 c 0,10,11
 625 96 625 96 556 48 c 128,-1,12
 487 0 487 0 344 0 c 2,13,-1
 85 0 l 1,14,-1
 85 723 l 1,0,-1
354 415 m 2,15,16
 411 415 411 415 450.5 440 c 128,-1,17
 490 465 490 465 490 518 c 128,-1,18
 490 571 490 571 450 599 c 128,-1,19
 410 627 410 627 343 627 c 2,20,-1
 207 627 l 1,21,-1
 207 415 l 1,22,-1
 354 415 l 2,15,16
345 97 m 2,23,24
 422 97 422 97 462 124.5 c 128,-1,25
 502 152 502 152 502 205 c 0,26,27
 502 260 502 260 461 288 c 128,-1,28
 420 316 420 316 354 316 c 2,29,-1
 207 316 l 1,30,-1
 207 97 l 1,31,-1
 345 97 l 2,23,24
EndSplineSet
EndChar

StartChar: C
Encoding: 67 67 38
Width: 698
GlyphClass: 2
Flags: W
AnchorPoint: "Anchor-5" 0 0 basechar 0
AnchorPoint: "Anchor-4" 367 0 basechar 0
AnchorPoint: "Anchor-3" 367 723 basechar 0
AnchorPoint: "Anchor-2" 0 0 basechar 0
LayerCount: 2
Fore
SplineSet
504.5 702.5 m 128,-1,1
 567 672 567 672 605 619 c 128,-1,2
 643 566 643 566 651 500 c 1,3,-1
 523 497 l 1,4,5
 511 559 511 559 469.5 595 c 128,-1,6
 428 631 428 631 360 631 c 0,7,8
 181 631 181 631 181 364 c 0,9,10
 181 228 181 228 227.5 160 c 128,-1,11
 274 92 274 92 364 92 c 0,12,13
 424 92 424 92 466.5 130 c 128,-1,14
 509 168 509 168 521 230 c 1,15,-1
 649 225 l 1,16,17
 636 121 636 121 565 55.5 c 128,-1,18
 494 -10 494 -10 367 -10 c 0,19,20
 269 -10 269 -10 196.5 36 c 128,-1,21
 124 82 124 82 85.5 167 c 128,-1,22
 47 252 47 252 47 365 c 128,-1,23
 47 478 47 478 85 561 c 128,-1,24
 123 644 123 644 194 688.5 c 128,-1,25
 265 733 265 733 363 733 c 0,26,0
 442 733 442 733 504.5 702.5 c 128,-1,1
EndSplineSet
EndChar

StartChar: D
Encoding: 68 68 39
Width: 702
GlyphClass: 2
Flags: W
AnchorPoint: "Anchor-5" 0 0 basechar 0
AnchorPoint: "Anchor-4" 0 0 basechar 0
AnchorPoint: "Anchor-3" 347 723 basechar 0
AnchorPoint: "Anchor-2" 0 0 basechar 0
LayerCount: 2
Fore
SplineSet
280 722 m 0,0,1
 473 718 473 718 564 627 c 128,-1,2
 655 536 655 536 655 365 c 0,3,4
 655 188 655 188 559.5 94 c 128,-1,5
 464 0 464 0 272 0 c 2,6,-1
 85 0 l 1,7,-1
 85 723 l 1,8,9
 218 723 218 723 280 722 c 0,0,1
209 101 m 1,10,-1
 274 101 l 2,11,12
 393 101 393 101 460 163.5 c 128,-1,13
 527 226 527 226 527 365 c 0,14,15
 527 501 527 501 463 562 c 128,-1,16
 399 623 399 623 277 623 c 2,17,-1
 209 623 l 1,18,-1
 209 101 l 1,10,-1
EndSplineSet
EndChar

StartChar: E
Encoding: 69 69 40
Width: 630
GlyphClass: 2
Flags: W
AnchorPoint: "Anchor-5" 0 0 basechar 0
AnchorPoint: "Anchor-4" 340 0 basechar 0
AnchorPoint: "Anchor-3" 331 723 basechar 0
AnchorPoint: "Anchor-2" 566 10 basechar 0
LayerCount: 2
Fore
SplineSet
85 723 m 1,0,-1
 563 723 l 1,1,-1
 563 619 l 1,2,-1
 208 619 l 1,3,-1
 208 416 l 1,4,-1
 521 416 l 1,5,-1
 521 313 l 1,6,-1
 207 313 l 1,7,-1
 207 106 l 1,8,-1
 570 105 l 1,9,-1
 570 0 l 1,10,-1
 85 0 l 1,11,-1
 85 723 l 1,0,-1
EndSplineSet
EndChar

StartChar: F
Encoding: 70 70 41
Width: 594
GlyphClass: 2
Flags: W
LayerCount: 2
Fore
SplineSet
558 723 m 1,0,-1
 558 620 l 1,1,-1
 209 620 l 1,2,-1
 209 412 l 1,3,-1
 517 412 l 1,4,-1
 517 310 l 1,5,-1
 209 310 l 1,6,-1
 209 0 l 1,7,-1
 85 0 l 1,8,-1
 85 723 l 1,9,-1
 558 723 l 1,0,-1
EndSplineSet
EndChar

StartChar: G
Encoding: 71 71 42
Width: 741
GlyphClass: 2
Flags: W
AnchorPoint: "Anchor-5" 0 0 basechar 0
AnchorPoint: "Anchor-4" 368 0 basechar 0
AnchorPoint: "Anchor-3" 365 723 basechar 0
AnchorPoint: "Anchor-2" 0 0 basechar 0
LayerCount: 2
Fore
SplineSet
196.5 35.5 m 128,-1,1
 125 81 125 81 86 164 c 128,-1,2
 47 247 47 247 47 359 c 0,3,4
 47 473 47 473 87.5 557.5 c 128,-1,5
 128 642 128 642 201 687.5 c 128,-1,6
 274 733 274 733 371 733 c 0,7,8
 448 733 448 733 512 700.5 c 128,-1,9
 576 668 576 668 614 614.5 c 128,-1,10
 652 561 652 561 655 501 c 1,11,-1
 526 497 l 1,12,13
 515 554 515 554 472.5 591 c 128,-1,14
 430 628 430 628 368 628 c 0,15,16
 281 628 281 628 230 561.5 c 128,-1,17
 179 495 179 495 179 365 c 0,18,19
 179 227 179 227 232 162.5 c 128,-1,20
 285 98 285 98 372 98 c 0,21,22
 420 98 420 98 455.5 119.5 c 128,-1,23
 491 141 491 141 510.5 173 c 128,-1,24
 530 205 530 205 533 237 c 2,25,-1
 538 291 l 1,26,-1
 376 291 l 1,27,-1
 376 377 l 1,28,-1
 665 375 l 1,29,-1
 665 0 l 1,30,-1
 579 0 l 1,31,-1
 579 102 l 1,32,33
 545 52 545 52 494 21 c 128,-1,34
 443 -10 443 -10 364 -10 c 0,35,0
 268 -10 268 -10 196.5 35.5 c 128,-1,1
EndSplineSet
EndChar

StartChar: H
Encoding: 72 72 43
Width: 717
GlyphClass: 2
Flags: W
AnchorPoint: "Anchor-5" 0 0 basechar 0
AnchorPoint: "Anchor-4" 357 0 basechar 0
AnchorPoint: "Anchor-3" 358 723 basechar 0
AnchorPoint: "Anchor-2" 0 0 basechar 0
LayerCount: 2
Fore
SplineSet
207 321 m 1,0,-1
 207 0 l 1,1,-1
 85 0 l 1,2,-1
 85 723 l 1,3,-1
 207 723 l 1,4,-1
 207 425 l 1,5,-1
 510 425 l 1,6,-1
 510 723 l 1,7,-1
 632 723 l 1,8,-1
 632 0 l 1,9,-1
 510 0 l 1,10,-1
 510 321 l 1,11,-1
 207 321 l 1,0,-1
EndSplineSet
EndChar

StartChar: I
Encoding: 73 73 44
Width: 292
GlyphClass: 2
Flags: W
AnchorPoint: "Anchor-5" 0 0 basechar 0
AnchorPoint: "Anchor-4" 152 0 basechar 0
AnchorPoint: "Anchor-3" 148 723 basechar 0
AnchorPoint: "Anchor-2" 191 6 basechar 0
LayerCount: 2
Fore
SplineSet
207 723 m 1,0,-1
 207 0 l 1,1,-1
 85 0 l 1,2,-1
 85 723 l 1,3,-1
 207 723 l 1,0,-1
EndSplineSet
EndChar

StartChar: J
Encoding: 74 74 45
Width: 400
GlyphClass: 2
Flags: W
AnchorPoint: "Anchor-5" 0 0 basechar 0
AnchorPoint: "Anchor-4" 0 0 basechar 0
AnchorPoint: "Anchor-3" 228 723 basechar 0
AnchorPoint: "Anchor-2" 0 0 basechar 0
LayerCount: 2
Fore
SplineSet
299.5 76.5 m 128,-1,1
 285 34 285 34 248 12 c 128,-1,2
 211 -10 211 -10 144 -10 c 0,3,4
 112 -10 112 -10 78 -4 c 128,-1,5
 44 2 44 2 22 9 c 1,6,-1
 27 122 l 1,7,8
 33 120 33 120 56 112.5 c 128,-1,9
 79 105 79 105 107 105 c 0,10,11
 156 105 156 105 174.5 131 c 128,-1,12
 193 157 193 157 193 220 c 2,13,-1
 193 723 l 1,14,-1
 314 723 l 1,15,-1
 314 187 l 2,16,0
 314 119 314 119 299.5 76.5 c 128,-1,1
EndSplineSet
EndChar

StartChar: K
Encoding: 75 75 46
Width: 697
GlyphClass: 2
Flags: W
AnchorPoint: "Anchor-5" 0 0 basechar 0
AnchorPoint: "Anchor-4" 344 0 basechar 0
AnchorPoint: "Anchor-3" 358 723 basechar 0
AnchorPoint: "Anchor-2" 0 0 basechar 0
LayerCount: 2
Fore
SplineSet
534 0 m 1,0,-1
 327 353 l 1,1,-1
 212 217 l 1,2,-1
 212 0 l 1,3,-1
 85 0 l 1,4,-1
 85 723 l 1,5,-1
 212 723 l 1,6,-1
 212 372 l 1,7,-1
 503 723 l 1,8,-1
 644 723 l 1,9,-1
 416 443 l 1,10,-1
 669 0 l 1,11,-1
 534 0 l 1,0,-1
EndSplineSet
EndChar

StartChar: L
Encoding: 76 76 47
Width: 563
GlyphClass: 2
Flags: W
AnchorPoint: "Anchor-5" 449 723 basechar 0
AnchorPoint: "Anchor-4" 306 0 basechar 0
AnchorPoint: "Anchor-3" 143 723 basechar 0
AnchorPoint: "Anchor-2" 0 0 basechar 0
LayerCount: 2
Fore
SplineSet
209 723 m 1,0,-1
 209 105 l 1,1,-1
 535 105 l 1,2,-1
 535 0 l 1,3,-1
 85 0 l 1,4,-1
 85 723 l 1,5,-1
 209 723 l 1,0,-1
EndSplineSet
EndChar

StartChar: M
Encoding: 77 77 48
Width: 898
GlyphClass: 2
Flags: W
LayerCount: 2
Fore
SplineSet
85 723 m 1,0,-1
 259 723 l 1,1,-1
 449 170 l 1,2,-1
 640 723 l 1,3,-1
 813 723 l 1,4,-1
 813 0 l 1,5,-1
 690 0 l 1,6,-1
 690 567 l 1,7,-1
 499 0 l 1,8,-1
 398 0 l 1,9,-1
 209 563 l 1,10,-1
 209 0 l 1,11,-1
 85 0 l 1,12,-1
 85 723 l 1,0,-1
EndSplineSet
EndChar

StartChar: N
Encoding: 78 78 49
Width: 765
GlyphClass: 2
Flags: W
AnchorPoint: "Anchor-5" 0 0 basechar 0
AnchorPoint: "Anchor-4" 371 0 basechar 0
AnchorPoint: "Anchor-3" 389 723 basechar 0
AnchorPoint: "Anchor-2" 0 0 basechar 0
LayerCount: 2
Fore
SplineSet
680 723 m 1,0,-1
 680 0 l 1,1,-1
 570 0 l 1,2,-1
 207 530 l 1,3,-1
 207 0 l 1,4,-1
 85 0 l 1,5,-1
 85 723 l 1,6,-1
 204 723 l 1,7,-1
 558 207 l 1,8,-1
 558 723 l 1,9,-1
 680 723 l 1,0,-1
EndSplineSet
EndChar

StartChar: O
Encoding: 79 79 50
Width: 742
GlyphClass: 2
Flags: W
AnchorPoint: "Anchor-5" 0 0 basechar 0
AnchorPoint: "Anchor-4" 373 0 basechar 0
AnchorPoint: "Anchor-3" 372 723 basechar 0
AnchorPoint: "Anchor-2" 452 10 basechar 0
LayerCount: 2
Fore
SplineSet
198.5 34 m 128,-1,1
 125 78 125 78 86 161 c 128,-1,2
 47 244 47 244 47 359 c 0,3,4
 47 475 47 475 87 559.5 c 128,-1,5
 127 644 127 644 200 688.5 c 128,-1,6
 273 733 273 733 372 733 c 0,7,8
 470 733 470 733 542.5 688.5 c 128,-1,9
 615 644 615 644 654.5 560 c 128,-1,10
 694 476 694 476 694 360 c 0,11,12
 694 245 694 245 655 161.5 c 128,-1,13
 616 78 616 78 543.5 34 c 128,-1,14
 471 -10 471 -10 372 -10 c 0,15,0
 272 -10 272 -10 198.5 34 c 128,-1,1
513 157 m 128,-1,17
 562 222 562 222 562 358 c 0,18,19
 562 497 562 497 512.5 564 c 128,-1,20
 463 631 463 631 372 631 c 128,-1,21
 281 631 281 631 231 564 c 128,-1,22
 181 497 181 497 181 358 c 0,23,24
 181 222 181 222 231 157 c 128,-1,25
 281 92 281 92 372 92 c 0,26,16
 464 92 464 92 513 157 c 128,-1,17
EndSplineSet
Substitution2: "Single Substitution lookup 30 subtable" ordmasculine
Substitution2: "'aalt' Access All Alternates in Latin lookup 0 subtable" ordmasculine
EndChar

StartChar: P
Encoding: 80 80 51
Width: 644
GlyphClass: 2
Flags: W
LayerCount: 2
Fore
SplineSet
85 723 m 1,0,-1
 342 723 l 2,1,2
 464 723 464 723 539 665.5 c 128,-1,3
 614 608 614 608 614 499 c 0,4,5
 614 393 614 393 545 337 c 128,-1,6
 476 281 476 281 358 281 c 2,7,-1
 209 281 l 1,8,-1
 209 0 l 1,9,-1
 85 0 l 1,10,-1
 85 723 l 1,0,-1
355 378 m 2,11,12
 419 378 419 378 459 412 c 128,-1,13
 499 446 499 446 499 506 c 128,-1,14
 499 566 499 566 458.5 596.5 c 128,-1,15
 418 627 418 627 351 627 c 2,16,-1
 208 627 l 1,17,-1
 208 378 l 1,18,-1
 355 378 l 2,11,12
EndSplineSet
EndChar

StartChar: Q
Encoding: 81 81 52
Width: 747
GlyphClass: 2
Flags: W
LayerCount: 2
Fore
SplineSet
80.5 560 m 128,-1,1
 120 644 120 644 193 688.5 c 128,-1,2
 266 733 266 733 365 733 c 128,-1,3
 464 733 464 733 537 688.5 c 128,-1,4
 610 644 610 644 649.5 560 c 128,-1,5
 689 476 689 476 689 360 c 0,6,7
 689 147 689 147 558 51 c 1,8,9
 573 17 573 17 607 -2 c 128,-1,10
 641 -21 641 -21 684 -23 c 1,11,-1
 684 -122 l 1,12,13
 610 -122 610 -122 553.5 -97.5 c 128,-1,14
 497 -73 497 -73 449 -2 c 1,15,16
 404 -10 404 -10 365 -10 c 0,17,18
 266 -10 266 -10 193 33.5 c 128,-1,19
 120 77 120 77 80.5 160.5 c 128,-1,20
 41 244 41 244 41 360 c 128,-1,0
 41 476 41 476 80.5 560 c 128,-1,1
365 92 m 0,21,22
 556 92 556 92 556 359 c 0,23,24
 556 497 556 497 507 564 c 128,-1,25
 458 631 458 631 365 631 c 128,-1,26
 272 631 272 631 223.5 563.5 c 128,-1,27
 175 496 175 496 175 358 c 0,28,29
 175 92 175 92 365 92 c 0,21,22
EndSplineSet
EndChar

StartChar: R
Encoding: 82 82 53
Width: 686
GlyphClass: 2
Flags: W
AnchorPoint: "Anchor-5" 0 0 basechar 0
AnchorPoint: "Anchor-4" 342 0 basechar 0
AnchorPoint: "Anchor-3" 333 723 basechar 0
AnchorPoint: "Anchor-2" 0 0 basechar 0
LayerCount: 2
Fore
SplineSet
499 0 m 1,0,-1
 375 294 l 1,1,-1
 207 294 l 1,2,-1
 207 0 l 1,3,-1
 85 0 l 1,4,-1
 85 723 l 1,5,-1
 379 723 l 2,6,7
 500 723 500 723 561 667.5 c 128,-1,8
 622 612 622 612 622 515 c 0,9,10
 622 372 622 372 488 314 c 1,11,-1
 626 0 l 1,12,-1
 499 0 l 1,0,-1
459 422 m 128,-1,14
 498 454 498 454 498 511 c 0,15,16
 498 566 498 566 462.5 597 c 128,-1,17
 427 628 427 628 367 628 c 2,18,-1
 207 628 l 1,19,-1
 207 390 l 1,20,-1
 351 390 l 2,21,13
 420 390 420 390 459 422 c 128,-1,14
EndSplineSet
EndChar

StartChar: S
Encoding: 83 83 54
Width: 683
GlyphClass: 2
Flags: W
AnchorPoint: "Anchor-5" 0 0 basechar 0
AnchorPoint: "Anchor-4" 340 0 basechar 0
AnchorPoint: "Anchor-3" 343 723 basechar 0
AnchorPoint: "Anchor-2" 0 0 basechar 0
LayerCount: 2
Fore
SplineSet
207.5 13 m 128,-1,1
 142 36 142 36 98.5 82.5 c 128,-1,2
 55 129 55 129 47 195 c 1,3,-1
 174 199 l 1,4,5
 186 146 186 146 233.5 116.5 c 128,-1,6
 281 87 281 87 347 87 c 0,7,8
 418 87 418 87 464 114.5 c 128,-1,9
 510 142 510 142 510 191 c 0,10,11
 510 233 510 233 477.5 257.5 c 128,-1,12
 445 282 445 282 384 295 c 2,13,-1
 248 324 l 2,14,15
 163 341 163 341 116 390 c 128,-1,16
 69 439 69 439 69 518 c 0,17,18
 69 582 69 582 104.5 630.5 c 128,-1,19
 140 679 140 679 203 705.5 c 128,-1,20
 266 732 266 732 344 732 c 0,21,22
 426 732 426 732 488 703 c 128,-1,23
 550 674 550 674 585.5 625.5 c 128,-1,24
 621 577 621 577 627 521 c 1,25,-1
 503 517 l 1,26,27
 494 578 494 578 452.5 605.5 c 128,-1,28
 411 633 411 633 345 633 c 0,29,30
 283 633 283 633 241.5 605 c 128,-1,31
 200 577 200 577 200 529 c 0,32,33
 200 492 200 492 225 469 c 128,-1,34
 250 446 250 446 313 432 c 2,35,-1
 445 403 l 2,36,37
 636 365 636 365 636 192 c 0,38,39
 636 135 636 135 600 89 c 128,-1,40
 564 43 564 43 498.5 16.5 c 128,-1,41
 433 -10 433 -10 347 -10 c 0,42,0
 273 -10 273 -10 207.5 13 c 128,-1,1
EndSplineSet
EndChar

StartChar: T
Encoding: 84 84 55
Width: 591
GlyphClass: 2
Flags: W
AnchorPoint: "Anchor-5" 0 0 basechar 0
AnchorPoint: "Anchor-4" 305 0 basechar 0
AnchorPoint: "Anchor-3" 305 723 basechar 0
AnchorPoint: "Anchor-2" 0 0 basechar 0
LayerCount: 2
Fore
SplineSet
13 723 m 1,0,-1
 577 723 l 1,1,-1
 577 613 l 1,2,-1
 360 613 l 1,3,-1
 360 0 l 1,4,-1
 239 0 l 1,5,-1
 239 613 l 1,6,-1
 13 613 l 1,7,-1
 13 723 l 1,0,-1
EndSplineSet
EndChar

StartChar: U
Encoding: 85 85 56
Width: 726
GlyphClass: 2
Flags: W
AnchorPoint: "Anchor-5" 0 0 basechar 0
AnchorPoint: "Anchor-4" 0 0 basechar 0
AnchorPoint: "Anchor-3" 355 723 basechar 0
AnchorPoint: "Anchor-2" 438 11 basechar 0
LayerCount: 2
Fore
SplineSet
574.5 60.5 m 128,-1,1
 508 -10 508 -10 363 -10 c 0,2,3
 217 -10 217 -10 151 61.5 c 128,-1,4
 85 133 85 133 85 271 c 2,5,-1
 85 723 l 1,6,-1
 210 723 l 1,7,-1
 210 259 l 2,8,9
 210 176 210 176 250 135 c 128,-1,10
 290 94 290 94 363 94 c 128,-1,11
 436 94 436 94 477 135 c 128,-1,12
 518 176 518 176 518 259 c 2,13,-1
 518 723 l 1,14,-1
 641 723 l 1,15,-1
 641 264 l 2,16,0
 641 131 641 131 574.5 60.5 c 128,-1,1
EndSplineSet
EndChar

StartChar: V
Encoding: 86 86 57
Width: 664
GlyphClass: 2
Flags: W
LayerCount: 2
Fore
SplineSet
401 0 m 1,0,-1
 260 0 l 1,1,-1
 11 723 l 1,2,-1
 128 723 l 1,3,-1
 331 140 l 1,4,-1
 536 723 l 1,5,-1
 654 723 l 1,6,-1
 401 0 l 1,0,-1
EndSplineSet
EndChar

StartChar: W
Encoding: 87 87 58
Width: 960
GlyphClass: 2
Flags: W
AnchorPoint: "Anchor-5" 0 0 basechar 0
AnchorPoint: "Anchor-4" 0 0 basechar 0
AnchorPoint: "Anchor-3" 482 723 basechar 0
AnchorPoint: "Anchor-2" 0 0 basechar 0
LayerCount: 2
Fore
SplineSet
728 0 m 1,0,-1
 625 0 l 1,1,-1
 479 513 l 1,2,-1
 331 0 l 1,3,-1
 231 0 l 1,4,-1
 20 723 l 1,5,-1
 140 723 l 1,6,-1
 287 201 l 1,7,-1
 434 723 l 1,8,-1
 525 723 l 1,9,-1
 673 201 l 1,10,-1
 820 723 l 1,11,-1
 940 723 l 1,12,-1
 728 0 l 1,0,-1
EndSplineSet
EndChar

StartChar: X
Encoding: 88 88 59
Width: 677
GlyphClass: 2
Flags: W
LayerCount: 2
Fore
SplineSet
505 0 m 1,0,-1
 328 276 l 1,1,-1
 153 0 l 1,2,-1
 20 0 l 1,3,-1
 263 368 l 1,4,-1
 28 723 l 1,5,-1
 181 723 l 1,6,-1
 340 471 l 1,7,-1
 499 723 l 1,8,-1
 631 723 l 1,9,-1
 404 383 l 1,10,-1
 658 0 l 1,11,-1
 505 0 l 1,0,-1
EndSplineSet
EndChar

StartChar: Y
Encoding: 89 89 60
Width: 630
GlyphClass: 2
Flags: W
AnchorPoint: "Anchor-5" 0 0 basechar 0
AnchorPoint: "Anchor-4" 0 0 basechar 0
AnchorPoint: "Anchor-3" 326 723 basechar 0
AnchorPoint: "Anchor-2" 0 0 basechar 0
LayerCount: 2
Fore
SplineSet
376 306 m 1,0,-1
 376 0 l 1,1,-1
 254 0 l 1,2,-1
 254 306 l 1,3,-1
 5 723 l 1,4,-1
 137 723 l 1,5,-1
 316 412 l 1,6,-1
 491 723 l 1,7,-1
 624 723 l 1,8,-1
 376 306 l 1,0,-1
EndSplineSet
EndChar

StartChar: Z
Encoding: 90 90 61
Width: 646
GlyphClass: 2
Flags: W
AnchorPoint: "Anchor-5" 0 0 basechar 0
AnchorPoint: "Anchor-4" 332 0 basechar 0
AnchorPoint: "Anchor-3" 340 723 basechar 0
AnchorPoint: "Anchor-2" 0 0 basechar 0
LayerCount: 2
Fore
SplineSet
48 62 m 1,0,-1
 428 620 l 1,1,-1
 69 620 l 1,2,-1
 69 723 l 1,3,-1
 601 723 l 1,4,-1
 601 664 l 1,5,-1
 216 104 l 1,6,-1
 598 104 l 1,7,-1
 598 0 l 1,8,-1
 48 0 l 1,9,-1
 48 62 l 1,0,-1
EndSplineSet
EndChar

StartChar: bracketleft
Encoding: 91 91 62
Width: 316
GlyphClass: 2
Flags: W
LayerCount: 2
Fore
SplineSet
289 723 m 1,0,-1
 289 651 l 1,1,-1
 182 651 l 1,2,-1
 181 -89 l 1,3,-1
 289 -89 l 1,4,-1
 289 -161 l 1,5,-1
 80 -161 l 1,6,-1
 79 723 l 1,7,-1
 289 723 l 1,0,-1
EndSplineSet
EndChar

StartChar: backslash
Encoding: 92 92 63
Width: 363
GlyphClass: 2
Flags: W
LayerCount: 2
Fore
SplineSet
7 723 m 1,0,-1
 95 723 l 1,1,-1
 347 -28 l 1,2,-1
 258 -28 l 1,3,-1
 7 723 l 1,0,-1
EndSplineSet
EndChar

StartChar: bracketright
Encoding: 93 93 64
Width: 325
GlyphClass: 2
Flags: W
LayerCount: 2
Fore
SplineSet
18 723 m 1,0,-1
 18 651 l 1,1,-1
 125 651 l 1,2,-1
 126 -89 l 1,3,-1
 18 -89 l 1,4,-1
 18 -161 l 1,5,-1
 227 -161 l 1,6,-1
 228 723 l 1,7,-1
 18 723 l 1,0,-1
EndSplineSet
EndChar

StartChar: asciicircum
Encoding: 94 94 65
Width: 476
GlyphClass: 2
Flags: W
LayerCount: 2
Fore
SplineSet
234 397 m 1,0,-1
 124 126 l 1,1,-1
 38 126 l 1,2,-1
 191 491 l 2,3,4
 198 508 198 508 209.5 517 c 128,-1,5
 221 526 221 526 235 526 c 0,6,7
 248 526 248 526 259.5 517.5 c 128,-1,8
 271 509 271 509 278 492 c 2,9,-1
 431 125 l 1,10,-1
 344 125 l 1,11,-1
 234 397 l 1,0,-1
EndSplineSet
EndChar

StartChar: underscore
Encoding: 95 95 66
Width: 535
GlyphClass: 2
Flags: W
LayerCount: 2
Fore
SplineSet
473 -129 m 1,0,-1
 58 -129 l 1,1,-1
 58 -39 l 1,2,-1
 473 -38 l 1,3,-1
 473 -129 l 1,0,-1
EndSplineSet
EndChar

StartChar: grave
Encoding: 96 96 67
Width: 302
GlyphClass: 2
Flags: W
LayerCount: 2
Fore
SplineSet
287 633 m 1,0,-1
 268 578 l 1,1,-1
 9 649 l 1,2,-1
 38 733 l 1,3,-1
 287 633 l 1,0,-1
EndSplineSet
EndChar

StartChar: a
Encoding: 97 97 68
Width: 567
GlyphClass: 2
Flags: W
AnchorPoint: "Anchor-5" 0 0 basechar 0
AnchorPoint: "Anchor-4" 0 0 basechar 0
AnchorPoint: "Anchor-3" 283 517 basechar 0
AnchorPoint: "Anchor-2" 477 12 basechar 0
LayerCount: 2
Fore
SplineSet
89 31 m 128,-1,1
 41 72 41 72 41 144 c 0,2,3
 41 229 41 229 103 270.5 c 128,-1,4
 165 312 165 312 300 317 c 2,5,-1
 378 322 l 1,6,-1
 378 354 l 2,7,8
 378 395 378 395 352.5 418.5 c 128,-1,9
 327 442 327 442 282 442 c 0,10,11
 245 442 245 442 212 425 c 128,-1,12
 179 408 179 408 158 373 c 1,13,-1
 58 383 l 1,14,15
 75 453 75 453 136 490 c 128,-1,16
 197 527 197 527 285 527 c 0,17,18
 392 527 392 527 443.5 483.5 c 128,-1,19
 495 440 495 440 495 362 c 2,20,-1
 495 0 l 1,21,-1
 392 0 l 1,22,-1
 383 69 l 1,23,24
 355 32 355 32 311.5 11 c 128,-1,25
 268 -10 268 -10 214 -10 c 0,26,0
 137 -10 137 -10 89 31 c 128,-1,1
312 87 m 128,-1,28
 341 101 341 101 359.5 124 c 128,-1,29
 378 147 378 147 378 171 c 2,30,-1
 378 254 l 1,31,-1
 314 250 l 2,32,33
 236 245 236 245 197 225 c 128,-1,34
 158 205 158 205 158 156 c 0,35,36
 158 118 158 118 184.5 95.5 c 128,-1,37
 211 73 211 73 253 73 c 0,38,27
 283 73 283 73 312 87 c 128,-1,28
EndSplineSet
Substitution2: "Single Substitution lookup 30 subtable" ordfeminine
Substitution2: "'aalt' Access All Alternates in Latin lookup 0 subtable" ordfeminine
EndChar

StartChar: b
Encoding: 98 98 69
Width: 601
GlyphClass: 2
Flags: W
LayerCount: 2
Fore
SplineSet
235 16 m 128,-1,1
 191 42 191 42 174 75 c 1,2,-1
 161 0 l 1,3,-1
 72 0 l 1,4,-1
 72 743 l 1,5,-1
 194 743 l 1,6,-1
 194 444 l 1,7,8
 214 477 214 477 256.5 502 c 128,-1,9
 299 527 299 527 354 527 c 0,10,11
 454 527 454 527 507 454 c 128,-1,12
 560 381 560 381 560 261 c 0,13,14
 560 136 560 136 501 63 c 128,-1,15
 442 -10 442 -10 337 -10 c 0,16,0
 279 -10 279 -10 235 16 c 128,-1,1
400.5 124.5 m 128,-1,18
 435 169 435 169 435 262 c 0,19,20
 435 350 435 350 403 393 c 128,-1,21
 371 436 371 436 313 436 c 0,22,23
 270 436 270 436 238.5 408.5 c 128,-1,24
 207 381 207 381 194 330 c 1,25,-1
 194 221 l 2,26,27
 194 157 194 157 227 118.5 c 128,-1,28
 260 80 260 80 308 80 c 0,29,17
 366 80 366 80 400.5 124.5 c 128,-1,18
EndSplineSet
EndChar

StartChar: c
Encoding: 99 99 70
Width: 536
GlyphClass: 2
Flags: W
AnchorPoint: "Anchor-5" 0 0 basechar 0
AnchorPoint: "Anchor-4" 284 0 basechar 0
AnchorPoint: "Anchor-3" 284 517 basechar 0
AnchorPoint: "Anchor-2" 0 0 basechar 0
LayerCount: 2
Fore
SplineSet
421 480 m 128,-1,1
 473 433 473 433 492 357 c 1,2,-1
 393 347 l 1,3,4
 367 392 367 392 345.5 412.5 c 128,-1,5
 324 433 324 433 287 433 c 0,6,7
 226 433 226 433 190.5 386 c 128,-1,8
 155 339 155 339 155 258 c 0,9,10
 155 176 155 176 191.5 127.5 c 128,-1,11
 228 79 228 79 289 79 c 0,12,13
 329 79 329 79 353.5 102.5 c 128,-1,14
 378 126 378 126 398 168 c 1,15,-1
 494 158 l 1,16,17
 477 83 477 83 422.5 36.5 c 128,-1,18
 368 -10 368 -10 285 -10 c 0,19,20
 213 -10 213 -10 157.5 23.5 c 128,-1,21
 102 57 102 57 71.5 117.5 c 128,-1,22
 41 178 41 178 41 256 c 0,23,24
 41 335 41 335 71.5 396.5 c 128,-1,25
 102 458 102 458 157.5 492.5 c 128,-1,26
 213 527 213 527 285 527 c 0,27,0
 369 527 369 527 421 480 c 128,-1,1
EndSplineSet
EndChar

StartChar: d
Encoding: 100 100 71
Width: 595
GlyphClass: 2
Flags: W
AnchorPoint: "Anchor-5" 588 614 basechar 0
AnchorPoint: "Anchor-4" 291 0 basechar 0
AnchorPoint: "Anchor-3" 0 0 basechar 0
AnchorPoint: "Anchor-2" 0 0 basechar 0
LayerCount: 2
Fore
SplineSet
98.5 60 m 128,-1,1
 41 130 41 130 41 256 c 0,2,3
 41 381 41 381 96.5 454 c 128,-1,4
 152 527 152 527 252 527 c 0,5,6
 344 527 344 527 401 460 c 1,7,-1
 401 743 l 1,8,-1
 523 743 l 1,9,-1
 523 0 l 1,10,-1
 433 0 l 1,11,-1
 425 72 l 1,12,13
 402 41 402 41 360 15.5 c 128,-1,14
 318 -10 318 -10 257 -10 c 0,15,0
 156 -10 156 -10 98.5 60 c 128,-1,1
367.5 116.5 m 128,-1,17
 401 153 401 153 401 205 c 2,18,-1
 401 345 l 1,19,20
 370 436 370 436 287 436 c 0,21,22
 229 436 229 436 194.5 392 c 128,-1,23
 160 348 160 348 160 259 c 0,24,25
 160 168 160 168 194 124 c 128,-1,26
 228 80 228 80 285 80 c 0,27,16
 334 80 334 80 367.5 116.5 c 128,-1,17
EndSplineSet
EndChar

StartChar: e
Encoding: 101 101 72
Width: 559
GlyphClass: 2
Flags: W
AnchorPoint: "Anchor-5" 0 0 basechar 0
AnchorPoint: "Anchor-4" 283 0 basechar 0
AnchorPoint: "Anchor-3" 285 517 basechar 0
AnchorPoint: "Anchor-2" 397 22 basechar 0
LayerCount: 2
Fore
SplineSet
196 122 m 128,-1,1
 230 81 230 81 291 81 c 0,2,3
 334 81 334 81 362.5 98 c 128,-1,4
 391 115 391 115 405 151 c 1,5,-1
 514 143 l 1,6,7
 499 73 499 73 436.5 31.5 c 128,-1,8
 374 -10 374 -10 294 -10 c 0,9,10
 220 -10 220 -10 162.5 22 c 128,-1,11
 105 54 105 54 73 113.5 c 128,-1,12
 41 173 41 173 41 253 c 128,-1,13
 41 333 41 333 70 395 c 128,-1,14
 99 457 99 457 154 492 c 128,-1,15
 209 527 209 527 285 527 c 0,16,17
 396 527 396 527 457 456.5 c 128,-1,18
 518 386 518 386 518 267 c 2,19,-1
 518 230 l 1,20,-1
 162 230 l 1,21,0
 162 163 162 163 196 122 c 128,-1,1
404 306 m 1,22,23
 404 365 404 365 373 402 c 128,-1,24
 342 439 342 439 284 439 c 0,25,26
 227 439 227 439 194.5 399 c 128,-1,27
 162 359 162 359 162 306 c 1,28,-1
 404 306 l 1,22,23
EndSplineSet
EndChar

StartChar: f
Encoding: 102 102 73
Width: 397
GlyphClass: 2
Flags: W
LayerCount: 2
Fore
SplineSet
365 431 m 1,0,-1
 248 431 l 1,1,-1
 248 0 l 1,2,-1
 126 0 l 1,3,-1
 126 431 l 1,4,-1
 24 431 l 1,5,-1
 24 517 l 1,6,-1
 126 517 l 1,7,-1
 126 594 l 2,8,9
 126 656 126 656 160.5 689.5 c 128,-1,10
 195 723 195 723 260 723 c 2,11,-1
 369 723 l 1,12,-1
 370 640 l 1,13,-1
 297 640 l 2,14,15
 268 640 268 640 257 625.5 c 128,-1,16
 246 611 246 611 246 577 c 2,17,-1
 246 517 l 1,18,-1
 365 517 l 1,19,-1
 365 431 l 1,0,-1
EndSplineSet
EndChar

StartChar: g
Encoding: 103 103 74
Width: 618
GlyphClass: 2
Flags: W
AnchorPoint: "Anchor-5" 0 0 basechar 0
AnchorPoint: "Anchor-4" 0 0 basechar 0
AnchorPoint: "Anchor-3" 304 517 basechar 0
AnchorPoint: "Anchor-2" 0 0 basechar 0
LayerCount: 2
Fore
SplineSet
100 -135.5 m 128,-1,1
 30 -100 30 -100 30 -40 c 0,2,3
 30 0 30 0 57 22 c 128,-1,4
 84 44 84 44 104.5 53 c 128,-1,5
 125 62 125 62 129 64 c 1,6,7
 126 66 126 66 109.5 75 c 128,-1,8
 93 84 93 84 81.5 100 c 128,-1,9
 70 116 70 116 70 136 c 0,10,11
 70 163 70 163 95.5 185 c 128,-1,12
 121 207 121 207 169 216 c 1,13,14
 69 265 69 265 69 362 c 0,15,16
 69 438 69 438 134.5 481.5 c 128,-1,17
 200 525 200 525 304 525 c 0,18,19
 353 525 353 525 387.5 514 c 128,-1,20
 422 503 422 503 454 482 c 1,21,-1
 597 540 l 1,22,-1
 596 440 l 1,23,-1
 506 424 l 1,24,25
 512 412 512 412 516 393.5 c 128,-1,26
 520 375 520 375 520 363 c 0,27,28
 520 318 520 318 494.5 279.5 c 128,-1,29
 469 241 469 241 418.5 218 c 128,-1,30
 368 195 368 195 295 195 c 0,31,32
 275 195 275 195 253 197 c 0,33,34
 183 194 183 194 183 169 c 0,35,36
 183 157 183 157 203 152 c 128,-1,37
 223 147 223 147 277 143 c 2,38,-1
 387 137 l 2,39,40
 477 131 477 131 521.5 93 c 128,-1,41
 566 55 566 55 566 -7 c 0,42,43
 566 -83 566 -83 497 -127 c 128,-1,44
 428 -171 428 -171 300 -171 c 0,45,0
 170 -171 170 -171 100 -135.5 c 128,-1,1
377 291 m 128,-1,47
 405 315 405 315 405 359 c 0,48,49
 405 404 405 404 376.5 430.5 c 128,-1,50
 348 457 348 457 298 457 c 128,-1,51
 248 457 248 457 219 430.5 c 128,-1,52
 190 404 190 404 190 359 c 0,53,54
 190 316 190 316 218.5 291.5 c 128,-1,55
 247 267 247 267 298 267 c 128,-1,46
 349 267 349 267 377 291 c 128,-1,47
418.5 -82 m 128,-1,57
 449 -65 449 -65 449 -29 c 0,58,59
 449 29 449 29 364 35 c 2,60,-1
 233 44 l 2,61,62
 201 46 201 46 175 24.5 c 128,-1,63
 149 3 149 3 149 -26 c 0,64,65
 149 -64 149 -64 192 -81.5 c 128,-1,66
 235 -99 235 -99 320 -99 c 0,67,56
 388 -99 388 -99 418.5 -82 c 128,-1,57
EndSplineSet
EndChar

StartChar: h
Encoding: 104 104 75
Width: 599
GlyphClass: 2
Flags: W
AnchorPoint: "Anchor-5" 0 0 basechar 0
AnchorPoint: "Anchor-4" 305 0 basechar 0
AnchorPoint: "Anchor-3" 388 517 basechar 0
AnchorPoint: "Anchor-2" 0 0 basechar 0
LayerCount: 2
Fore
SplineSet
72 743 m 1,0,-1
 191 743 l 1,1,-1
 191 447 l 1,2,3
 226 476 226 476 246 490 c 128,-1,4
 266 504 266 504 293 513 c 128,-1,5
 320 522 320 522 357 522 c 0,6,7
 432 522 432 522 479.5 478 c 128,-1,8
 527 434 527 434 527 363 c 2,9,-1
 527 0 l 1,10,-1
 405 0 l 1,11,-1
 405 344 l 2,12,13
 405 382 405 382 381.5 404 c 128,-1,14
 358 426 358 426 317 426 c 0,15,16
 282 426 282 426 252 409 c 128,-1,17
 222 392 222 392 194 358 c 1,18,-1
 194 0 l 1,19,-1
 72 0 l 1,20,-1
 72 743 l 1,0,-1
EndSplineSet
EndChar

StartChar: i
Encoding: 105 105 76
Width: 270
GlyphClass: 2
Flags: W
LayerCount: 2
Fore
SplineSet
198 611 m 1,0,-1
 72 611 l 1,1,-1
 72 743 l 1,2,-1
 198 743 l 1,3,-1
 198 611 l 1,0,-1
196 0 m 1,4,-1
 74 0 l 1,5,-1
 74 517 l 1,6,-1
 196 517 l 1,7,-1
 196 0 l 1,4,-1
EndSplineSet
Substitution2: "Single Substitution lookup 28 subtable" dotlessi
Substitution2: "'locl' Localized Forms in Latin lookup 10 subtable" i.loclTRK
Substitution2: "'locl' Localized Forms in Latin lookup 9 subtable" i.loclTRK
Substitution2: "'locl' Localized Forms in Latin lookup 8 subtable" i.loclTRK
Substitution2: "'locl' Localized Forms in Latin lookup 7 subtable" i.loclTRK
Substitution2: "'locl' Localized Forms in Latin lookup 6 subtable" i.loclTRK
AlternateSubs2: "'aalt' Access All Alternates in Latin lookup 1 subtable" dotlessi i.loclTRK
EndChar

StartChar: j
Encoding: 106 106 77
Width: 285
GlyphClass: 2
Flags: W
LayerCount: 2
Fore
SplineSet
207 611 m 1,0,-1
 81 611 l 1,1,-1
 81 743 l 1,2,-1
 207 743 l 1,3,-1
 207 611 l 1,0,-1
167.5 -127.5 m 128,-1,5
 130 -166 130 -166 45 -166 c 0,6,7
 21 -166 21 -166 6.5 -163 c 128,-1,8
 -8 -160 -8 -160 -13.5 -157 c 128,-1,9
 -19 -154 -19 -154 -20 -153 c 2,10,-1
 -21 -72 l 1,11,-1
 24 -68 l 2,12,13
 57 -65 57 -65 70 -50.5 c 128,-1,14
 83 -36 83 -36 83 -6 c 2,15,-1
 83 517 l 1,16,-1
 205 517 l 1,17,-1
 205 -9 l 2,18,4
 205 -89 205 -89 167.5 -127.5 c 128,-1,5
EndSplineSet
Substitution2: "Single Substitution lookup 28 subtable" uni0237
Substitution2: "'aalt' Access All Alternates in Latin lookup 0 subtable" uni0237
EndChar

StartChar: k
Encoding: 107 107 78
Width: 578
GlyphClass: 2
Flags: W
AnchorPoint: "Anchor-5" 0 0 basechar 0
AnchorPoint: "Anchor-4" 289 0 basechar 0
AnchorPoint: "Anchor-3" 0 0 basechar 0
AnchorPoint: "Anchor-2" 0 0 basechar 0
LayerCount: 2
Fore
SplineSet
427 0 m 1,0,-1
 278 240 l 1,1,-1
 194 152 l 1,2,-1
 194 0 l 1,3,-1
 72 0 l 1,4,-1
 72 743 l 1,5,-1
 194 743 l 1,6,-1
 194 277 l 1,7,-1
 414 517 l 1,8,-1
 542 517 l 1,9,-1
 355 315 l 1,10,-1
 551 0 l 1,11,-1
 427 0 l 1,0,-1
EndSplineSet
EndChar

StartChar: l
Encoding: 108 108 79
Width: 308
GlyphClass: 2
Flags: W
AnchorPoint: "Anchor-5" 327 745 basechar 0
AnchorPoint: "Anchor-4" 124 0 basechar 0
AnchorPoint: "Anchor-3" 131 764 basechar 0
AnchorPoint: "Anchor-2" 0 0 basechar 0
LayerCount: 2
Fore
SplineSet
126 15 m 128,-1,1
 93 35 93 35 82.5 66.5 c 128,-1,2
 72 98 72 98 72 142 c 2,3,-1
 72 743 l 1,4,-1
 192 743 l 1,5,-1
 192 156 l 2,6,7
 192 122 192 122 206 103.5 c 128,-1,8
 220 85 220 85 250 82 c 2,9,-1
 276 81 l 1,10,-1
 276 5 l 1,11,12
 246 -5 246 -5 222 -5 c 0,13,0
 159 -5 159 -5 126 15 c 128,-1,1
EndSplineSet
Substitution2: "'ss01' Style Set 1 in Latin lookup 27 subtable" l.ss01
Substitution2: "'salt' Stylistic Alternatives in Latin lookup 26 subtable" l.ss01
Substitution2: "'aalt' Access All Alternates in Latin lookup 0 subtable" l.ss01
EndChar

StartChar: m
Encoding: 109 109 80
Width: 914
GlyphClass: 2
Flags: W
LayerCount: 2
Fore
SplineSet
72 517 m 1,0,-1
 191 517 l 1,1,-1
 191 448 l 1,2,3
 219 481 219 481 259.5 504 c 128,-1,4
 300 527 300 527 354 527 c 0,5,6
 405 527 405 527 446.5 507 c 128,-1,7
 488 487 488 487 508 448 c 1,8,9
 534 485 534 485 576 506 c 128,-1,10
 618 527 618 527 669 527 c 0,11,12
 739 527 739 527 790.5 484 c 128,-1,13
 842 441 842 441 842 350 c 2,14,-1
 842 0 l 1,15,-1
 720 0 l 1,16,-1
 720 338 l 2,17,18
 720 390 720 390 693.5 413 c 128,-1,19
 667 436 667 436 623 436 c 0,20,21
 574 436 574 436 545.5 411 c 128,-1,22
 517 386 517 386 517 333 c 2,23,-1
 517 0 l 1,24,-1
 396 0 l 1,25,-1
 396 357 l 2,26,27
 396 394 396 394 367.5 415 c 128,-1,28
 339 436 339 436 298 436 c 0,29,30
 259 436 259 436 226.5 413.5 c 128,-1,31
 194 391 194 391 194 350 c 2,32,-1
 194 0 l 1,33,-1
 72 0 l 1,34,-1
 72 517 l 1,0,-1
EndSplineSet
EndChar

StartChar: n
Encoding: 110 110 81
Width: 600
GlyphClass: 2
Flags: W
AnchorPoint: "Anchor-5" 0 0 basechar 0
AnchorPoint: "Anchor-4" 300 0 basechar 0
AnchorPoint: "Anchor-3" 305 517 basechar 0
AnchorPoint: "Anchor-2" 0 0 basechar 0
LayerCount: 2
Fore
SplineSet
72 517 m 1,0,-1
 191 517 l 1,1,-1
 191 448 l 1,2,3
 217 483 217 483 253.5 503 c 128,-1,4
 290 523 290 523 347 523 c 0,5,6
 396 523 396 523 437 501 c 128,-1,7
 478 479 478 479 503 438 c 128,-1,8
 528 397 528 397 528 342 c 2,9,-1
 528 0 l 1,10,-1
 406 0 l 1,11,-1
 406 329 l 2,12,13
 406 374 406 374 378.5 400 c 128,-1,14
 351 426 351 426 307 426 c 0,15,16
 260 426 260 426 227 403.5 c 128,-1,17
 194 381 194 381 194 340 c 2,18,-1
 194 0 l 1,19,-1
 72 0 l 1,20,-1
 72 517 l 1,0,-1
EndSplineSet
EndChar

StartChar: o
Encoding: 111 111 82
Width: 569
GlyphClass: 2
Flags: W
AnchorPoint: "Anchor-5" 0 0 basechar 0
AnchorPoint: "Anchor-4" 283 0 basechar 0
AnchorPoint: "Anchor-3" 286 517 basechar 0
AnchorPoint: "Anchor-2" 355 10 basechar 0
LayerCount: 2
Fore
SplineSet
155 23.5 m 128,-1,1
 100 57 100 57 70.5 117 c 128,-1,2
 41 177 41 177 41 255 c 0,3,4
 41 335 41 335 71 396.5 c 128,-1,5
 101 458 101 458 157 492.5 c 128,-1,6
 213 527 213 527 286 527 c 0,7,8
 360 527 360 527 415 492.5 c 128,-1,9
 470 458 470 458 499 396.5 c 128,-1,10
 528 335 528 335 528 256 c 0,11,12
 528 178 528 178 499 117.5 c 128,-1,13
 470 57 470 57 415 23.5 c 128,-1,14
 360 -10 360 -10 285 -10 c 128,-1,0
 210 -10 210 -10 155 23.5 c 128,-1,1
379 132.5 m 128,-1,16
 409 183 409 183 409 260 c 128,-1,17
 409 337 409 337 378.5 386 c 128,-1,18
 348 435 348 435 286 435 c 0,19,20
 222 435 222 435 191.5 386 c 128,-1,21
 161 337 161 337 161 260 c 128,-1,22
 161 183 161 183 192 132.5 c 128,-1,23
 223 82 223 82 286 82 c 128,-1,15
 349 82 349 82 379 132.5 c 128,-1,16
EndSplineSet
Substitution2: "Single Substitution lookup 30 subtable" ordmasculine
Substitution2: "'aalt' Access All Alternates in Latin lookup 0 subtable" ordmasculine
EndChar

StartChar: p
Encoding: 112 112 83
Width: 600
GlyphClass: 2
Flags: W
LayerCount: 2
Fore
SplineSet
72 517 m 1,0,-1
 193 517 l 1,1,-1
 193 449 l 1,2,3
 254 527 254 527 349 527 c 0,4,5
 409 527 409 527 456.5 497.5 c 128,-1,6
 504 468 504 468 531.5 409 c 128,-1,7
 559 350 559 350 559 264 c 0,8,9
 559 175 559 175 529 113.5 c 128,-1,10
 499 52 499 52 447.5 21 c 128,-1,11
 396 -10 396 -10 332 -10 c 0,12,13
 244 -10 244 -10 194 54 c 1,14,-1
 194 -161 l 1,15,-1
 72 -161 l 1,16,-1
 72 517 l 1,0,-1
406.5 128 m 128,-1,18
 444 176 444 176 444 262 c 0,19,20
 444 345 444 345 406 390.5 c 128,-1,21
 368 436 368 436 313 436 c 0,22,23
 280 436 280 436 253 419.5 c 128,-1,24
 226 403 226 403 210 377 c 128,-1,25
 194 351 194 351 194 325 c 2,26,-1
 194 165 l 1,27,28
 211 127 211 127 242 103.5 c 128,-1,29
 273 80 273 80 310 80 c 0,30,17
 369 80 369 80 406.5 128 c 128,-1,18
EndSplineSet
EndChar

StartChar: q
Encoding: 113 113 84
Width: 601
GlyphClass: 2
Flags: W
LayerCount: 2
Fore
SplineSet
407 -161 m 1,0,-1
 407 49 l 1,1,2
 371 17 371 17 335.5 3.5 c 128,-1,3
 300 -10 300 -10 260 -10 c 0,4,5
 196 -10 196 -10 146.5 21 c 128,-1,6
 97 52 97 52 69 113.5 c 128,-1,7
 41 175 41 175 41 264 c 0,8,9
 41 350 41 350 69 409 c 128,-1,10
 97 468 97 468 144.5 497.5 c 128,-1,11
 192 527 192 527 252 527 c 0,12,13
 303 527 303 527 339 508 c 128,-1,14
 375 489 375 489 407 460 c 1,15,-1
 407 517 l 1,16,-1
 529 517 l 1,17,-1
 529 -161 l 1,18,-1
 407 -161 l 1,0,-1
407 188 m 1,19,-1
 407 307 l 2,20,21
 407 366 407 366 375.5 404 c 128,-1,22
 344 442 344 442 293 442 c 0,23,24
 238 442 238 442 201.5 397 c 128,-1,25
 165 352 165 352 165 264 c 128,-1,26
 165 176 165 176 202 125 c 128,-1,27
 239 74 239 74 297 74 c 0,28,29
 370 74 370 74 407 188 c 1,19,-1
EndSplineSet
EndChar

StartChar: r
Encoding: 114 114 85
Width: 406
GlyphClass: 2
Flags: W
AnchorPoint: "Anchor-5" 0 0 basechar 0
AnchorPoint: "Anchor-4" 139 0 basechar 0
AnchorPoint: "Anchor-3" 222 517 basechar 0
AnchorPoint: "Anchor-2" 0 0 basechar 0
LayerCount: 2
Fore
SplineSet
72 517 m 1,0,-1
 189 517 l 1,1,-1
 189 397 l 1,2,3
 213 454 213 454 263 490.5 c 128,-1,4
 313 527 313 527 373 527 c 1,5,-1
 374 411 l 1,6,-1
 355 412 l 2,7,8
 304 412 304 412 267.5 394.5 c 128,-1,9
 231 377 231 377 212.5 349.5 c 128,-1,10
 194 322 194 322 194 292 c 2,11,-1
 194 0 l 1,12,-1
 72 0 l 1,13,-1
 72 517 l 1,0,-1
EndSplineSet
EndChar

StartChar: s
Encoding: 115 115 86
Width: 513
GlyphClass: 2
Flags: W
AnchorPoint: "Anchor-5" 0 0 basechar 0
AnchorPoint: "Anchor-4" 258 0 basechar 0
AnchorPoint: "Anchor-3" 255 517 basechar 0
AnchorPoint: "Anchor-2" 0 0 basechar 0
LayerCount: 2
Fore
SplineSet
112 29.5 m 128,-1,1
 51 69 51 69 37 145 c 1,2,-1
 139 152 l 1,3,4
 152 110 152 110 183.5 93 c 128,-1,5
 215 76 215 76 260 76 c 0,6,7
 308 76 308 76 339 94 c 128,-1,8
 370 112 370 112 370 142 c 0,9,10
 370 190 370 190 297 207 c 2,11,-1
 200 227 l 2,12,13
 55 256 55 256 54 368 c 0,14,15
 54 440 54 440 110 483.5 c 128,-1,16
 166 527 166 527 262 527 c 0,17,18
 359 527 359 527 414 483.5 c 128,-1,19
 469 440 469 440 470 371 c 1,20,-1
 368 367 l 1,21,22
 360 407 360 407 331 425.5 c 128,-1,23
 302 444 302 444 259 444 c 0,24,25
 217 444 217 444 190 428.5 c 128,-1,26
 163 413 163 413 163 376 c 0,27,28
 163 356 163 356 182 341.5 c 128,-1,29
 201 327 201 327 247 317 c 2,30,-1
 340 295 l 2,31,32
 414 277 414 277 445 235.5 c 128,-1,33
 476 194 476 194 476 148 c 0,34,35
 476 100 476 100 448 64.5 c 128,-1,36
 420 29 420 29 370.5 9.5 c 128,-1,37
 321 -10 321 -10 258 -10 c 0,38,0
 173 -10 173 -10 112 29.5 c 128,-1,1
EndSplineSet
EndChar

StartChar: t
Encoding: 116 116 87
Width: 409
GlyphClass: 2
Flags: W
AnchorPoint: "Anchor-5" 397 767 basechar 0
AnchorPoint: "Anchor-4" 261 0 basechar 0
AnchorPoint: "Anchor-3" 0 0 basechar 0
AnchorPoint: "Anchor-2" 0 0 basechar 0
LayerCount: 2
Fore
SplineSet
242 431 m 1,0,-1
 243 137 l 2,1,2
 243 105 243 105 254 93 c 128,-1,3
 265 81 265 81 287 81 c 2,4,-1
 361 81 l 1,5,-1
 361 7 l 1,6,7
 337 -4 337 -4 277 -4 c 0,8,9
 190 -4 190 -4 155.5 29.5 c 128,-1,10
 121 63 121 63 121 130 c 2,11,-1
 121 431 l 1,12,-1
 37 431 l 1,13,-1
 37 517 l 1,14,-1
 125 517 l 1,15,-1
 140 685 l 1,16,-1
 242 685 l 1,17,-1
 242 518 l 1,18,-1
 358 518 l 1,19,-1
 358 431 l 1,20,-1
 242 431 l 1,0,-1
EndSplineSet
EndChar

StartChar: u
Encoding: 117 117 88
Width: 600
GlyphClass: 2
Flags: W
AnchorPoint: "Anchor-5" 0 0 basechar 0
AnchorPoint: "Anchor-4" 299 0 basechar 0
AnchorPoint: "Anchor-3" 294 517 basechar 0
AnchorPoint: "Anchor-2" 507 10 basechar 0
LayerCount: 2
Fore
SplineSet
174.5 9.5 m 128,-1,1
 130 28 130 28 101 67 c 128,-1,2
 72 106 72 106 72 163 c 2,3,-1
 72 518 l 1,4,-1
 194 518 l 1,5,-1
 194 177 l 2,6,7
 194 129 194 129 224.5 105 c 128,-1,8
 255 81 255 81 297 81 c 0,9,10
 343 81 343 81 373.5 107.5 c 128,-1,11
 404 134 404 134 405 181 c 2,12,-1
 405 518 l 1,13,-1
 528 518 l 1,14,-1
 526 0 l 1,15,-1
 432 0 l 1,16,-1
 425 76 l 1,17,18
 406 39 406 39 359 14.5 c 128,-1,19
 312 -10 312 -10 265 -10 c 0,20,0
 219 -9 219 -9 174.5 9.5 c 128,-1,1
EndSplineSet
EndChar

StartChar: v
Encoding: 118 118 89
Width: 543
GlyphClass: 2
Flags: W
LayerCount: 2
Fore
SplineSet
315 0 m 1,0,-1
 229 0 l 1,1,-1
 19 517 l 1,2,-1
 130 517 l 1,3,-1
 272 157 l 1,4,-1
 413 517 l 1,5,-1
 525 517 l 1,6,-1
 315 0 l 1,0,-1
EndSplineSet
EndChar

StartChar: w
Encoding: 119 119 90
Width: 786
GlyphClass: 2
Flags: W
AnchorPoint: "Anchor-5" 0 0 basechar 0
AnchorPoint: "Anchor-4" 0 0 basechar 0
AnchorPoint: "Anchor-3" 397 517 basechar 0
AnchorPoint: "Anchor-2" 0 0 basechar 0
LayerCount: 2
Fore
SplineSet
599 0 m 1,0,-1
 500 0 l 1,1,-1
 391 344 l 1,2,-1
 285 0 l 1,3,-1
 188 0 l 1,4,-1
 21 517 l 1,5,-1
 130 517 l 1,6,-1
 241 161 l 1,7,-1
 349 517 l 1,8,-1
 437 517 l 1,9,-1
 548 162 l 1,10,-1
 655 517 l 1,11,-1
 766 517 l 1,12,-1
 599 0 l 1,0,-1
EndSplineSet
EndChar

StartChar: x
Encoding: 120 120 91
Width: 566
GlyphClass: 2
Flags: W
LayerCount: 2
Fore
SplineSet
419 0 m 1,0,-1
 283 184 l 1,1,-1
 147 0 l 1,2,-1
 18 0 l 1,3,-1
 217 269 l 1,4,-1
 35 517 l 1,5,-1
 164 517 l 1,6,-1
 283 355 l 1,7,-1
 403 517 l 1,8,-1
 532 517 l 1,9,-1
 349 269 l 1,10,-1
 548 0 l 1,11,-1
 419 0 l 1,0,-1
EndSplineSet
EndChar

StartChar: y
Encoding: 121 121 92
Width: 551
GlyphClass: 2
Flags: W
AnchorPoint: "Anchor-5" 0 0 basechar 0
AnchorPoint: "Anchor-4" 0 0 basechar 0
AnchorPoint: "Anchor-3" 289 517 basechar 0
AnchorPoint: "Anchor-2" 0 0 basechar 0
LayerCount: 2
Fore
SplineSet
88 -161.5 m 128,-1,1
 68 -158 68 -158 59 -154.5 c 128,-1,2
 50 -151 50 -151 48 -150 c 2,3,-1
 48 -72 l 1,4,-1
 100 -73 l 2,5,6
 155 -76 155 -76 176 -60 c 128,-1,7
 197 -44 197 -44 207 -20 c 2,8,-1
 220 17 l 1,9,-1
 19 517 l 1,10,-1
 140 517 l 1,11,-1
 277 152 l 1,12,-1
 414 517 l 1,13,-1
 533 517 l 1,14,-1
 320 -19 l 2,15,16
 286 -102 286 -102 242.5 -133.5 c 128,-1,17
 199 -165 199 -165 137 -165 c 0,18,0
 108 -165 108 -165 88 -161.5 c 128,-1,1
EndSplineSet
EndChar

StartChar: z
Encoding: 122 122 93
Width: 501
GlyphClass: 2
Flags: W
AnchorPoint: "Anchor-5" 0 0 basechar 0
AnchorPoint: "Anchor-4" 0 0 basechar 0
AnchorPoint: "Anchor-3" 264 517 basechar 0
AnchorPoint: "Anchor-2" 0 0 basechar 0
LayerCount: 2
Fore
SplineSet
34 67 m 1,0,-1
 315 438 l 1,1,-1
 56 438 l 1,2,-1
 56 517 l 1,3,-1
 465 517 l 1,4,-1
 465 451 l 1,5,-1
 184 80 l 1,6,-1
 469 80 l 1,7,-1
 469 0 l 1,8,-1
 34 0 l 1,9,-1
 34 67 l 1,0,-1
EndSplineSet
EndChar

StartChar: braceleft
Encoding: 123 123 94
Width: 352
GlyphClass: 2
Flags: W
LayerCount: 2
Fore
SplineSet
162.5 693.5 m 128,-1,1
 204 723 204 723 263 723 c 2,2,-1
 325 723 l 1,3,-1
 325 651 l 1,4,-1
 285 651 l 2,5,6
 248 651 248 651 235.5 638 c 128,-1,7
 223 625 223 625 223 599 c 2,8,-1
 223 395 l 2,9,10
 222 345 222 345 192 318.5 c 128,-1,11
 162 292 162 292 121 288 c 0,12,13
 115 287 115 287 114.5 284.5 c 128,-1,14
 114 282 114 282 121 281 c 0,15,16
 163 277 163 277 192.5 251.5 c 128,-1,17
 222 226 222 226 223 171 c 2,18,-1
 223 -36 l 2,19,20
 223 -65 223 -65 236.5 -77 c 128,-1,21
 250 -89 250 -89 286 -89 c 2,22,-1
 325 -89 l 1,23,-1
 325 -161 l 1,24,-1
 265 -161 l 2,25,26
 203 -161 203 -161 162 -131 c 128,-1,27
 121 -101 121 -101 121 -48 c 2,28,-1
 121 161 l 2,29,30
 121 199 121 199 92 225 c 128,-1,31
 63 251 63 251 8 251 c 1,32,-1
 8 317 l 1,33,34
 121 317 121 317 121 412 c 2,35,-1
 121 612 l 2,36,0
 121 664 121 664 162.5 693.5 c 128,-1,1
EndSplineSet
EndChar

StartChar: bar
Encoding: 124 124 95
Width: 261
GlyphClass: 2
Flags: W
LayerCount: 2
Fore
SplineSet
86 -161 m 1,0,-1
 85 826 l 1,1,-1
 176 826 l 1,2,-1
 176 -161 l 1,3,-1
 86 -161 l 1,0,-1
EndSplineSet
EndChar

StartChar: braceright
Encoding: 125 125 96
Width: 359
GlyphClass: 2
Flags: W
LayerCount: 2
Fore
SplineSet
182.5 693.5 m 128,-1,1
 141 723 141 723 82 723 c 2,2,-1
 20 723 l 1,3,-1
 20 651 l 1,4,-1
 60 651 l 2,5,6
 97 651 97 651 109.5 638 c 128,-1,7
 122 625 122 625 122 599 c 2,8,-1
 122 395 l 2,9,10
 123 345 123 345 153 318.5 c 128,-1,11
 183 292 183 292 224 288 c 0,12,13
 230 287 230 287 230.5 284.5 c 128,-1,14
 231 282 231 282 224 281 c 0,15,16
 182 277 182 277 152.5 251.5 c 128,-1,17
 123 226 123 226 122 171 c 2,18,-1
 122 -36 l 2,19,20
 122 -65 122 -65 108.5 -77 c 128,-1,21
 95 -89 95 -89 59 -89 c 2,22,-1
 20 -89 l 1,23,-1
 20 -161 l 1,24,-1
 80 -161 l 2,25,26
 142 -161 142 -161 183 -131 c 128,-1,27
 224 -101 224 -101 224 -48 c 2,28,-1
 224 161 l 2,29,30
 224 199 224 199 253 225 c 128,-1,31
 282 251 282 251 337 251 c 1,32,-1
 337 317 l 1,33,34
 224 317 224 317 224 412 c 2,35,-1
 224 612 l 2,36,0
 224 664 224 664 182.5 693.5 c 128,-1,1
EndSplineSet
EndChar

StartChar: asciitilde
Encoding: 126 126 97
Width: 590
GlyphClass: 2
Flags: W
LayerCount: 2
Fore
SplineSet
470 317 m 128,-1,1
 434 296 434 296 390 296 c 0,2,3
 362 296 362 296 341 303.5 c 128,-1,4
 320 311 320 311 288 327 c 0,5,6
 263 340 263 340 244.5 347 c 128,-1,7
 226 354 226 354 204 354 c 0,8,9
 170 354 170 354 144.5 337 c 128,-1,10
 119 320 119 320 91 289 c 1,11,-1
 56 353 l 1,12,13
 96 393 96 393 128.5 413 c 128,-1,14
 161 433 161 433 204 433 c 0,15,16
 231 433 231 433 253.5 425 c 128,-1,17
 276 417 276 417 305 402 c 0,18,19
 331 389 331 389 349.5 382 c 128,-1,20
 368 375 368 375 389 375 c 0,21,22
 451 375 451 375 492 439 c 1,23,-1
 528 375 l 1,24,0
 506 338 506 338 470 317 c 128,-1,1
EndSplineSet
EndChar

StartChar: exclamdown
Encoding: 161 161 99
Width: 265
GlyphClass: 2
Flags: W
LayerCount: 2
Fore
SplineSet
62 379 m 1,0,-1
 62 517 l 1,1,-1
 199 517 l 1,2,-1
 199 379 l 1,3,-1
 62 379 l 1,0,-1
59 -161 m 1,4,-1
 92 311 l 1,5,-1
 170 311 l 1,6,-1
 203 -161 l 1,7,-1
 59 -161 l 1,4,-1
EndSplineSet
EndChar

StartChar: cent
Encoding: 162 162 100
Width: 549
GlyphClass: 2
Flags: W
AnchorPoint: "Anchor-1" 290 628 basechar 0
AnchorPoint: "Anchor-0" 290 111 basechar 0
LayerCount: 2
Fore
SplineSet
442 160.5 m 128,-1,1
 399 116 399 116 334 105 c 1,2,-1
 334 0 l 1,3,-1
 251 0 l 1,4,-1
 251 104 l 1,5,6
 158 118 158 118 102.5 189 c 128,-1,7
 47 260 47 260 47 367 c 0,8,9
 47 476 47 476 102.5 548.5 c 128,-1,10
 158 621 158 621 251 635 c 1,11,-1
 251 723 l 1,12,-1
 334 723 l 1,13,-1
 334 634 l 1,14,15
 399 623 399 623 440.5 578 c 128,-1,16
 482 533 482 533 498 468 c 1,17,-1
 399 458 l 1,18,19
 373 503 373 503 351.5 523.5 c 128,-1,20
 330 544 330 544 293 544 c 0,21,22
 232 544 232 544 196.5 497 c 128,-1,23
 161 450 161 450 161 369 c 0,24,25
 161 287 161 287 197.5 238.5 c 128,-1,26
 234 190 234 190 295 190 c 0,27,28
 335 190 335 190 359.5 213.5 c 128,-1,29
 384 237 384 237 404 279 c 1,30,-1
 500 269 l 1,31,0
 485 205 485 205 442 160.5 c 128,-1,1
EndSplineSet
EndChar

StartChar: sterling
Encoding: 163 163 101
Width: 629
GlyphClass: 2
Flags: W
LayerCount: 2
Fore
SplineSet
16 102 m 1,0,-1
 51 102 l 2,1,2
 91 102 91 102 115 131.5 c 128,-1,3
 139 161 139 161 139 221 c 0,4,5
 139 264 139 264 128 341 c 1,6,-1
 27 341 l 1,7,-1
 27 412 l 1,8,-1
 114 412 l 1,9,-1
 102 499 l 2,10,11
 99 520 99 520 99 540 c 0,12,13
 99 599 99 599 129 643 c 128,-1,14
 159 687 159 687 209 710 c 128,-1,15
 259 733 259 733 318 733 c 0,16,17
 394 733 394 733 453 697 c 128,-1,18
 512 661 512 661 538 601 c 1,19,-1
 431 566 l 1,20,21
 415 602 415 602 393 618 c 128,-1,22
 371 634 371 634 335 634 c 0,23,24
 292 634 292 634 264.5 608 c 128,-1,25
 237 582 237 582 237 537 c 0,26,27
 237 487 237 487 257 413 c 1,28,-1
 410 413 l 1,29,-1
 410 342 l 1,30,-1
 266 342 l 1,31,32
 271 297 271 297 271 275 c 0,33,34
 271 255 271 255 268 232 c 0,35,36
 264 184 264 184 249 155 c 128,-1,37
 234 126 234 126 210 103 c 1,38,-1
 362 103 l 2,39,40
 412 103 412 103 439 121 c 128,-1,41
 466 139 466 139 482 184 c 1,42,-1
 586 160 l 1,43,44
 538 0 538 0 371 0 c 2,45,-1
 16 0 l 1,46,-1
 16 102 l 1,0,-1
EndSplineSet
EndChar

StartChar: currency
Encoding: 164 164 102
Width: 557
GlyphClass: 2
Flags: W
LayerCount: 2
Fore
SplineSet
168 190 m 0,0,1
 162 192 162 192 161 192 c 0,2,3
 156 192 156 192 153 188 c 2,4,-1
 96 131 l 1,5,-1
 43 187 l 1,6,-1
 106 249 l 1,7,8
 71 302 71 302 71 363 c 128,-1,9
 71 424 71 424 101 470 c 0,10,11
 104 475 104 475 104 477 c 128,-1,12
 104 479 104 479 100 485 c 2,13,-1
 43 542 l 1,14,-1
 97 597 l 1,15,-1
 161 532 l 1,16,17
 213 568 213 568 275 568 c 0,18,19
 335 568 335 568 385 536 c 0,20,21
 392 533 392 533 396 537 c 2,22,-1
 451 593 l 1,23,-1
 505 537 l 1,24,-1
 444 478 l 1,25,26
 480 425 480 425 480 364 c 0,27,28
 480 334 480 334 472 305.5 c 128,-1,29
 464 277 464 277 448 255 c 0,30,31
 444 250 444 250 448 246 c 2,32,-1
 505 191 l 1,33,-1
 452 136 l 1,34,-1
 392 196 l 1,35,36
 337 159 337 159 277 159 c 0,37,38
 218 159 218 159 168 190 c 0,0,1
338.5 259.5 m 128,-1,40
 366 276 366 276 381.5 304 c 128,-1,41
 397 332 397 332 397 364 c 0,42,43
 397 395 397 395 381.5 423 c 128,-1,44
 366 451 366 451 338.5 468 c 128,-1,45
 311 485 311 485 277 485 c 128,-1,46
 243 485 243 485 215.5 468 c 128,-1,47
 188 451 188 451 172 423 c 128,-1,48
 156 395 156 395 156 364 c 0,49,50
 156 332 156 332 172 304 c 128,-1,51
 188 276 188 276 215.5 259.5 c 128,-1,52
 243 243 243 243 277 243 c 128,-1,39
 311 243 311 243 338.5 259.5 c 128,-1,40
EndSplineSet
EndChar

StartChar: yen
Encoding: 165 165 103
Width: 634
GlyphClass: 2
Flags: W
LayerCount: 2
Fore
SplineSet
404 344 m 1,0,-1
 540 344 l 1,1,-1
 540 274 l 1,2,-1
 389 274 l 1,3,-1
 389 191 l 1,4,-1
 540 191 l 1,5,-1
 540 122 l 1,6,-1
 389 122 l 1,7,-1
 389 0 l 1,8,-1
 250 0 l 1,9,-1
 250 122 l 1,10,-1
 100 122 l 1,11,-1
 100 191 l 1,12,-1
 250 191 l 1,13,-1
 250 273 l 1,14,-1
 100 273 l 1,15,-1
 100 343 l 1,16,-1
 225 343 l 1,17,-1
 -3 723 l 1,18,-1
 155 723 l 1,19,-1
 331 415 l 1,20,-1
 507 723 l 1,21,-1
 636 723 l 1,22,-1
 404 344 l 1,0,-1
EndSplineSet
EndChar

StartChar: brokenbar
Encoding: 166 166 104
Width: 261
GlyphClass: 2
Flags: W
LayerCount: 2
Fore
SplineSet
86 421 m 1,0,-1
 85 826 l 1,1,-1
 176 826 l 1,2,-1
 176 421 l 1,3,-1
 86 421 l 1,0,-1
86 -161 m 1,4,-1
 85 244 l 1,5,-1
 176 244 l 1,6,-1
 176 -161 l 1,7,-1
 86 -161 l 1,4,-1
EndSplineSet
EndChar

StartChar: section
Encoding: 167 167 105
Width: 498
GlyphClass: 2
Flags: W
LayerCount: 2
Fore
SplineSet
114.5 -42.5 m 128,-1,1
 54 -10 54 -10 29 41 c 1,2,-1
 106 80 l 1,3,4
 159 3 159 3 251 3 c 0,5,6
 296 3 296 3 323 19 c 128,-1,7
 350 35 350 35 350 65 c 0,8,9
 350 89 350 89 331 107.5 c 128,-1,10
 312 126 312 126 264 145 c 2,11,-1
 183 176 l 2,12,13
 108 205 108 205 74.5 241 c 128,-1,14
 41 277 41 277 41 330 c 0,15,16
 41 374 41 374 65.5 407.5 c 128,-1,17
 90 441 90 441 133 460 c 1,18,19
 84 488 84 488 65 518 c 128,-1,20
 46 548 46 548 46 585 c 0,21,22
 46 627 46 627 70 660.5 c 128,-1,23
 94 694 94 694 138 713.5 c 128,-1,24
 182 733 182 733 241 733 c 0,25,26
 310 733 310 733 364 702.5 c 128,-1,27
 418 672 418 672 444 627 c 1,28,-1
 367 588 l 1,29,30
 341 619 341 619 311.5 637 c 128,-1,31
 282 655 282 655 246 655 c 0,32,33
 204 655 204 655 180 639 c 128,-1,34
 156 623 156 623 156 596 c 0,35,36
 156 558 156 558 222 531 c 2,37,-1
 302 500 l 2,38,39
 384 468 384 468 420 429.5 c 128,-1,40
 456 391 456 391 456 336 c 0,41,42
 456 290 456 290 433.5 259 c 128,-1,43
 411 228 411 228 371 206 c 1,44,45
 417 180 417 180 438.5 150 c 128,-1,46
 460 120 460 120 460 80 c 0,47,48
 460 11 460 11 404.5 -32 c 128,-1,49
 349 -75 349 -75 253 -75 c 0,50,0
 175 -75 175 -75 114.5 -42.5 c 128,-1,1
331 264.5 m 128,-1,52
 353 284 353 284 353 314 c 0,53,54
 353 343 353 343 335.5 363 c 128,-1,55
 318 383 318 383 273 401 c 2,56,-1
 224 420 l 1,57,58
 188 417 188 417 165 395.5 c 128,-1,59
 142 374 142 374 142 346 c 0,60,61
 142 322 142 322 158.5 306 c 128,-1,62
 175 290 175 290 224 270 c 2,63,-1
 278 248 l 1,64,51
 309 245 309 245 331 264.5 c 128,-1,52
EndSplineSet
EndChar

StartChar: dieresis
Encoding: 168 168 106
Width: 318
GlyphClass: 2
Flags: W
LayerCount: 2
Fore
SplineSet
124 605 m 1,0,-1
 14 605 l 1,1,-1
 14 723 l 1,2,-1
 124 723 l 1,3,-1
 124 605 l 1,0,-1
300 605 m 1,4,-1
 189 605 l 1,5,-1
 189 723 l 1,6,-1
 300 723 l 1,7,-1
 300 605 l 1,4,-1
EndSplineSet
EndChar

StartChar: copyright
Encoding: 169 169 107
Width: 822
GlyphClass: 2
Flags: W
LayerCount: 2
Fore
SplineSet
222 40 m 128,-1,1
 137 90 137 90 87 175 c 128,-1,2
 37 260 37 260 37 362 c 0,3,4
 37 462 37 462 87 547.5 c 128,-1,5
 137 633 137 633 222 683 c 128,-1,6
 307 733 307 733 408 733 c 128,-1,7
 509 733 509 733 594.5 683 c 128,-1,8
 680 633 680 633 730 547.5 c 128,-1,9
 780 462 780 462 780 362 c 0,10,11
 780 260 780 260 730 175 c 128,-1,12
 680 90 680 90 594.5 40 c 128,-1,13
 509 -10 509 -10 408 -10 c 128,-1,0
 307 -10 307 -10 222 40 c 128,-1,1
557 100 m 128,-1,15
 624 137 624 137 662.5 205 c 128,-1,16
 701 273 701 273 701 362 c 0,17,18
 701 450 701 450 662.5 518.5 c 128,-1,19
 624 587 624 587 557 624.5 c 128,-1,20
 490 662 490 662 408 662 c 0,21,22
 324 662 324 662 257.5 624.5 c 128,-1,23
 191 587 191 587 153 518.5 c 128,-1,24
 115 450 115 450 115 362 c 0,25,26
 115 273 115 273 153 205 c 128,-1,27
 191 137 191 137 257.5 100 c 128,-1,28
 324 63 324 63 408 63 c 0,29,14
 490 63 490 63 557 100 c 128,-1,15
517.5 537 m 128,-1,31
 561 502 561 502 581 451 c 1,32,-1
 495 437 l 1,33,34
 481 468 481 468 461.5 486 c 128,-1,35
 442 504 442 504 414 504 c 0,36,37
 369 504 369 504 342 467.5 c 128,-1,38
 315 431 315 431 315 365 c 0,39,40
 315 297 315 297 343 260.5 c 128,-1,41
 371 224 371 224 419 224 c 0,42,43
 453 224 453 224 477 243 c 128,-1,44
 501 262 501 262 519 296 c 1,45,-1
 582 278 l 1,46,47
 561 229 561 229 518.5 192.5 c 128,-1,48
 476 156 476 156 411 156 c 0,49,50
 354 156 354 156 309.5 182 c 128,-1,51
 265 208 265 208 240 255 c 128,-1,52
 215 302 215 302 215 363 c 128,-1,53
 215 424 215 424 240 471.5 c 128,-1,54
 265 519 265 519 310 545.5 c 128,-1,55
 355 572 355 572 411 572 c 0,56,30
 474 572 474 572 517.5 537 c 128,-1,31
EndSplineSet
EndChar

StartChar: ordfeminine
Encoding: 170 170 108
Width: 414
GlyphClass: 2
Flags: W
LayerCount: 2
Fore
SplineSet
69.5 421.5 m 128,-1,1
 41 446 41 446 41 488 c 0,2,3
 41 536 41 536 85 565 c 128,-1,4
 129 594 129 594 208 598 c 2,5,-1
 254 601 l 1,6,-1
 254 624 l 2,7,8
 254 652 254 652 237 664.5 c 128,-1,9
 220 677 220 677 193 677 c 0,10,11
 168 677 168 677 150.5 667.5 c 128,-1,12
 133 658 133 658 120 633 c 1,13,-1
 49 650 l 1,14,15
 69 691 69 691 103.5 711.5 c 128,-1,16
 138 732 138 732 196 732 c 0,17,18
 332 731 332 731 332 626 c 2,19,-1
 332 504 l 2,20,21
 332 455 332 455 336 435 c 2,22,-1
 342 403 l 1,23,-1
 261 403 l 1,24,-1
 254 441 l 1,25,26
 226 417 226 417 202.5 407 c 128,-1,27
 179 397 179 397 149 397 c 0,28,0
 98 397 98 397 69.5 421.5 c 128,-1,1
235 470 m 0,29,30
 254 487 254 487 254 504 c 2,31,-1
 254 555 l 1,32,-1
 216 553 l 2,33,34
 170 550 170 550 146 534 c 128,-1,35
 122 518 122 518 122 492 c 0,36,37
 122 473 122 473 137.5 461 c 128,-1,38
 153 449 153 449 179 449 c 0,39,40
 211 449 211 449 235 470 c 0,29,30
EndSplineSet
EndChar

StartChar: guillemotleft
Encoding: 171 171 109
Width: 473
GlyphClass: 2
Flags: W
LayerCount: 2
Fore
SplineSet
233 67 m 1,0,-1
 167 67 l 1,1,-1
 43 251 l 1,2,-1
 167 443 l 1,3,-1
 234 443 l 1,4,-1
 144 251 l 1,5,-1
 233 67 l 1,0,-1
417 67 m 1,6,-1
 351 67 l 1,7,-1
 227 251 l 1,8,-1
 351 443 l 1,9,-1
 418 443 l 1,10,-1
 328 251 l 1,11,-1
 417 67 l 1,6,-1
EndSplineSet
EndChar

StartChar: logicalnot
Encoding: 172 172 110
Width: 570
GlyphClass: 2
Flags: W
LayerCount: 2
Fore
SplineSet
510 409 m 1,0,-1
 510 171 l 1,1,-1
 410 171 l 1,2,-1
 410 318 l 1,3,-1
 56 318 l 1,4,-1
 56 409 l 1,5,-1
 510 409 l 1,0,-1
EndSplineSet
EndChar

StartChar: uni00AD
Encoding: 173 173 111
Width: 379
GlyphClass: 2
Flags: W
LayerCount: 2
Fore
SplineSet
333 212 m 1,0,-1
 68 212 l 1,1,-1
 68 303 l 1,2,-1
 333 303 l 1,3,-1
 333 212 l 1,0,-1
EndSplineSet
EndChar

StartChar: registered
Encoding: 174 174 112
Width: 544
GlyphClass: 2
Flags: W
LayerCount: 2
Fore
SplineSet
152.5 299 m 128,-1,1
 99 330 99 330 68 383 c 128,-1,2
 37 436 37 436 37 500 c 128,-1,3
 37 564 37 564 68 617 c 128,-1,4
 99 670 99 670 152.5 701.5 c 128,-1,5
 206 733 206 733 270 733 c 0,6,7
 333 733 333 733 386.5 701.5 c 128,-1,8
 440 670 440 670 471 616.5 c 128,-1,9
 502 563 502 563 502 500 c 128,-1,10
 502 437 502 437 471 383.5 c 128,-1,11
 440 330 440 330 386.5 299 c 128,-1,12
 333 268 333 268 270 268 c 0,13,0
 206 268 206 268 152.5 299 c 128,-1,1
396.5 370 m 128,-1,15
 445 419 445 419 445 500 c 128,-1,16
 445 581 445 581 396.5 630.5 c 128,-1,17
 348 680 348 680 270 680 c 0,18,19
 190 680 190 680 142 631 c 128,-1,20
 94 582 94 582 94 500 c 128,-1,21
 94 418 94 418 142 369.5 c 128,-1,22
 190 321 190 321 270 321 c 0,23,14
 348 321 348 321 396.5 370 c 128,-1,15
178 614 m 1,24,-1
 284 614 l 2,25,26
 324 614 324 614 346 598.5 c 128,-1,27
 368 583 368 583 368 554 c 0,28,29
 368 530 368 530 355 515 c 128,-1,30
 342 500 342 500 321 492 c 1,31,-1
 366 384 l 1,32,-1
 311 384 l 1,33,-1
 274 487 l 1,34,-1
 229 487 l 1,35,-1
 229 384 l 1,36,-1
 178 384 l 1,37,-1
 178 614 l 1,24,-1
280 524 m 2,38,39
 296 524 296 524 306 530.5 c 128,-1,40
 316 537 316 537 316 550 c 128,-1,41
 316 563 316 563 306.5 570 c 128,-1,42
 297 577 297 577 277 577 c 2,43,-1
 229 577 l 1,44,-1
 229 524 l 1,45,-1
 280 524 l 2,38,39
EndSplineSet
EndChar

StartChar: macron
Encoding: 175 175 113
Width: 360
GlyphClass: 2
Flags: W
LayerCount: 2
Fore
SplineSet
341 634 m 1,0,-1
 14 634 l 1,1,-1
 14 714 l 1,2,-1
 341 714 l 1,3,-1
 341 634 l 1,0,-1
EndSplineSet
EndChar

StartChar: degree
Encoding: 176 176 114
Width: 465
GlyphClass: 2
Flags: W
LayerCount: 2
Fore
SplineSet
371 589 m 128,-1,1
 350 552 350 552 313 531.5 c 128,-1,2
 276 511 276 511 230 511 c 0,3,4
 183 511 183 511 146 531.5 c 128,-1,5
 109 552 109 552 88 589 c 128,-1,6
 67 626 67 626 67 673 c 128,-1,7
 67 720 67 720 88 757 c 128,-1,8
 109 794 109 794 146.5 815 c 128,-1,9
 184 836 184 836 230 836 c 128,-1,10
 276 836 276 836 313 815 c 128,-1,11
 350 794 350 794 371 757 c 128,-1,12
 392 720 392 720 392 673 c 128,-1,0
 392 626 392 626 371 589 c 128,-1,1
291.5 737 m 128,-1,14
 268 762 268 762 228 762 c 0,15,16
 189 762 189 762 165.5 737.5 c 128,-1,17
 142 713 142 713 142 674 c 0,18,19
 142 633 142 633 165 607.5 c 128,-1,20
 188 582 188 582 229 582 c 0,21,22
 268 582 268 582 291.5 607 c 128,-1,23
 315 632 315 632 315 672 c 128,-1,13
 315 712 315 712 291.5 737 c 128,-1,14
EndSplineSet
EndChar

StartChar: plusminus
Encoding: 177 177 115
Width: 570
GlyphClass: 2
Flags: W
LayerCount: 2
Fore
SplineSet
510 490 m 1,0,-1
 510 400 l 1,1,-1
 329 400 l 1,2,-1
 329 218 l 1,3,-1
 239 218 l 1,4,-1
 239 399 l 1,5,-1
 56 399 l 1,6,-1
 56 490 l 1,7,-1
 238 490 l 1,8,-1
 238 672 l 1,9,-1
 329 672 l 1,10,-1
 329 490 l 1,11,-1
 510 490 l 1,0,-1
56 136 m 1,12,-1
 510 137 l 1,13,-1
 510 46 l 1,14,-1
 56 46 l 1,15,-1
 56 136 l 1,12,-1
EndSplineSet
EndChar

StartChar: uni00B2
Encoding: 178 178 116
Width: 382
GlyphClass: 2
Flags: W
LayerCount: 2
Fore
SplineSet
14 444 m 1,0,-1
 158 578 l 2,1,2
 215 630 215 630 234 656 c 128,-1,3
 253 682 253 682 253 711 c 0,4,5
 253 745 253 745 230 762.5 c 128,-1,6
 207 780 207 780 175 780 c 0,7,8
 144 780 144 780 118.5 764.5 c 128,-1,9
 93 749 93 749 80 715 c 1,10,-1
 10 723 l 1,11,12
 22 780 22 780 65 812.5 c 128,-1,13
 108 845 108 845 178 845 c 0,14,15
 249 845 249 845 291.5 809 c 128,-1,16
 334 773 334 773 334 711 c 0,17,18
 333 674 333 674 314 643.5 c 128,-1,19
 295 613 295 613 244 564 c 2,20,-1
 127 449 l 1,21,-1
 338 449 l 1,22,-1
 338 384 l 1,23,-1
 14 384 l 1,24,-1
 14 444 l 1,0,-1
EndSplineSet
EndChar

StartChar: uni00B3
Encoding: 179 179 117
Width: 397
GlyphClass: 2
Flags: W
LayerCount: 2
Fore
SplineSet
88.5 818.5 m 128,-1,1
 137 845 137 845 204 845 c 0,2,3
 275 845 275 845 322 812 c 128,-1,4
 369 779 369 779 369 728 c 0,5,6
 369 656 369 656 284 627 c 1,7,8
 328 615 328 615 355.5 585.5 c 128,-1,9
 383 556 383 556 383 513 c 0,10,11
 383 473 383 473 358 442 c 128,-1,12
 333 411 333 411 291 394.5 c 128,-1,13
 249 378 249 378 200 378 c 0,14,15
 125 378 125 378 80 403 c 128,-1,16
 35 428 35 428 20 490 c 1,17,-1
 91 498 l 1,18,19
 120 441 120 441 197 441 c 0,20,21
 243 441 243 441 270.5 461 c 128,-1,22
 298 481 298 481 298 512 c 0,23,24
 298 546 298 546 270 567 c 128,-1,25
 242 588 242 588 202 588 c 2,26,-1
 140 588 l 1,27,-1
 140 650 l 1,28,-1
 192 652 l 2,29,30
 233 653 233 653 260 673 c 128,-1,31
 287 693 287 693 287 722 c 0,32,33
 287 749 287 749 262 766.5 c 128,-1,34
 237 784 237 784 202 784 c 0,35,36
 164 784 164 784 138 771 c 128,-1,37
 112 758 112 758 100 727 c 1,38,-1
 30 735 l 1,39,0
 40 792 40 792 88.5 818.5 c 128,-1,1
EndSplineSet
EndChar

StartChar: acute
Encoding: 180 180 118
Width: 302
GlyphClass: 2
Flags: W
LayerCount: 2
Fore
SplineSet
288 649 m 1,0,-1
 29 578 l 1,1,-1
 11 633 l 1,2,-1
 260 733 l 1,3,-1
 288 649 l 1,0,-1
EndSplineSet
EndChar

StartChar: paragraph
Encoding: 182 182 119
Width: 590
GlyphClass: 2
Flags: W
LayerCount: 2
Fore
SplineSet
457 652 m 1,0,-1
 457 -83 l 1,1,-1
 380 -83 l 1,2,-1
 380 652 l 1,3,-1
 325 652 l 1,4,-1
 325 -83 l 1,5,-1
 248 -83 l 1,6,-1
 248 298 l 1,7,8
 188 301 188 301 141 328 c 128,-1,9
 94 355 94 355 67.5 401 c 128,-1,10
 41 447 41 447 41 507 c 0,11,12
 41 566 41 566 67.5 615 c 128,-1,13
 94 664 94 664 146.5 693.5 c 128,-1,14
 199 723 199 723 272 723 c 2,15,-1
 518 723 l 1,16,-1
 518 652 l 1,17,-1
 457 652 l 1,0,-1
EndSplineSet
EndChar

StartChar: periodcentered
Encoding: 183 183 120
Width: 239
GlyphClass: 2
Flags: W
LayerCount: 2
Fore
SplineSet
182 300 m 1,0,-1
 49 300 l 1,1,-1
 49 429 l 1,2,-1
 182 429 l 1,3,-1
 182 300 l 1,0,-1
EndSplineSet
EndChar

StartChar: cedilla
Encoding: 184 184 121
Width: 251
GlyphClass: 2
Flags: W
LayerCount: 2
Fore
SplineSet
199 -188.5 m 128,-1,1
 166 -210 166 -210 117 -210 c 0,2,3
 53 -210 53 -210 12 -183 c 1,4,-1
 30 -139 l 1,5,6
 65 -163 65 -163 103 -163 c 0,7,8
 128 -163 128 -163 141 -154.5 c 128,-1,9
 154 -146 154 -146 154 -130 c 0,10,11
 154 -109 154 -109 135 -98.5 c 128,-1,12
 116 -88 116 -88 72 -87 c 0,13,14
 66 -87 66 -87 64.5 -85.5 c 128,-1,15
 63 -84 63 -84 65 -79 c 2,16,-1
 101 5 l 1,17,-1
 159 5 l 1,18,-1
 136 -54 l 1,19,20
 186 -56 186 -56 209 -78.5 c 128,-1,21
 232 -101 232 -101 232 -130 c 0,22,0
 232 -167 232 -167 199 -188.5 c 128,-1,1
EndSplineSet
EndChar

StartChar: uni00B9
Encoding: 185 185 122
Width: 299
GlyphClass: 2
Flags: W
LayerCount: 2
Fore
SplineSet
80 748 m 1,0,-1
 -4 722 l 1,1,-1
 -4 776 l 1,2,-1
 113 835 l 1,3,-1
 158 835 l 1,4,-1
 158 380 l 1,5,-1
 80 380 l 1,6,-1
 80 748 l 1,0,-1
EndSplineSet
EndChar

StartChar: ordmasculine
Encoding: 186 186 123
Width: 403
GlyphClass: 2
Flags: W
LayerCount: 2
Fore
SplineSet
318 686 m 128,-1,1
 362 639 362 639 362 564 c 0,2,3
 362 490 362 490 318 444 c 128,-1,4
 274 398 274 398 201 398 c 128,-1,5
 128 398 128 398 84.5 444 c 128,-1,6
 41 490 41 490 41 564 c 0,7,8
 41 639 41 639 85.5 686 c 128,-1,9
 130 733 130 733 201 733 c 0,10,0
 274 733 274 733 318 686 c 128,-1,1
144 648 m 128,-1,12
 125 620 125 620 125 566 c 0,13,14
 125 511 125 511 144 482.5 c 128,-1,15
 163 454 163 454 201 454 c 128,-1,16
 239 454 239 454 258.5 483 c 128,-1,17
 278 512 278 512 278 566 c 128,-1,18
 278 620 278 620 258.5 648 c 128,-1,19
 239 676 239 676 201 676 c 128,-1,11
 163 676 163 676 144 648 c 128,-1,12
EndSplineSet
EndChar

StartChar: guillemotright
Encoding: 187 187 124
Width: 473
GlyphClass: 2
Flags: W
LayerCount: 2
Fore
SplineSet
50 443 m 1,0,-1
 117 443 l 1,1,-1
 241 251 l 1,2,-1
 117 67 l 1,3,-1
 51 67 l 1,4,-1
 141 251 l 1,5,-1
 50 443 l 1,0,-1
234 443 m 1,6,-1
 301 443 l 1,7,-1
 425 251 l 1,8,-1
 301 67 l 1,9,-1
 235 67 l 1,10,-1
 325 251 l 1,11,-1
 234 443 l 1,6,-1
EndSplineSet
EndChar

StartChar: onequarter
Encoding: 188 188 125
Width: 963
GlyphClass: 2
Flags: W
LayerCount: 2
Fore
SplineSet
80 644 m 1,0,-1
 -4 618 l 1,1,-1
 -4 672 l 1,2,-1
 113 731 l 1,3,-1
 158 731 l 1,4,-1
 158 276 l 1,5,-1
 80 276 l 1,6,-1
 80 644 l 1,0,-1
214 -4 m 1,7,-1
 139 -3 l 1,8,-1
 627 731 l 1,9,-1
 700 731 l 1,10,-1
 214 -4 l 1,7,-1
849 455 m 1,11,-1
 849 175 l 1,12,-1
 918 175 l 1,13,-1
 918 108 l 1,14,-1
 849 108 l 1,15,-1
 849 0 l 1,16,-1
 773 0 l 1,17,-1
 773 108 l 1,18,-1
 564 108 l 1,19,-1
 564 175 l 1,20,-1
 772 455 l 1,21,-1
 849 455 l 1,11,-1
772 175 m 1,22,-1
 772 347 l 1,23,-1
 644 175 l 1,24,-1
 772 175 l 1,22,-1
EndSplineSet
EndChar

StartChar: onehalf
Encoding: 189 189 126
Width: 932
GlyphClass: 2
Flags: W
LayerCount: 2
Fore
SplineSet
80 644 m 1,0,-1
 -4 618 l 1,1,-1
 -4 672 l 1,2,-1
 113 731 l 1,3,-1
 158 731 l 1,4,-1
 158 276 l 1,5,-1
 80 276 l 1,6,-1
 80 644 l 1,0,-1
214 -4 m 1,7,-1
 139 -3 l 1,8,-1
 627 731 l 1,9,-1
 700 731 l 1,10,-1
 214 -4 l 1,7,-1
564 60 m 1,11,-1
 708 194 l 2,12,13
 747 230 747 230 766.5 251 c 128,-1,14
 786 272 786 272 794.5 289.5 c 128,-1,15
 803 307 803 307 803 327 c 0,16,17
 803 361 803 361 780 378.5 c 128,-1,18
 757 396 757 396 725 396 c 0,19,20
 694 396 694 396 668.5 380.5 c 128,-1,21
 643 365 643 365 630 331 c 1,22,-1
 560 339 l 1,23,24
 572 396 572 396 615 428.5 c 128,-1,25
 658 461 658 461 728 461 c 256,26,27
 798 461 798 461 841 425 c 128,-1,28
 884 389 884 389 884 327 c 0,29,30
 883 291 883 291 864 260.5 c 128,-1,31
 845 230 845 230 794 180 c 2,32,-1
 677 65 l 1,33,-1
 888 65 l 1,34,-1
 888 0 l 1,35,-1
 564 0 l 1,36,-1
 564 60 l 1,11,-1
EndSplineSet
EndChar

StartChar: threequarters
Encoding: 190 190 127
Width: 1061
GlyphClass: 2
Flags: W
LayerCount: 2
Fore
SplineSet
88.5 713.5 m 128,-1,1
 137 740 137 740 204 740 c 0,2,3
 275 740 275 740 322 707 c 128,-1,4
 369 674 369 674 369 623 c 0,5,6
 369 551 369 551 284 522 c 1,7,8
 328 510 328 510 355.5 480.5 c 128,-1,9
 383 451 383 451 383 408 c 0,10,11
 383 368 383 368 358 337 c 128,-1,12
 333 306 333 306 291 289.5 c 128,-1,13
 249 273 249 273 200 273 c 0,14,15
 125 273 125 273 80 298 c 128,-1,16
 35 323 35 323 20 385 c 1,17,-1
 91 393 l 1,18,19
 120 336 120 336 197 336 c 0,20,21
 243 336 243 336 270.5 356 c 128,-1,22
 298 376 298 376 298 407 c 0,23,24
 298 441 298 441 270 462 c 128,-1,25
 242 483 242 483 202 483 c 2,26,-1
 140 483 l 1,27,-1
 140 545 l 1,28,-1
 192 547 l 2,29,30
 233 548 233 548 260 568 c 128,-1,31
 287 588 287 588 287 617 c 0,32,33
 287 644 287 644 262 661.5 c 128,-1,34
 237 679 237 679 202 679 c 0,35,36
 164 679 164 679 138 666 c 128,-1,37
 112 653 112 653 100 622 c 1,38,-1
 30 630 l 1,39,0
 40 687 40 687 88.5 713.5 c 128,-1,1
312 -4 m 1,40,-1
 237 -3 l 1,41,-1
 725 731 l 1,42,-1
 798 731 l 1,43,-1
 312 -4 l 1,40,-1
947 455 m 1,44,-1
 947 175 l 1,45,-1
 1016 175 l 1,46,-1
 1016 108 l 1,47,-1
 947 108 l 1,48,-1
 947 0 l 1,49,-1
 871 0 l 1,50,-1
 871 108 l 1,51,-1
 662 108 l 1,52,-1
 662 175 l 1,53,-1
 870 455 l 1,54,-1
 947 455 l 1,44,-1
870 175 m 1,55,-1
 870 347 l 1,56,-1
 742 175 l 1,57,-1
 870 175 l 1,55,-1
EndSplineSet
EndChar

StartChar: questiondown
Encoding: 191 191 128
Width: 529
GlyphClass: 2
Flags: W
LayerCount: 2
Fore
SplineSet
207 517 m 1,0,-1
 345 517 l 1,1,-1
 345 379 l 1,2,-1
 207 379 l 1,3,-1
 207 517 l 1,0,-1
411.5 -130 m 128,-1,5
 347 -171 347 -171 261 -171 c 0,6,7
 188 -171 188 -171 136 -148.5 c 128,-1,8
 84 -126 84 -126 57 -87 c 128,-1,9
 30 -48 30 -48 30 2 c 0,10,11
 30 41 30 41 44 70 c 128,-1,12
 58 99 58 99 78 119 c 128,-1,13
 98 139 98 139 131 166 c 0,14,15
 162 191 162 191 180.5 209.5 c 128,-1,16
 199 228 199 228 212 254 c 128,-1,17
 225 280 225 280 225 314 c 1,18,-1
 326 314 l 1,19,20
 326 268 326 268 311.5 234 c 128,-1,21
 297 200 297 200 276.5 176.5 c 128,-1,22
 256 153 256 153 224 124 c 0,23,24
 187 90 187 90 169.5 65.5 c 128,-1,25
 152 41 152 41 152 8 c 0,26,27
 152 -32 152 -32 183 -57 c 128,-1,28
 214 -82 214 -82 262 -82 c 0,29,30
 306 -82 306 -82 346 -55 c 128,-1,31
 386 -28 386 -28 402 12 c 1,32,-1
 508 -15 l 1,33,4
 476 -89 476 -89 411.5 -130 c 128,-1,5
EndSplineSet
EndChar

StartChar: Agrave
Encoding: 192 192 129
Width: 705
GlyphClass: 2
Flags: W
AnchorPoint: "Anchor-5" 0 0 basechar 0
AnchorPoint: "Anchor-4" 0 0 basechar 0
AnchorPoint: "Anchor-3" 361 723 basechar 0
AnchorPoint: "Anchor-2" 675 10 basechar 0
LayerCount: 2
Fore
SplineSet
287 723 m 1,0,-1
 419 723 l 1,1,-1
 679 0 l 1,2,-1
 556 0 l 1,3,-1
 492 181 l 1,4,-1
 216 181 l 1,5,-1
 150 0 l 1,6,-1
 27 0 l 1,7,-1
 287 723 l 1,0,-1
462 290 m 1,8,-1
 354 605 l 1,9,-1
 244 290 l 1,10,-1
 462 290 l 1,8,-1
491 839 m 1,11,-1
 472 784 l 1,12,-1
 213 855 l 1,13,-1
 242 939 l 1,14,-1
 491 839 l 1,11,-1
EndSplineSet
EndChar

StartChar: Aacute
Encoding: 193 193 130
Width: 705
GlyphClass: 2
Flags: W
AnchorPoint: "Anchor-5" 0 0 basechar 0
AnchorPoint: "Anchor-4" 0 0 basechar 0
AnchorPoint: "Anchor-3" 361 723 basechar 0
AnchorPoint: "Anchor-2" 675 10 basechar 0
LayerCount: 2
Fore
SplineSet
287 723 m 1,0,-1
 419 723 l 1,1,-1
 679 0 l 1,2,-1
 556 0 l 1,3,-1
 492 181 l 1,4,-1
 216 181 l 1,5,-1
 150 0 l 1,6,-1
 27 0 l 1,7,-1
 287 723 l 1,0,-1
462 290 m 1,8,-1
 354 605 l 1,9,-1
 244 290 l 1,10,-1
 462 290 l 1,8,-1
500 855 m 1,11,-1
 241 784 l 1,12,-1
 223 839 l 1,13,-1
 472 939 l 1,14,-1
 500 855 l 1,11,-1
EndSplineSet
EndChar

StartChar: Acircumflex
Encoding: 194 194 131
Width: 705
GlyphClass: 2
Flags: W
AnchorPoint: "Anchor-5" 0 0 basechar 0
AnchorPoint: "Anchor-4" 0 0 basechar 0
AnchorPoint: "Anchor-3" 361 723 basechar 0
AnchorPoint: "Anchor-2" 675 10 basechar 0
LayerCount: 2
Fore
SplineSet
287 723 m 1,0,-1
 419 723 l 1,1,-1
 679 0 l 1,2,-1
 556 0 l 1,3,-1
 492 181 l 1,4,-1
 216 181 l 1,5,-1
 150 0 l 1,6,-1
 27 0 l 1,7,-1
 287 723 l 1,0,-1
462 290 m 1,8,-1
 354 605 l 1,9,-1
 244 290 l 1,10,-1
 462 290 l 1,8,-1
361 880 m 1,11,-1
 287 809 l 1,12,-1
 190 809 l 1,13,-1
 319 934 l 1,14,-1
 404 934 l 1,15,-1
 530 809 l 1,16,-1
 428 809 l 1,17,-1
 361 880 l 1,11,-1
EndSplineSet
EndChar

StartChar: Atilde
Encoding: 195 195 132
Width: 705
GlyphClass: 2
Flags: W
AnchorPoint: "Anchor-5" 0 0 basechar 0
AnchorPoint: "Anchor-4" 0 0 basechar 0
AnchorPoint: "Anchor-3" 361 723 basechar 0
AnchorPoint: "Anchor-2" 675 10 basechar 0
LayerCount: 2
Fore
SplineSet
287 723 m 1,0,-1
 419 723 l 1,1,-1
 679 0 l 1,2,-1
 556 0 l 1,3,-1
 492 181 l 1,4,-1
 216 181 l 1,5,-1
 150 0 l 1,6,-1
 27 0 l 1,7,-1
 287 723 l 1,0,-1
462 290 m 1,8,-1
 354 605 l 1,9,-1
 244 290 l 1,10,-1
 462 290 l 1,8,-1
432 829 m 0,11,12
 403 829 403 829 359 843 c 0,13,14
 322 856 322 856 296 856 c 0,15,16
 277 856 277 856 264 851 c 128,-1,17
 251 846 251 846 233 834 c 0,18,19
 227 830 227 830 224 830 c 0,20,21
 219 830 219 830 216 840 c 2,22,-1
 205 875 l 1,23,-1
 203 883 l 2,24,25
 203 888 203 888 210 895 c 0,26,27
 229 911 229 911 247 919.5 c 128,-1,28
 265 928 265 928 291 928 c 0,29,30
 309 928 309 928 329 923.5 c 128,-1,31
 349 919 349 919 367 913 c 0,32,33
 383 908 383 908 400 903.5 c 128,-1,34
 417 899 417 899 432 899 c 0,35,36
 449 899 449 899 463.5 905 c 128,-1,37
 478 911 478 911 494 921 c 0,38,39
 499 924 499 924 503 924 c 0,40,41
 510 924 510 924 513 915 c 2,42,-1
 523 873 l 2,43,44
 524 871 524 871 524 867 c 0,45,46
 524 860 524 860 514 853 c 0,47,48
 477 829 477 829 432 829 c 0,11,12
EndSplineSet
EndChar

StartChar: Adieresis
Encoding: 196 196 133
Width: 705
GlyphClass: 2
Flags: W
AnchorPoint: "Anchor-5" 0 0 basechar 0
AnchorPoint: "Anchor-4" 0 0 basechar 0
AnchorPoint: "Anchor-3" 361 723 basechar 0
AnchorPoint: "Anchor-2" 675 10 basechar 0
LayerCount: 2
Fore
SplineSet
287 723 m 1,0,-1
 419 723 l 1,1,-1
 679 0 l 1,2,-1
 556 0 l 1,3,-1
 492 181 l 1,4,-1
 216 181 l 1,5,-1
 150 0 l 1,6,-1
 27 0 l 1,7,-1
 287 723 l 1,0,-1
462 290 m 1,8,-1
 354 605 l 1,9,-1
 244 290 l 1,10,-1
 462 290 l 1,8,-1
328 811 m 1,11,-1
 218 811 l 1,12,-1
 218 929 l 1,13,-1
 328 929 l 1,14,-1
 328 811 l 1,11,-1
504 811 m 1,15,-1
 393 811 l 1,16,-1
 393 929 l 1,17,-1
 504 929 l 1,18,-1
 504 811 l 1,15,-1
EndSplineSet
EndChar

StartChar: Aring
Encoding: 197 197 134
Width: 705
GlyphClass: 2
Flags: W
AnchorPoint: "Anchor-5" 0 0 basechar 0
AnchorPoint: "Anchor-4" 0 0 basechar 0
AnchorPoint: "Anchor-3" 361 723 basechar 0
AnchorPoint: "Anchor-2" 675 10 basechar 0
LayerCount: 2
Fore
SplineSet
287 723 m 1,0,-1
 419 723 l 1,1,-1
 679 0 l 1,2,-1
 556 0 l 1,3,-1
 492 181 l 1,4,-1
 216 181 l 1,5,-1
 150 0 l 1,6,-1
 27 0 l 1,7,-1
 287 723 l 1,0,-1
462 290 m 1,8,-1
 354 605 l 1,9,-1
 244 290 l 1,10,-1
 462 290 l 1,8,-1
436 808.5 m 128,-1,12
 405 778 405 778 361 778 c 0,13,14
 316 778 316 778 285.5 809 c 128,-1,15
 255 840 255 840 255 886 c 0,16,17
 255 929 255 929 286 958.5 c 128,-1,18
 317 988 317 988 361 988 c 128,-1,19
 405 988 405 988 436 957.5 c 128,-1,20
 467 927 467 927 467 884 c 0,21,11
 467 839 467 839 436 808.5 c 128,-1,12
396.5 919.5 m 128,-1,23
 382 934 382 934 360 934 c 0,24,25
 339 934 339 934 323.5 919.5 c 128,-1,26
 308 905 308 905 308 883 c 0,27,28
 308 863 308 863 323.5 847 c 128,-1,29
 339 831 339 831 360 831 c 128,-1,30
 381 831 381 831 396 846.5 c 128,-1,31
 411 862 411 862 411 883 c 0,32,22
 411 905 411 905 396.5 919.5 c 128,-1,23
EndSplineSet
EndChar

StartChar: AE
Encoding: 198 198 135
Width: 1042
GlyphClass: 2
Flags: W
AnchorPoint: "Anchor-5" 0 0 basechar 0
AnchorPoint: "Anchor-4" 0 0 basechar 0
AnchorPoint: "Anchor-3" 683 723 basechar 0
AnchorPoint: "Anchor-2" 0 0 basechar 0
LayerCount: 2
Fore
SplineSet
982 0 m 1,0,-1
 488 0 l 1,1,-1
 488 183 l 1,2,-1
 249 183 l 1,3,-1
 150 0 l 1,4,-1
 27 0 l 1,5,-1
 420 723 l 1,6,-1
 971 723 l 1,7,-1
 970 620 l 1,8,-1
 627 620 l 1,9,-1
 627 415 l 1,10,-1
 870 415 l 1,11,-1
 870 314 l 1,12,-1
 627 314 l 1,13,-1
 627 103 l 1,14,-1
 982 103 l 1,15,-1
 982 0 l 1,0,-1
488 640 m 1,16,-1
 296 290 l 1,17,-1
 488 290 l 1,18,-1
 488 640 l 1,16,-1
EndSplineSet
EndChar

StartChar: Ccedilla
Encoding: 199 199 136
Width: 698
GlyphClass: 2
Flags: W
AnchorPoint: "Anchor-5" 0 0 basechar 0
AnchorPoint: "Anchor-4" 367 0 basechar 0
AnchorPoint: "Anchor-3" 367 723 basechar 0
AnchorPoint: "Anchor-2" 0 0 basechar 0
LayerCount: 2
Fore
SplineSet
504.5 702.5 m 128,-1,1
 567 672 567 672 605 619 c 128,-1,2
 643 566 643 566 651 500 c 1,3,-1
 523 497 l 1,4,5
 511 559 511 559 469.5 595 c 128,-1,6
 428 631 428 631 360 631 c 0,7,8
 181 631 181 631 181 364 c 0,9,10
 181 228 181 228 227.5 160 c 128,-1,11
 274 92 274 92 364 92 c 0,12,13
 424 92 424 92 466.5 130 c 128,-1,14
 509 168 509 168 521 230 c 1,15,-1
 649 225 l 1,16,17
 636 121 636 121 565 55.5 c 128,-1,18
 494 -10 494 -10 367 -10 c 0,19,20
 269 -10 269 -10 196.5 36 c 128,-1,21
 124 82 124 82 85.5 167 c 128,-1,22
 47 252 47 252 47 365 c 128,-1,23
 47 478 47 478 85 561 c 128,-1,24
 123 644 123 644 194 688.5 c 128,-1,25
 265 733 265 733 363 733 c 0,26,0
 442 733 442 733 504.5 702.5 c 128,-1,1
439 -188.5 m 128,-1,28
 406 -210 406 -210 357 -210 c 0,29,30
 293 -210 293 -210 252 -183 c 1,31,-1
 270 -139 l 1,32,33
 305 -163 305 -163 343 -163 c 0,34,35
 368 -163 368 -163 381 -154.5 c 128,-1,36
 394 -146 394 -146 394 -130 c 0,37,38
 394 -109 394 -109 375 -98.5 c 128,-1,39
 356 -88 356 -88 312 -87 c 0,40,41
 306 -87 306 -87 304.5 -85.5 c 128,-1,42
 303 -84 303 -84 305 -79 c 2,43,-1
 341 5 l 1,44,-1
 399 5 l 1,45,-1
 376 -54 l 1,46,47
 426 -56 426 -56 449 -78.5 c 128,-1,48
 472 -101 472 -101 472 -130 c 0,49,27
 472 -167 472 -167 439 -188.5 c 128,-1,28
EndSplineSet
EndChar

StartChar: Egrave
Encoding: 200 200 137
Width: 630
GlyphClass: 2
Flags: W
AnchorPoint: "Anchor-5" 0 0 basechar 0
AnchorPoint: "Anchor-4" 340 0 basechar 0
AnchorPoint: "Anchor-3" 331 723 basechar 0
AnchorPoint: "Anchor-2" 566 10 basechar 0
LayerCount: 2
Fore
SplineSet
85 723 m 1,0,-1
 563 723 l 1,1,-1
 563 619 l 1,2,-1
 208 619 l 1,3,-1
 208 416 l 1,4,-1
 521 416 l 1,5,-1
 521 313 l 1,6,-1
 207 313 l 1,7,-1
 207 106 l 1,8,-1
 570 105 l 1,9,-1
 570 0 l 1,10,-1
 85 0 l 1,11,-1
 85 723 l 1,0,-1
461 839 m 1,12,-1
 442 784 l 1,13,-1
 183 855 l 1,14,-1
 212 939 l 1,15,-1
 461 839 l 1,12,-1
EndSplineSet
EndChar

StartChar: Eacute
Encoding: 201 201 138
Width: 630
GlyphClass: 2
Flags: W
AnchorPoint: "Anchor-5" 0 0 basechar 0
AnchorPoint: "Anchor-4" 340 0 basechar 0
AnchorPoint: "Anchor-3" 331 723 basechar 0
AnchorPoint: "Anchor-2" 566 10 basechar 0
LayerCount: 2
Fore
SplineSet
85 723 m 1,0,-1
 563 723 l 1,1,-1
 563 619 l 1,2,-1
 208 619 l 1,3,-1
 208 416 l 1,4,-1
 521 416 l 1,5,-1
 521 313 l 1,6,-1
 207 313 l 1,7,-1
 207 106 l 1,8,-1
 570 105 l 1,9,-1
 570 0 l 1,10,-1
 85 0 l 1,11,-1
 85 723 l 1,0,-1
470 855 m 1,12,-1
 211 784 l 1,13,-1
 193 839 l 1,14,-1
 442 939 l 1,15,-1
 470 855 l 1,12,-1
EndSplineSet
EndChar

StartChar: Ecircumflex
Encoding: 202 202 139
Width: 630
GlyphClass: 2
Flags: W
AnchorPoint: "Anchor-5" 0 0 basechar 0
AnchorPoint: "Anchor-4" 340 0 basechar 0
AnchorPoint: "Anchor-3" 331 723 basechar 0
AnchorPoint: "Anchor-2" 566 10 basechar 0
LayerCount: 2
Fore
SplineSet
85 723 m 1,0,-1
 563 723 l 1,1,-1
 563 619 l 1,2,-1
 208 619 l 1,3,-1
 208 416 l 1,4,-1
 521 416 l 1,5,-1
 521 313 l 1,6,-1
 207 313 l 1,7,-1
 207 106 l 1,8,-1
 570 105 l 1,9,-1
 570 0 l 1,10,-1
 85 0 l 1,11,-1
 85 723 l 1,0,-1
331 880 m 1,12,-1
 257 809 l 1,13,-1
 160 809 l 1,14,-1
 289 934 l 1,15,-1
 374 934 l 1,16,-1
 500 809 l 1,17,-1
 398 809 l 1,18,-1
 331 880 l 1,12,-1
EndSplineSet
EndChar

StartChar: Edieresis
Encoding: 203 203 140
Width: 630
GlyphClass: 2
Flags: W
AnchorPoint: "Anchor-5" 0 0 basechar 0
AnchorPoint: "Anchor-4" 340 0 basechar 0
AnchorPoint: "Anchor-3" 331 723 basechar 0
AnchorPoint: "Anchor-2" 566 10 basechar 0
LayerCount: 2
Fore
SplineSet
85 723 m 1,0,-1
 563 723 l 1,1,-1
 563 619 l 1,2,-1
 208 619 l 1,3,-1
 208 416 l 1,4,-1
 521 416 l 1,5,-1
 521 313 l 1,6,-1
 207 313 l 1,7,-1
 207 106 l 1,8,-1
 570 105 l 1,9,-1
 570 0 l 1,10,-1
 85 0 l 1,11,-1
 85 723 l 1,0,-1
298 811 m 1,12,-1
 188 811 l 1,13,-1
 188 929 l 1,14,-1
 298 929 l 1,15,-1
 298 811 l 1,12,-1
474 811 m 1,16,-1
 363 811 l 1,17,-1
 363 929 l 1,18,-1
 474 929 l 1,19,-1
 474 811 l 1,16,-1
EndSplineSet
EndChar

StartChar: Igrave
Encoding: 204 204 141
Width: 292
GlyphClass: 2
Flags: W
AnchorPoint: "Anchor-5" 0 0 basechar 0
AnchorPoint: "Anchor-4" 152 0 basechar 0
AnchorPoint: "Anchor-3" 148 723 basechar 0
AnchorPoint: "Anchor-2" 191 6 basechar 0
LayerCount: 2
Fore
SplineSet
207 723 m 1,0,-1
 207 0 l 1,1,-1
 85 0 l 1,2,-1
 85 723 l 1,3,-1
 207 723 l 1,0,-1
278 839 m 1,4,-1
 259 784 l 1,5,-1
 0 855 l 1,6,-1
 29 939 l 1,7,-1
 278 839 l 1,4,-1
EndSplineSet
EndChar

StartChar: Iacute
Encoding: 205 205 142
Width: 292
GlyphClass: 2
Flags: W
AnchorPoint: "Anchor-5" 0 0 basechar 0
AnchorPoint: "Anchor-4" 152 0 basechar 0
AnchorPoint: "Anchor-3" 148 723 basechar 0
AnchorPoint: "Anchor-2" 191 6 basechar 0
LayerCount: 2
Fore
SplineSet
207 723 m 1,0,-1
 207 0 l 1,1,-1
 85 0 l 1,2,-1
 85 723 l 1,3,-1
 207 723 l 1,0,-1
287 855 m 1,4,-1
 28 784 l 1,5,-1
 10 839 l 1,6,-1
 259 939 l 1,7,-1
 287 855 l 1,4,-1
EndSplineSet
EndChar

StartChar: Icircumflex
Encoding: 206 206 143
Width: 292
GlyphClass: 2
Flags: W
AnchorPoint: "Anchor-5" 0 0 basechar 0
AnchorPoint: "Anchor-4" 152 0 basechar 0
AnchorPoint: "Anchor-3" 148 723 basechar 0
AnchorPoint: "Anchor-2" 191 6 basechar 0
LayerCount: 2
Fore
SplineSet
207 723 m 1,0,-1
 207 0 l 1,1,-1
 85 0 l 1,2,-1
 85 723 l 1,3,-1
 207 723 l 1,0,-1
148 880 m 1,4,-1
 74 809 l 1,5,-1
 -23 809 l 1,6,-1
 106 934 l 1,7,-1
 191 934 l 1,8,-1
 317 809 l 1,9,-1
 215 809 l 1,10,-1
 148 880 l 1,4,-1
EndSplineSet
EndChar

StartChar: Idieresis
Encoding: 207 207 144
Width: 292
GlyphClass: 2
Flags: W
AnchorPoint: "Anchor-5" 0 0 basechar 0
AnchorPoint: "Anchor-4" 152 0 basechar 0
AnchorPoint: "Anchor-3" 148 723 basechar 0
AnchorPoint: "Anchor-2" 191 6 basechar 0
LayerCount: 2
Fore
SplineSet
207 723 m 1,0,-1
 207 0 l 1,1,-1
 85 0 l 1,2,-1
 85 723 l 1,3,-1
 207 723 l 1,0,-1
115 811 m 1,4,-1
 5 811 l 1,5,-1
 5 929 l 1,6,-1
 115 929 l 1,7,-1
 115 811 l 1,4,-1
291 811 m 1,8,-1
 180 811 l 1,9,-1
 180 929 l 1,10,-1
 291 929 l 1,11,-1
 291 811 l 1,8,-1
EndSplineSet
EndChar

StartChar: Eth
Encoding: 208 208 145
Width: 719
GlyphClass: 2
Flags: W
AnchorPoint: "Anchor-5" 0 0 basechar 0
AnchorPoint: "Anchor-4" 0 0 basechar 0
AnchorPoint: "Anchor-3" 364 723 basechar 0
AnchorPoint: "Anchor-2" 0 0 basechar 0
LayerCount: 2
Fore
SplineSet
581 627 m 128,-1,1
 672 536 672 536 672 365 c 0,2,3
 672 188 672 188 576.5 94 c 128,-1,4
 481 0 481 0 289 0 c 2,5,-1
 102 0 l 1,6,-1
 102 313 l 1,7,-1
 50 313 l 2,8,9
 40 313 40 313 36 317 c 128,-1,10
 32 321 32 321 32 331 c 2,11,-1
 32 389 l 2,12,13
 32 405 32 405 45 405 c 2,14,-1
 102 405 l 1,15,-1
 102 723 l 1,16,17
 235 723 235 723 297 722 c 0,18,0
 490 718 490 718 581 627 c 128,-1,1
477 163.5 m 128,-1,20
 544 226 544 226 544 365 c 0,21,22
 544 501 544 501 480 562 c 128,-1,23
 416 623 416 623 294 623 c 2,24,-1
 226 623 l 1,25,-1
 226 405 l 1,26,-1
 371 405 l 2,27,28
 383 405 383 405 383 391 c 2,29,-1
 383 333 l 2,30,31
 383 322 383 322 378 317.5 c 128,-1,32
 373 313 373 313 361 313 c 2,33,-1
 226 313 l 1,34,-1
 226 101 l 1,35,-1
 291 101 l 2,36,19
 410 101 410 101 477 163.5 c 128,-1,20
EndSplineSet
EndChar

StartChar: Ntilde
Encoding: 209 209 146
Width: 765
GlyphClass: 2
Flags: W
AnchorPoint: "Anchor-5" 0 0 basechar 0
AnchorPoint: "Anchor-4" 371 0 basechar 0
AnchorPoint: "Anchor-3" 389 723 basechar 0
AnchorPoint: "Anchor-2" 0 0 basechar 0
LayerCount: 2
Fore
SplineSet
680 723 m 1,0,-1
 680 0 l 1,1,-1
 570 0 l 1,2,-1
 207 530 l 1,3,-1
 207 0 l 1,4,-1
 85 0 l 1,5,-1
 85 723 l 1,6,-1
 204 723 l 1,7,-1
 558 207 l 1,8,-1
 558 723 l 1,9,-1
 680 723 l 1,0,-1
460 829 m 0,10,11
 431 829 431 829 387 843 c 0,12,13
 350 856 350 856 324 856 c 0,14,15
 305 856 305 856 292 851 c 128,-1,16
 279 846 279 846 261 834 c 0,17,18
 255 830 255 830 252 830 c 0,19,20
 247 830 247 830 244 840 c 2,21,-1
 233 875 l 1,22,-1
 231 883 l 2,23,24
 231 888 231 888 238 895 c 0,25,26
 257 911 257 911 275 919.5 c 128,-1,27
 293 928 293 928 319 928 c 0,28,29
 337 928 337 928 357 923.5 c 128,-1,30
 377 919 377 919 395 913 c 0,31,32
 411 908 411 908 428 903.5 c 128,-1,33
 445 899 445 899 460 899 c 0,34,35
 477 899 477 899 491.5 905 c 128,-1,36
 506 911 506 911 522 921 c 0,37,38
 527 924 527 924 531 924 c 0,39,40
 538 924 538 924 541 915 c 2,41,-1
 551 873 l 2,42,43
 552 871 552 871 552 867 c 0,44,45
 552 860 552 860 542 853 c 0,46,47
 505 829 505 829 460 829 c 0,10,11
EndSplineSet
EndChar

StartChar: Ograve
Encoding: 210 210 147
Width: 742
GlyphClass: 2
Flags: W
AnchorPoint: "Anchor-5" 0 0 basechar 0
AnchorPoint: "Anchor-4" 373 0 basechar 0
AnchorPoint: "Anchor-3" 372 723 basechar 0
AnchorPoint: "Anchor-2" 452 10 basechar 0
LayerCount: 2
Fore
SplineSet
198.5 34 m 128,-1,1
 125 78 125 78 86 161 c 128,-1,2
 47 244 47 244 47 359 c 0,3,4
 47 475 47 475 87 559.5 c 128,-1,5
 127 644 127 644 200 688.5 c 128,-1,6
 273 733 273 733 372 733 c 0,7,8
 470 733 470 733 542.5 688.5 c 128,-1,9
 615 644 615 644 654.5 560 c 128,-1,10
 694 476 694 476 694 360 c 0,11,12
 694 245 694 245 655 161.5 c 128,-1,13
 616 78 616 78 543.5 34 c 128,-1,14
 471 -10 471 -10 372 -10 c 0,15,0
 272 -10 272 -10 198.5 34 c 128,-1,1
513 157 m 128,-1,17
 562 222 562 222 562 358 c 0,18,19
 562 497 562 497 512.5 564 c 128,-1,20
 463 631 463 631 372 631 c 128,-1,21
 281 631 281 631 231 564 c 128,-1,22
 181 497 181 497 181 358 c 0,23,24
 181 222 181 222 231 157 c 128,-1,25
 281 92 281 92 372 92 c 0,26,16
 464 92 464 92 513 157 c 128,-1,17
502 839 m 1,27,-1
 483 784 l 1,28,-1
 224 855 l 1,29,-1
 253 939 l 1,30,-1
 502 839 l 1,27,-1
EndSplineSet
EndChar

StartChar: Oacute
Encoding: 211 211 148
Width: 742
GlyphClass: 2
Flags: W
AnchorPoint: "Anchor-5" 0 0 basechar 0
AnchorPoint: "Anchor-4" 373 0 basechar 0
AnchorPoint: "Anchor-3" 372 723 basechar 0
AnchorPoint: "Anchor-2" 452 10 basechar 0
LayerCount: 2
Fore
SplineSet
198.5 34 m 128,-1,1
 125 78 125 78 86 161 c 128,-1,2
 47 244 47 244 47 359 c 0,3,4
 47 475 47 475 87 559.5 c 128,-1,5
 127 644 127 644 200 688.5 c 128,-1,6
 273 733 273 733 372 733 c 0,7,8
 470 733 470 733 542.5 688.5 c 128,-1,9
 615 644 615 644 654.5 560 c 128,-1,10
 694 476 694 476 694 360 c 0,11,12
 694 245 694 245 655 161.5 c 128,-1,13
 616 78 616 78 543.5 34 c 128,-1,14
 471 -10 471 -10 372 -10 c 0,15,0
 272 -10 272 -10 198.5 34 c 128,-1,1
513 157 m 128,-1,17
 562 222 562 222 562 358 c 0,18,19
 562 497 562 497 512.5 564 c 128,-1,20
 463 631 463 631 372 631 c 128,-1,21
 281 631 281 631 231 564 c 128,-1,22
 181 497 181 497 181 358 c 0,23,24
 181 222 181 222 231 157 c 128,-1,25
 281 92 281 92 372 92 c 0,26,16
 464 92 464 92 513 157 c 128,-1,17
511 855 m 1,27,-1
 252 784 l 1,28,-1
 234 839 l 1,29,-1
 483 939 l 1,30,-1
 511 855 l 1,27,-1
EndSplineSet
EndChar

StartChar: Ocircumflex
Encoding: 212 212 149
Width: 742
GlyphClass: 2
Flags: W
AnchorPoint: "Anchor-5" 0 0 basechar 0
AnchorPoint: "Anchor-4" 373 0 basechar 0
AnchorPoint: "Anchor-3" 372 723 basechar 0
AnchorPoint: "Anchor-2" 452 10 basechar 0
LayerCount: 2
Fore
SplineSet
198.5 34 m 128,-1,1
 125 78 125 78 86 161 c 128,-1,2
 47 244 47 244 47 359 c 0,3,4
 47 475 47 475 87 559.5 c 128,-1,5
 127 644 127 644 200 688.5 c 128,-1,6
 273 733 273 733 372 733 c 0,7,8
 470 733 470 733 542.5 688.5 c 128,-1,9
 615 644 615 644 654.5 560 c 128,-1,10
 694 476 694 476 694 360 c 0,11,12
 694 245 694 245 655 161.5 c 128,-1,13
 616 78 616 78 543.5 34 c 128,-1,14
 471 -10 471 -10 372 -10 c 0,15,0
 272 -10 272 -10 198.5 34 c 128,-1,1
513 157 m 128,-1,17
 562 222 562 222 562 358 c 0,18,19
 562 497 562 497 512.5 564 c 128,-1,20
 463 631 463 631 372 631 c 128,-1,21
 281 631 281 631 231 564 c 128,-1,22
 181 497 181 497 181 358 c 0,23,24
 181 222 181 222 231 157 c 128,-1,25
 281 92 281 92 372 92 c 0,26,16
 464 92 464 92 513 157 c 128,-1,17
372 880 m 1,27,-1
 298 809 l 1,28,-1
 201 809 l 1,29,-1
 330 934 l 1,30,-1
 415 934 l 1,31,-1
 541 809 l 1,32,-1
 439 809 l 1,33,-1
 372 880 l 1,27,-1
EndSplineSet
EndChar

StartChar: Otilde
Encoding: 213 213 150
Width: 742
GlyphClass: 2
Flags: W
AnchorPoint: "Anchor-5" 0 0 basechar 0
AnchorPoint: "Anchor-4" 373 0 basechar 0
AnchorPoint: "Anchor-3" 372 723 basechar 0
AnchorPoint: "Anchor-2" 452 10 basechar 0
LayerCount: 2
Fore
SplineSet
198.5 34 m 128,-1,1
 125 78 125 78 86 161 c 128,-1,2
 47 244 47 244 47 359 c 0,3,4
 47 475 47 475 87 559.5 c 128,-1,5
 127 644 127 644 200 688.5 c 128,-1,6
 273 733 273 733 372 733 c 0,7,8
 470 733 470 733 542.5 688.5 c 128,-1,9
 615 644 615 644 654.5 560 c 128,-1,10
 694 476 694 476 694 360 c 0,11,12
 694 245 694 245 655 161.5 c 128,-1,13
 616 78 616 78 543.5 34 c 128,-1,14
 471 -10 471 -10 372 -10 c 0,15,0
 272 -10 272 -10 198.5 34 c 128,-1,1
513 157 m 128,-1,17
 562 222 562 222 562 358 c 0,18,19
 562 497 562 497 512.5 564 c 128,-1,20
 463 631 463 631 372 631 c 128,-1,21
 281 631 281 631 231 564 c 128,-1,22
 181 497 181 497 181 358 c 0,23,24
 181 222 181 222 231 157 c 128,-1,25
 281 92 281 92 372 92 c 0,26,16
 464 92 464 92 513 157 c 128,-1,17
443 829 m 0,27,28
 414 829 414 829 370 843 c 0,29,30
 333 856 333 856 307 856 c 0,31,32
 288 856 288 856 275 851 c 128,-1,33
 262 846 262 846 244 834 c 0,34,35
 238 830 238 830 235 830 c 0,36,37
 230 830 230 830 227 840 c 2,38,-1
 216 875 l 1,39,-1
 214 883 l 2,40,41
 214 888 214 888 221 895 c 0,42,43
 240 911 240 911 258 919.5 c 128,-1,44
 276 928 276 928 302 928 c 0,45,46
 320 928 320 928 340 923.5 c 128,-1,47
 360 919 360 919 378 913 c 0,48,49
 394 908 394 908 411 903.5 c 128,-1,50
 428 899 428 899 443 899 c 0,51,52
 460 899 460 899 474.5 905 c 128,-1,53
 489 911 489 911 505 921 c 0,54,55
 510 924 510 924 514 924 c 0,56,57
 521 924 521 924 524 915 c 2,58,-1
 534 873 l 2,59,60
 535 871 535 871 535 867 c 0,61,62
 535 860 535 860 525 853 c 0,63,64
 488 829 488 829 443 829 c 0,27,28
EndSplineSet
EndChar

StartChar: Odieresis
Encoding: 214 214 151
Width: 742
GlyphClass: 2
Flags: W
AnchorPoint: "Anchor-5" 0 0 basechar 0
AnchorPoint: "Anchor-4" 373 0 basechar 0
AnchorPoint: "Anchor-3" 372 723 basechar 0
AnchorPoint: "Anchor-2" 452 10 basechar 0
LayerCount: 2
Fore
SplineSet
198.5 34 m 128,-1,1
 125 78 125 78 86 161 c 128,-1,2
 47 244 47 244 47 359 c 0,3,4
 47 475 47 475 87 559.5 c 128,-1,5
 127 644 127 644 200 688.5 c 128,-1,6
 273 733 273 733 372 733 c 0,7,8
 470 733 470 733 542.5 688.5 c 128,-1,9
 615 644 615 644 654.5 560 c 128,-1,10
 694 476 694 476 694 360 c 0,11,12
 694 245 694 245 655 161.5 c 128,-1,13
 616 78 616 78 543.5 34 c 128,-1,14
 471 -10 471 -10 372 -10 c 0,15,0
 272 -10 272 -10 198.5 34 c 128,-1,1
513 157 m 128,-1,17
 562 222 562 222 562 358 c 0,18,19
 562 497 562 497 512.5 564 c 128,-1,20
 463 631 463 631 372 631 c 128,-1,21
 281 631 281 631 231 564 c 128,-1,22
 181 497 181 497 181 358 c 0,23,24
 181 222 181 222 231 157 c 128,-1,25
 281 92 281 92 372 92 c 0,26,16
 464 92 464 92 513 157 c 128,-1,17
339 811 m 1,27,-1
 229 811 l 1,28,-1
 229 929 l 1,29,-1
 339 929 l 1,30,-1
 339 811 l 1,27,-1
515 811 m 1,31,-1
 404 811 l 1,32,-1
 404 929 l 1,33,-1
 515 929 l 1,34,-1
 515 811 l 1,31,-1
EndSplineSet
EndChar

StartChar: multiply
Encoding: 215 215 152
Width: 559
GlyphClass: 2
Flags: W
LayerCount: 2
Fore
SplineSet
342 364 m 1,0,-1
 497 209 l 1,1,-1
 432 144 l 1,2,-1
 277 299 l 1,3,-1
 122 144 l 1,4,-1
 59 209 l 1,5,-1
 213 363 l 1,6,-1
 58 519 l 1,7,-1
 121 583 l 1,8,-1
 277 428 l 1,9,-1
 433 584 l 1,10,-1
 498 520 l 1,11,-1
 342 364 l 1,0,-1
EndSplineSet
EndChar

StartChar: Oslash
Encoding: 216 216 153
Width: 743
GlyphClass: 2
Flags: W
AnchorPoint: "Anchor-5" 0 0 basechar 0
AnchorPoint: "Anchor-4" 0 0 basechar 0
AnchorPoint: "Anchor-3" 369 723 basechar 0
AnchorPoint: "Anchor-2" 0 0 basechar 0
LayerCount: 2
Fore
SplineSet
723 678 m 0,0,1
 723 674 723 674 718 669 c 2,2,-1
 640 585 l 1,3,4
 693 493 693 493 693 360 c 0,5,6
 693 245 693 245 653.5 161.5 c 128,-1,7
 614 78 614 78 541 34 c 128,-1,8
 468 -10 468 -10 369 -10 c 0,9,10
 234 -10 234 -10 152 69 c 1,11,-1
 88 2 l 2,12,13
 81 -7 81 -7 73 -7 c 0,14,15
 67 -7 67 -7 57 1 c 2,16,-1
 29 30 l 2,17,18
 20 39 20 39 20 45 c 0,19,20
 20 50 20 50 25 55 c 2,21,-1
 99 134 l 1,22,23
 46 222 46 222 46 359 c 0,24,25
 46 475 46 475 85.5 559.5 c 128,-1,26
 125 644 125 644 198 688.5 c 128,-1,27
 271 733 271 733 370 733 c 0,28,29
 504 733 504 733 589 650 c 1,30,-1
 657 723 l 2,31,32
 664 730 664 730 671 730 c 0,33,34
 675 730 675 730 679 726 c 2,35,-1
 718 688 l 2,36,37
 723 683 723 683 723 678 c 0,0,1
209 244 m 1,38,-1
 504 565 l 1,39,40
 460 634 460 634 370 634 c 0,41,42
 279 634 279 634 235.5 567 c 128,-1,43
 192 500 192 500 192 358 c 0,44,45
 192 288 192 288 209 244 c 1,38,-1
529 475 m 1,46,-1
 235 154 l 1,47,48
 280 90 280 90 370 90 c 0,49,50
 461 90 461 90 503.5 154 c 128,-1,51
 546 218 546 218 546 358 c 0,52,53
 546 426 546 426 529 475 c 1,46,-1
EndSplineSet
EndChar

StartChar: Ugrave
Encoding: 217 217 154
Width: 726
GlyphClass: 2
Flags: W
AnchorPoint: "Anchor-5" 0 0 basechar 0
AnchorPoint: "Anchor-4" 0 0 basechar 0
AnchorPoint: "Anchor-3" 355 723 basechar 0
AnchorPoint: "Anchor-2" 438 11 basechar 0
LayerCount: 2
Fore
SplineSet
574.5 60.5 m 128,-1,1
 508 -10 508 -10 363 -10 c 0,2,3
 217 -10 217 -10 151 61.5 c 128,-1,4
 85 133 85 133 85 271 c 2,5,-1
 85 723 l 1,6,-1
 210 723 l 1,7,-1
 210 259 l 2,8,9
 210 176 210 176 250 135 c 128,-1,10
 290 94 290 94 363 94 c 128,-1,11
 436 94 436 94 477 135 c 128,-1,12
 518 176 518 176 518 259 c 2,13,-1
 518 723 l 1,14,-1
 641 723 l 1,15,-1
 641 264 l 2,16,0
 641 131 641 131 574.5 60.5 c 128,-1,1
485 839 m 1,17,-1
 466 784 l 1,18,-1
 207 855 l 1,19,-1
 236 939 l 1,20,-1
 485 839 l 1,17,-1
EndSplineSet
EndChar

StartChar: Uacute
Encoding: 218 218 155
Width: 726
GlyphClass: 2
Flags: W
AnchorPoint: "Anchor-5" 0 0 basechar 0
AnchorPoint: "Anchor-4" 0 0 basechar 0
AnchorPoint: "Anchor-3" 355 723 basechar 0
AnchorPoint: "Anchor-2" 438 11 basechar 0
LayerCount: 2
Fore
SplineSet
574.5 60.5 m 128,-1,1
 508 -10 508 -10 363 -10 c 0,2,3
 217 -10 217 -10 151 61.5 c 128,-1,4
 85 133 85 133 85 271 c 2,5,-1
 85 723 l 1,6,-1
 210 723 l 1,7,-1
 210 259 l 2,8,9
 210 176 210 176 250 135 c 128,-1,10
 290 94 290 94 363 94 c 128,-1,11
 436 94 436 94 477 135 c 128,-1,12
 518 176 518 176 518 259 c 2,13,-1
 518 723 l 1,14,-1
 641 723 l 1,15,-1
 641 264 l 2,16,0
 641 131 641 131 574.5 60.5 c 128,-1,1
494 855 m 1,17,-1
 235 784 l 1,18,-1
 217 839 l 1,19,-1
 466 939 l 1,20,-1
 494 855 l 1,17,-1
EndSplineSet
EndChar

StartChar: Ucircumflex
Encoding: 219 219 156
Width: 726
GlyphClass: 2
Flags: W
AnchorPoint: "Anchor-5" 0 0 basechar 0
AnchorPoint: "Anchor-4" 0 0 basechar 0
AnchorPoint: "Anchor-3" 355 723 basechar 0
AnchorPoint: "Anchor-2" 438 11 basechar 0
LayerCount: 2
Fore
SplineSet
574.5 60.5 m 128,-1,1
 508 -10 508 -10 363 -10 c 0,2,3
 217 -10 217 -10 151 61.5 c 128,-1,4
 85 133 85 133 85 271 c 2,5,-1
 85 723 l 1,6,-1
 210 723 l 1,7,-1
 210 259 l 2,8,9
 210 176 210 176 250 135 c 128,-1,10
 290 94 290 94 363 94 c 128,-1,11
 436 94 436 94 477 135 c 128,-1,12
 518 176 518 176 518 259 c 2,13,-1
 518 723 l 1,14,-1
 641 723 l 1,15,-1
 641 264 l 2,16,0
 641 131 641 131 574.5 60.5 c 128,-1,1
355 880 m 1,17,-1
 281 809 l 1,18,-1
 184 809 l 1,19,-1
 313 934 l 1,20,-1
 398 934 l 1,21,-1
 524 809 l 1,22,-1
 422 809 l 1,23,-1
 355 880 l 1,17,-1
EndSplineSet
EndChar

StartChar: Udieresis
Encoding: 220 220 157
Width: 726
GlyphClass: 2
Flags: W
AnchorPoint: "Anchor-5" 0 0 basechar 0
AnchorPoint: "Anchor-4" 0 0 basechar 0
AnchorPoint: "Anchor-3" 355 723 basechar 0
AnchorPoint: "Anchor-2" 438 11 basechar 0
LayerCount: 2
Fore
SplineSet
574.5 60.5 m 128,-1,1
 508 -10 508 -10 363 -10 c 0,2,3
 217 -10 217 -10 151 61.5 c 128,-1,4
 85 133 85 133 85 271 c 2,5,-1
 85 723 l 1,6,-1
 210 723 l 1,7,-1
 210 259 l 2,8,9
 210 176 210 176 250 135 c 128,-1,10
 290 94 290 94 363 94 c 128,-1,11
 436 94 436 94 477 135 c 128,-1,12
 518 176 518 176 518 259 c 2,13,-1
 518 723 l 1,14,-1
 641 723 l 1,15,-1
 641 264 l 2,16,0
 641 131 641 131 574.5 60.5 c 128,-1,1
322 811 m 1,17,-1
 212 811 l 1,18,-1
 212 929 l 1,19,-1
 322 929 l 1,20,-1
 322 811 l 1,17,-1
498 811 m 1,21,-1
 387 811 l 1,22,-1
 387 929 l 1,23,-1
 498 929 l 1,24,-1
 498 811 l 1,21,-1
EndSplineSet
EndChar

StartChar: Yacute
Encoding: 221 221 158
Width: 630
GlyphClass: 2
Flags: W
AnchorPoint: "Anchor-5" 0 0 basechar 0
AnchorPoint: "Anchor-4" 0 0 basechar 0
AnchorPoint: "Anchor-3" 326 723 basechar 0
AnchorPoint: "Anchor-2" 0 0 basechar 0
LayerCount: 2
Fore
SplineSet
376 306 m 1,0,-1
 376 0 l 1,1,-1
 254 0 l 1,2,-1
 254 306 l 1,3,-1
 5 723 l 1,4,-1
 137 723 l 1,5,-1
 316 412 l 1,6,-1
 491 723 l 1,7,-1
 624 723 l 1,8,-1
 376 306 l 1,0,-1
465 855 m 1,9,-1
 206 784 l 1,10,-1
 188 839 l 1,11,-1
 437 939 l 1,12,-1
 465 855 l 1,9,-1
EndSplineSet
EndChar

StartChar: Thorn
Encoding: 222 222 159
Width: 687
GlyphClass: 2
Flags: W
LayerCount: 2
Fore
SplineSet
585.5 211.5 m 128,-1,1
 514 156 514 156 395 156 c 2,2,-1
 224 156 l 1,3,-1
 224 0 l 1,4,-1
 85 0 l 1,5,-1
 85 723 l 1,6,-1
 224 723 l 1,7,-1
 224 580 l 1,8,-1
 379 580 l 2,9,10
 502 580 502 580 579.5 526.5 c 128,-1,11
 657 473 657 473 657 371 c 0,12,0
 657 267 657 267 585.5 211.5 c 128,-1,1
476.5 453 m 128,-1,14
 438 479 438 479 371 479 c 2,15,-1
 224 479 l 1,16,-1
 224 257 l 1,17,-1
 377 257 l 2,18,19
 441 257 441 257 478 286.5 c 128,-1,20
 515 316 515 316 515 373 c 0,21,13
 515 427 515 427 476.5 453 c 128,-1,14
EndSplineSet
EndChar

StartChar: germandbls
Encoding: 223 223 160
Width: 624
GlyphClass: 2
Flags: W
LayerCount: 2
Fore
SplineSet
467.5 683.5 m 128,-1,1
 516 644 516 644 516 579 c 0,2,3
 516 528 516 528 486 497.5 c 128,-1,4
 456 467 456 467 390 438 c 0,5,6
 365 424 365 424 357.5 417.5 c 128,-1,7
 350 411 350 411 350 399 c 128,-1,8
 350 387 350 387 358.5 380.5 c 128,-1,9
 367 374 367 374 390 367 c 0,10,11
 456 340 456 340 492.5 320 c 128,-1,12
 529 300 529 300 557 262 c 128,-1,13
 585 224 585 224 585 165 c 0,14,15
 585 82 585 82 528.5 36 c 128,-1,16
 472 -10 472 -10 379 -10 c 0,17,18
 341 -10 341 -10 305.5 -0.5 c 128,-1,19
 270 9 270 9 245 24 c 1,20,-1
 283 101 l 1,21,22
 306 86 306 86 326.5 78.5 c 128,-1,23
 347 71 347 71 374 71 c 0,24,25
 419 71 419 71 446.5 92.5 c 128,-1,26
 474 114 474 114 474 153 c 0,27,28
 474 180 474 180 460.5 197.5 c 128,-1,29
 447 215 447 215 425.5 225.5 c 128,-1,30
 404 236 404 236 365 250 c 0,31,32
 315 270 315 270 286.5 297 c 128,-1,33
 258 324 258 324 258 372 c 0,34,35
 258 407 258 407 276 432.5 c 128,-1,36
 294 458 294 458 332 483 c 0,37,38
 338 487 338 487 360 502.5 c 128,-1,39
 382 518 382 518 393 535.5 c 128,-1,40
 404 553 404 553 404 574 c 0,41,42
 404 605 404 605 381 623 c 128,-1,43
 358 641 358 641 317 641 c 0,44,45
 265 641 265 641 235 609.5 c 128,-1,46
 205 578 205 578 205 522 c 2,47,-1
 205 0 l 1,48,-1
 85 0 l 1,49,-1
 85 413 l 1,50,-1
 22 413 l 1,51,-1
 22 499 l 1,52,-1
 84 499 l 1,53,54
 86 598 86 598 146.5 660.5 c 128,-1,55
 207 723 207 723 325 723 c 0,56,0
 419 723 419 723 467.5 683.5 c 128,-1,1
EndSplineSet
EndChar

StartChar: agrave
Encoding: 224 224 161
Width: 567
GlyphClass: 2
Flags: W
AnchorPoint: "Anchor-5" 0 0 basechar 0
AnchorPoint: "Anchor-4" 0 0 basechar 0
AnchorPoint: "Anchor-3" 283 517 basechar 0
AnchorPoint: "Anchor-2" 477 12 basechar 0
LayerCount: 2
Fore
SplineSet
89 31 m 128,-1,1
 41 72 41 72 41 144 c 0,2,3
 41 229 41 229 103 270.5 c 128,-1,4
 165 312 165 312 300 317 c 2,5,-1
 378 322 l 1,6,-1
 378 354 l 2,7,8
 378 395 378 395 352.5 418.5 c 128,-1,9
 327 442 327 442 282 442 c 0,10,11
 245 442 245 442 212 425 c 128,-1,12
 179 408 179 408 158 373 c 1,13,-1
 58 383 l 1,14,15
 75 453 75 453 136 490 c 128,-1,16
 197 527 197 527 285 527 c 0,17,18
 392 527 392 527 443.5 483.5 c 128,-1,19
 495 440 495 440 495 362 c 2,20,-1
 495 0 l 1,21,-1
 392 0 l 1,22,-1
 383 69 l 1,23,24
 355 32 355 32 311.5 11 c 128,-1,25
 268 -10 268 -10 214 -10 c 0,26,0
 137 -10 137 -10 89 31 c 128,-1,1
312 87 m 128,-1,28
 341 101 341 101 359.5 124 c 128,-1,29
 378 147 378 147 378 171 c 2,30,-1
 378 254 l 1,31,-1
 314 250 l 2,32,33
 236 245 236 245 197 225 c 128,-1,34
 158 205 158 205 158 156 c 0,35,36
 158 118 158 118 184.5 95.5 c 128,-1,37
 211 73 211 73 253 73 c 0,38,27
 283 73 283 73 312 87 c 128,-1,28
413 633 m 1,39,-1
 394 578 l 1,40,-1
 135 649 l 1,41,-1
 164 733 l 1,42,-1
 413 633 l 1,39,-1
EndSplineSet
EndChar

StartChar: aacute
Encoding: 225 225 162
Width: 567
GlyphClass: 2
Flags: W
AnchorPoint: "Anchor-5" 0 0 basechar 0
AnchorPoint: "Anchor-4" 0 0 basechar 0
AnchorPoint: "Anchor-3" 283 517 basechar 0
AnchorPoint: "Anchor-2" 477 12 basechar 0
LayerCount: 2
Fore
SplineSet
89 31 m 128,-1,1
 41 72 41 72 41 144 c 0,2,3
 41 229 41 229 103 270.5 c 128,-1,4
 165 312 165 312 300 317 c 2,5,-1
 378 322 l 1,6,-1
 378 354 l 2,7,8
 378 395 378 395 352.5 418.5 c 128,-1,9
 327 442 327 442 282 442 c 0,10,11
 245 442 245 442 212 425 c 128,-1,12
 179 408 179 408 158 373 c 1,13,-1
 58 383 l 1,14,15
 75 453 75 453 136 490 c 128,-1,16
 197 527 197 527 285 527 c 0,17,18
 392 527 392 527 443.5 483.5 c 128,-1,19
 495 440 495 440 495 362 c 2,20,-1
 495 0 l 1,21,-1
 392 0 l 1,22,-1
 383 69 l 1,23,24
 355 32 355 32 311.5 11 c 128,-1,25
 268 -10 268 -10 214 -10 c 0,26,0
 137 -10 137 -10 89 31 c 128,-1,1
312 87 m 128,-1,28
 341 101 341 101 359.5 124 c 128,-1,29
 378 147 378 147 378 171 c 2,30,-1
 378 254 l 1,31,-1
 314 250 l 2,32,33
 236 245 236 245 197 225 c 128,-1,34
 158 205 158 205 158 156 c 0,35,36
 158 118 158 118 184.5 95.5 c 128,-1,37
 211 73 211 73 253 73 c 0,38,27
 283 73 283 73 312 87 c 128,-1,28
422 649 m 1,39,-1
 163 578 l 1,40,-1
 145 633 l 1,41,-1
 394 733 l 1,42,-1
 422 649 l 1,39,-1
EndSplineSet
EndChar

StartChar: acircumflex
Encoding: 226 226 163
Width: 567
GlyphClass: 2
Flags: W
AnchorPoint: "Anchor-5" 0 0 basechar 0
AnchorPoint: "Anchor-4" 0 0 basechar 0
AnchorPoint: "Anchor-3" 283 517 basechar 0
AnchorPoint: "Anchor-2" 477 12 basechar 0
LayerCount: 2
Fore
SplineSet
89 31 m 128,-1,1
 41 72 41 72 41 144 c 0,2,3
 41 229 41 229 103 270.5 c 128,-1,4
 165 312 165 312 300 317 c 2,5,-1
 378 322 l 1,6,-1
 378 354 l 2,7,8
 378 395 378 395 352.5 418.5 c 128,-1,9
 327 442 327 442 282 442 c 0,10,11
 245 442 245 442 212 425 c 128,-1,12
 179 408 179 408 158 373 c 1,13,-1
 58 383 l 1,14,15
 75 453 75 453 136 490 c 128,-1,16
 197 527 197 527 285 527 c 0,17,18
 392 527 392 527 443.5 483.5 c 128,-1,19
 495 440 495 440 495 362 c 2,20,-1
 495 0 l 1,21,-1
 392 0 l 1,22,-1
 383 69 l 1,23,24
 355 32 355 32 311.5 11 c 128,-1,25
 268 -10 268 -10 214 -10 c 0,26,0
 137 -10 137 -10 89 31 c 128,-1,1
312 87 m 128,-1,28
 341 101 341 101 359.5 124 c 128,-1,29
 378 147 378 147 378 171 c 2,30,-1
 378 254 l 1,31,-1
 314 250 l 2,32,33
 236 245 236 245 197 225 c 128,-1,34
 158 205 158 205 158 156 c 0,35,36
 158 118 158 118 184.5 95.5 c 128,-1,37
 211 73 211 73 253 73 c 0,38,27
 283 73 283 73 312 87 c 128,-1,28
283 674 m 1,39,-1
 209 603 l 1,40,-1
 112 603 l 1,41,-1
 241 728 l 1,42,-1
 326 728 l 1,43,-1
 452 603 l 1,44,-1
 350 603 l 1,45,-1
 283 674 l 1,39,-1
EndSplineSet
EndChar

StartChar: atilde
Encoding: 227 227 164
Width: 567
GlyphClass: 2
Flags: W
AnchorPoint: "Anchor-5" 0 0 basechar 0
AnchorPoint: "Anchor-4" 0 0 basechar 0
AnchorPoint: "Anchor-3" 283 517 basechar 0
AnchorPoint: "Anchor-2" 477 12 basechar 0
LayerCount: 2
Fore
SplineSet
89 31 m 128,-1,1
 41 72 41 72 41 144 c 0,2,3
 41 229 41 229 103 270.5 c 128,-1,4
 165 312 165 312 300 317 c 2,5,-1
 378 322 l 1,6,-1
 378 354 l 2,7,8
 378 395 378 395 352.5 418.5 c 128,-1,9
 327 442 327 442 282 442 c 0,10,11
 245 442 245 442 212 425 c 128,-1,12
 179 408 179 408 158 373 c 1,13,-1
 58 383 l 1,14,15
 75 453 75 453 136 490 c 128,-1,16
 197 527 197 527 285 527 c 0,17,18
 392 527 392 527 443.5 483.5 c 128,-1,19
 495 440 495 440 495 362 c 2,20,-1
 495 0 l 1,21,-1
 392 0 l 1,22,-1
 383 69 l 1,23,24
 355 32 355 32 311.5 11 c 128,-1,25
 268 -10 268 -10 214 -10 c 0,26,0
 137 -10 137 -10 89 31 c 128,-1,1
312 87 m 128,-1,28
 341 101 341 101 359.5 124 c 128,-1,29
 378 147 378 147 378 171 c 2,30,-1
 378 254 l 1,31,-1
 314 250 l 2,32,33
 236 245 236 245 197 225 c 128,-1,34
 158 205 158 205 158 156 c 0,35,36
 158 118 158 118 184.5 95.5 c 128,-1,37
 211 73 211 73 253 73 c 0,38,27
 283 73 283 73 312 87 c 128,-1,28
354 623 m 0,39,40
 325 623 325 623 281 637 c 0,41,42
 244 650 244 650 218 650 c 0,43,44
 199 650 199 650 186 645 c 128,-1,45
 173 640 173 640 155 628 c 0,46,47
 149 624 149 624 146 624 c 0,48,49
 141 624 141 624 138 634 c 2,50,-1
 127 669 l 1,51,-1
 125 677 l 2,52,53
 125 682 125 682 132 689 c 0,54,55
 151 705 151 705 169 713.5 c 128,-1,56
 187 722 187 722 213 722 c 0,57,58
 231 722 231 722 251 717.5 c 128,-1,59
 271 713 271 713 289 707 c 0,60,61
 305 702 305 702 322 697.5 c 128,-1,62
 339 693 339 693 354 693 c 0,63,64
 371 693 371 693 385.5 699 c 128,-1,65
 400 705 400 705 416 715 c 0,66,67
 421 718 421 718 425 718 c 0,68,69
 432 718 432 718 435 709 c 2,70,-1
 445 667 l 2,71,72
 446 665 446 665 446 661 c 0,73,74
 446 654 446 654 436 647 c 0,75,76
 399 623 399 623 354 623 c 0,39,40
EndSplineSet
EndChar

StartChar: adieresis
Encoding: 228 228 165
Width: 567
GlyphClass: 2
Flags: W
AnchorPoint: "Anchor-5" 0 0 basechar 0
AnchorPoint: "Anchor-4" 0 0 basechar 0
AnchorPoint: "Anchor-3" 283 517 basechar 0
AnchorPoint: "Anchor-2" 477 12 basechar 0
LayerCount: 2
Fore
SplineSet
89 31 m 128,-1,1
 41 72 41 72 41 144 c 0,2,3
 41 229 41 229 103 270.5 c 128,-1,4
 165 312 165 312 300 317 c 2,5,-1
 378 322 l 1,6,-1
 378 354 l 2,7,8
 378 395 378 395 352.5 418.5 c 128,-1,9
 327 442 327 442 282 442 c 0,10,11
 245 442 245 442 212 425 c 128,-1,12
 179 408 179 408 158 373 c 1,13,-1
 58 383 l 1,14,15
 75 453 75 453 136 490 c 128,-1,16
 197 527 197 527 285 527 c 0,17,18
 392 527 392 527 443.5 483.5 c 128,-1,19
 495 440 495 440 495 362 c 2,20,-1
 495 0 l 1,21,-1
 392 0 l 1,22,-1
 383 69 l 1,23,24
 355 32 355 32 311.5 11 c 128,-1,25
 268 -10 268 -10 214 -10 c 0,26,0
 137 -10 137 -10 89 31 c 128,-1,1
312 87 m 128,-1,28
 341 101 341 101 359.5 124 c 128,-1,29
 378 147 378 147 378 171 c 2,30,-1
 378 254 l 1,31,-1
 314 250 l 2,32,33
 236 245 236 245 197 225 c 128,-1,34
 158 205 158 205 158 156 c 0,35,36
 158 118 158 118 184.5 95.5 c 128,-1,37
 211 73 211 73 253 73 c 0,38,27
 283 73 283 73 312 87 c 128,-1,28
250 605 m 1,39,-1
 140 605 l 1,40,-1
 140 723 l 1,41,-1
 250 723 l 1,42,-1
 250 605 l 1,39,-1
426 605 m 1,43,-1
 315 605 l 1,44,-1
 315 723 l 1,45,-1
 426 723 l 1,46,-1
 426 605 l 1,43,-1
EndSplineSet
EndChar

StartChar: aring
Encoding: 229 229 166
Width: 567
GlyphClass: 2
Flags: W
AnchorPoint: "Anchor-5" 0 0 basechar 0
AnchorPoint: "Anchor-4" 0 0 basechar 0
AnchorPoint: "Anchor-3" 283 517 basechar 0
AnchorPoint: "Anchor-2" 477 12 basechar 0
LayerCount: 2
Fore
SplineSet
89 31 m 128,-1,1
 41 72 41 72 41 144 c 0,2,3
 41 229 41 229 103 270.5 c 128,-1,4
 165 312 165 312 300 317 c 2,5,-1
 378 322 l 1,6,-1
 378 354 l 2,7,8
 378 395 378 395 352.5 418.5 c 128,-1,9
 327 442 327 442 282 442 c 0,10,11
 245 442 245 442 212 425 c 128,-1,12
 179 408 179 408 158 373 c 1,13,-1
 58 383 l 1,14,15
 75 453 75 453 136 490 c 128,-1,16
 197 527 197 527 285 527 c 0,17,18
 392 527 392 527 443.5 483.5 c 128,-1,19
 495 440 495 440 495 362 c 2,20,-1
 495 0 l 1,21,-1
 392 0 l 1,22,-1
 383 69 l 1,23,24
 355 32 355 32 311.5 11 c 128,-1,25
 268 -10 268 -10 214 -10 c 0,26,0
 137 -10 137 -10 89 31 c 128,-1,1
312 87 m 128,-1,28
 341 101 341 101 359.5 124 c 128,-1,29
 378 147 378 147 378 171 c 2,30,-1
 378 254 l 1,31,-1
 314 250 l 2,32,33
 236 245 236 245 197 225 c 128,-1,34
 158 205 158 205 158 156 c 0,35,36
 158 118 158 118 184.5 95.5 c 128,-1,37
 211 73 211 73 253 73 c 0,38,27
 283 73 283 73 312 87 c 128,-1,28
358 602.5 m 128,-1,40
 327 572 327 572 283 572 c 0,41,42
 238 572 238 572 207.5 603 c 128,-1,43
 177 634 177 634 177 680 c 0,44,45
 177 723 177 723 208 752.5 c 128,-1,46
 239 782 239 782 283 782 c 128,-1,47
 327 782 327 782 358 751.5 c 128,-1,48
 389 721 389 721 389 678 c 0,49,39
 389 633 389 633 358 602.5 c 128,-1,40
318.5 713.5 m 128,-1,51
 304 728 304 728 282 728 c 0,52,53
 261 728 261 728 245.5 713.5 c 128,-1,54
 230 699 230 699 230 677 c 0,55,56
 230 657 230 657 245.5 641 c 128,-1,57
 261 625 261 625 282 625 c 128,-1,58
 303 625 303 625 318 640.5 c 128,-1,59
 333 656 333 656 333 677 c 0,60,50
 333 699 333 699 318.5 713.5 c 128,-1,51
EndSplineSet
EndChar

StartChar: ae
Encoding: 230 230 167
Width: 918
GlyphClass: 2
Flags: W
AnchorPoint: "Anchor-5" 0 0 basechar 0
AnchorPoint: "Anchor-4" 0 0 basechar 0
AnchorPoint: "Anchor-3" 453 517 basechar 0
AnchorPoint: "Anchor-2" 0 0 basechar 0
LayerCount: 2
Fore
SplineSet
521.5 155.5 m 128,-1,1
 541 119 541 119 574 97.5 c 128,-1,2
 607 76 607 76 647 76 c 0,3,4
 694 76 694 76 726 96 c 128,-1,5
 758 116 758 116 791 155 c 1,6,-1
 868 119 l 1,7,8
 827 52 827 52 769.5 21 c 128,-1,9
 712 -10 712 -10 632 -10 c 0,10,11
 512 -10 512 -10 431 86 c 0,12,13
 427 90 427 90 423 86 c 0,14,15
 380 41 380 41 330.5 15.5 c 128,-1,16
 281 -10 281 -10 207 -10 c 0,17,18
 129 -10 129 -10 85 29.5 c 128,-1,19
 41 69 41 69 41 136 c 0,20,21
 41 213 41 213 106.5 258.5 c 128,-1,22
 172 304 172 304 300 312 c 2,23,-1
 381 318 l 1,24,-1
 381 354 l 2,25,26
 381 398 381 398 355.5 422.5 c 128,-1,27
 330 447 330 447 280 447 c 0,28,29
 203 447 203 447 158 370 c 1,30,-1
 55 397 l 1,31,32
 87 462 87 462 141.5 494.5 c 128,-1,33
 196 527 196 527 286 527 c 0,34,35
 420 526 420 526 463 451 c 1,36,37
 493 488 493 488 536 507.5 c 128,-1,38
 579 527 579 527 631 527 c 0,39,40
 704 527 704 527 759.5 492.5 c 128,-1,41
 815 458 815 458 846 392 c 128,-1,42
 877 326 877 326 877 235 c 1,43,-1
 502 234 l 1,44,0
 502 192 502 192 521.5 155.5 c 128,-1,1
542 410 m 128,-1,46
 505 372 505 372 505 306 c 1,47,-1
 757 305 l 1,48,49
 757 340 757 340 742 373 c 128,-1,50
 727 406 727 406 699.5 427 c 128,-1,51
 672 448 672 448 635 448 c 0,52,45
 579 448 579 448 542 410 c 128,-1,46
314 245 m 2,53,54
 245 240 245 240 203.5 214 c 128,-1,55
 162 188 162 188 162 144 c 0,56,57
 162 110 162 110 185 89.5 c 128,-1,58
 208 69 208 69 249 69 c 0,59,60
 302 69 302 69 341.5 96.5 c 128,-1,61
 381 124 381 124 381 164 c 2,62,-1
 381 250 l 1,63,-1
 314 245 l 2,53,54
EndSplineSet
EndChar

StartChar: ccedilla
Encoding: 231 231 168
Width: 536
GlyphClass: 2
Flags: W
AnchorPoint: "Anchor-5" 0 0 basechar 0
AnchorPoint: "Anchor-4" 284 0 basechar 0
AnchorPoint: "Anchor-3" 284 517 basechar 0
AnchorPoint: "Anchor-2" 0 0 basechar 0
LayerCount: 2
Fore
SplineSet
421 480 m 128,-1,1
 473 433 473 433 492 357 c 1,2,-1
 393 347 l 1,3,4
 367 392 367 392 345.5 412.5 c 128,-1,5
 324 433 324 433 287 433 c 0,6,7
 226 433 226 433 190.5 386 c 128,-1,8
 155 339 155 339 155 258 c 0,9,10
 155 176 155 176 191.5 127.5 c 128,-1,11
 228 79 228 79 289 79 c 0,12,13
 329 79 329 79 353.5 102.5 c 128,-1,14
 378 126 378 126 398 168 c 1,15,-1
 494 158 l 1,16,17
 477 83 477 83 422.5 36.5 c 128,-1,18
 368 -10 368 -10 285 -10 c 0,19,20
 213 -10 213 -10 157.5 23.5 c 128,-1,21
 102 57 102 57 71.5 117.5 c 128,-1,22
 41 178 41 178 41 256 c 0,23,24
 41 335 41 335 71.5 396.5 c 128,-1,25
 102 458 102 458 157.5 492.5 c 128,-1,26
 213 527 213 527 285 527 c 0,27,0
 369 527 369 527 421 480 c 128,-1,1
356 -188.5 m 128,-1,29
 323 -210 323 -210 274 -210 c 0,30,31
 210 -210 210 -210 169 -183 c 1,32,-1
 187 -139 l 1,33,34
 222 -163 222 -163 260 -163 c 0,35,36
 285 -163 285 -163 298 -154.5 c 128,-1,37
 311 -146 311 -146 311 -130 c 0,38,39
 311 -109 311 -109 292 -98.5 c 128,-1,40
 273 -88 273 -88 229 -87 c 0,41,42
 223 -87 223 -87 221.5 -85.5 c 128,-1,43
 220 -84 220 -84 222 -79 c 2,44,-1
 258 5 l 1,45,-1
 316 5 l 1,46,-1
 293 -54 l 1,47,48
 343 -56 343 -56 366 -78.5 c 128,-1,49
 389 -101 389 -101 389 -130 c 0,50,28
 389 -167 389 -167 356 -188.5 c 128,-1,29
EndSplineSet
EndChar

StartChar: egrave
Encoding: 232 232 169
Width: 559
GlyphClass: 2
Flags: W
AnchorPoint: "Anchor-5" 0 0 basechar 0
AnchorPoint: "Anchor-4" 283 0 basechar 0
AnchorPoint: "Anchor-3" 285 517 basechar 0
AnchorPoint: "Anchor-2" 397 22 basechar 0
LayerCount: 2
Fore
SplineSet
196 122 m 128,-1,1
 230 81 230 81 291 81 c 0,2,3
 334 81 334 81 362.5 98 c 128,-1,4
 391 115 391 115 405 151 c 1,5,-1
 514 143 l 1,6,7
 499 73 499 73 436.5 31.5 c 128,-1,8
 374 -10 374 -10 294 -10 c 0,9,10
 220 -10 220 -10 162.5 22 c 128,-1,11
 105 54 105 54 73 113.5 c 128,-1,12
 41 173 41 173 41 253 c 128,-1,13
 41 333 41 333 70 395 c 128,-1,14
 99 457 99 457 154 492 c 128,-1,15
 209 527 209 527 285 527 c 0,16,17
 396 527 396 527 457 456.5 c 128,-1,18
 518 386 518 386 518 267 c 2,19,-1
 518 230 l 1,20,-1
 162 230 l 1,21,0
 162 163 162 163 196 122 c 128,-1,1
404 306 m 1,22,23
 404 365 404 365 373 402 c 128,-1,24
 342 439 342 439 284 439 c 0,25,26
 227 439 227 439 194.5 399 c 128,-1,27
 162 359 162 359 162 306 c 1,28,-1
 404 306 l 1,22,23
415 633 m 1,29,-1
 396 578 l 1,30,-1
 137 649 l 1,31,-1
 166 733 l 1,32,-1
 415 633 l 1,29,-1
EndSplineSet
EndChar

StartChar: eacute
Encoding: 233 233 170
Width: 559
GlyphClass: 2
Flags: W
AnchorPoint: "Anchor-5" 0 0 basechar 0
AnchorPoint: "Anchor-4" 283 0 basechar 0
AnchorPoint: "Anchor-3" 285 517 basechar 0
AnchorPoint: "Anchor-2" 397 22 basechar 0
LayerCount: 2
Fore
SplineSet
196 122 m 128,-1,1
 230 81 230 81 291 81 c 0,2,3
 334 81 334 81 362.5 98 c 128,-1,4
 391 115 391 115 405 151 c 1,5,-1
 514 143 l 1,6,7
 499 73 499 73 436.5 31.5 c 128,-1,8
 374 -10 374 -10 294 -10 c 0,9,10
 220 -10 220 -10 162.5 22 c 128,-1,11
 105 54 105 54 73 113.5 c 128,-1,12
 41 173 41 173 41 253 c 128,-1,13
 41 333 41 333 70 395 c 128,-1,14
 99 457 99 457 154 492 c 128,-1,15
 209 527 209 527 285 527 c 0,16,17
 396 527 396 527 457 456.5 c 128,-1,18
 518 386 518 386 518 267 c 2,19,-1
 518 230 l 1,20,-1
 162 230 l 1,21,0
 162 163 162 163 196 122 c 128,-1,1
404 306 m 1,22,23
 404 365 404 365 373 402 c 128,-1,24
 342 439 342 439 284 439 c 0,25,26
 227 439 227 439 194.5 399 c 128,-1,27
 162 359 162 359 162 306 c 1,28,-1
 404 306 l 1,22,23
424 649 m 1,29,-1
 165 578 l 1,30,-1
 147 633 l 1,31,-1
 396 733 l 1,32,-1
 424 649 l 1,29,-1
EndSplineSet
EndChar

StartChar: ecircumflex
Encoding: 234 234 171
Width: 559
GlyphClass: 2
Flags: W
AnchorPoint: "Anchor-5" 0 0 basechar 0
AnchorPoint: "Anchor-4" 283 0 basechar 0
AnchorPoint: "Anchor-3" 285 517 basechar 0
AnchorPoint: "Anchor-2" 397 22 basechar 0
LayerCount: 2
Fore
SplineSet
196 122 m 128,-1,1
 230 81 230 81 291 81 c 0,2,3
 334 81 334 81 362.5 98 c 128,-1,4
 391 115 391 115 405 151 c 1,5,-1
 514 143 l 1,6,7
 499 73 499 73 436.5 31.5 c 128,-1,8
 374 -10 374 -10 294 -10 c 0,9,10
 220 -10 220 -10 162.5 22 c 128,-1,11
 105 54 105 54 73 113.5 c 128,-1,12
 41 173 41 173 41 253 c 128,-1,13
 41 333 41 333 70 395 c 128,-1,14
 99 457 99 457 154 492 c 128,-1,15
 209 527 209 527 285 527 c 0,16,17
 396 527 396 527 457 456.5 c 128,-1,18
 518 386 518 386 518 267 c 2,19,-1
 518 230 l 1,20,-1
 162 230 l 1,21,0
 162 163 162 163 196 122 c 128,-1,1
404 306 m 1,22,23
 404 365 404 365 373 402 c 128,-1,24
 342 439 342 439 284 439 c 0,25,26
 227 439 227 439 194.5 399 c 128,-1,27
 162 359 162 359 162 306 c 1,28,-1
 404 306 l 1,22,23
285 674 m 1,29,-1
 211 603 l 1,30,-1
 114 603 l 1,31,-1
 243 728 l 1,32,-1
 328 728 l 1,33,-1
 454 603 l 1,34,-1
 352 603 l 1,35,-1
 285 674 l 1,29,-1
EndSplineSet
EndChar

StartChar: edieresis
Encoding: 235 235 172
Width: 559
GlyphClass: 2
Flags: W
AnchorPoint: "Anchor-5" 0 0 basechar 0
AnchorPoint: "Anchor-4" 283 0 basechar 0
AnchorPoint: "Anchor-3" 285 517 basechar 0
AnchorPoint: "Anchor-2" 397 22 basechar 0
LayerCount: 2
Fore
SplineSet
196 122 m 128,-1,1
 230 81 230 81 291 81 c 0,2,3
 334 81 334 81 362.5 98 c 128,-1,4
 391 115 391 115 405 151 c 1,5,-1
 514 143 l 1,6,7
 499 73 499 73 436.5 31.5 c 128,-1,8
 374 -10 374 -10 294 -10 c 0,9,10
 220 -10 220 -10 162.5 22 c 128,-1,11
 105 54 105 54 73 113.5 c 128,-1,12
 41 173 41 173 41 253 c 128,-1,13
 41 333 41 333 70 395 c 128,-1,14
 99 457 99 457 154 492 c 128,-1,15
 209 527 209 527 285 527 c 0,16,17
 396 527 396 527 457 456.5 c 128,-1,18
 518 386 518 386 518 267 c 2,19,-1
 518 230 l 1,20,-1
 162 230 l 1,21,0
 162 163 162 163 196 122 c 128,-1,1
404 306 m 1,22,23
 404 365 404 365 373 402 c 128,-1,24
 342 439 342 439 284 439 c 0,25,26
 227 439 227 439 194.5 399 c 128,-1,27
 162 359 162 359 162 306 c 1,28,-1
 404 306 l 1,22,23
252 605 m 1,29,-1
 142 605 l 1,30,-1
 142 723 l 1,31,-1
 252 723 l 1,32,-1
 252 605 l 1,29,-1
428 605 m 1,33,-1
 317 605 l 1,34,-1
 317 723 l 1,35,-1
 428 723 l 1,36,-1
 428 605 l 1,33,-1
EndSplineSet
EndChar

StartChar: igrave
Encoding: 236 236 173
Width: 266
GlyphClass: 2
Flags: W
AnchorPoint: "Anchor-5" 0 0 basechar 0
AnchorPoint: "Anchor-4" 0 0 basechar 0
AnchorPoint: "Anchor-3" 135 517 basechar 0
AnchorPoint: "Anchor-2" 175 11 basechar 0
LayerCount: 2
Fore
SplineSet
194 0 m 1,0,-1
 72 0 l 1,1,-1
 72 517 l 1,2,-1
 194 517 l 1,3,-1
 194 0 l 1,0,-1
265 633 m 1,4,-1
 246 578 l 1,5,-1
 -13 649 l 1,6,-1
 16 733 l 1,7,-1
 265 633 l 1,4,-1
EndSplineSet
EndChar

StartChar: iacute
Encoding: 237 237 174
Width: 266
GlyphClass: 2
Flags: W
AnchorPoint: "Anchor-5" 0 0 basechar 0
AnchorPoint: "Anchor-4" 0 0 basechar 0
AnchorPoint: "Anchor-3" 135 517 basechar 0
AnchorPoint: "Anchor-2" 175 11 basechar 0
LayerCount: 2
Fore
SplineSet
194 0 m 1,0,-1
 72 0 l 1,1,-1
 72 517 l 1,2,-1
 194 517 l 1,3,-1
 194 0 l 1,0,-1
274 649 m 1,4,-1
 15 578 l 1,5,-1
 -3 633 l 1,6,-1
 246 733 l 1,7,-1
 274 649 l 1,4,-1
EndSplineSet
EndChar

StartChar: icircumflex
Encoding: 238 238 175
Width: 266
GlyphClass: 2
Flags: W
AnchorPoint: "Anchor-5" 0 0 basechar 0
AnchorPoint: "Anchor-4" 0 0 basechar 0
AnchorPoint: "Anchor-3" 135 517 basechar 0
AnchorPoint: "Anchor-2" 175 11 basechar 0
LayerCount: 2
Fore
SplineSet
194 0 m 1,0,-1
 72 0 l 1,1,-1
 72 517 l 1,2,-1
 194 517 l 1,3,-1
 194 0 l 1,0,-1
135 674 m 1,4,-1
 61 603 l 1,5,-1
 -36 603 l 1,6,-1
 93 728 l 1,7,-1
 178 728 l 1,8,-1
 304 603 l 1,9,-1
 202 603 l 1,10,-1
 135 674 l 1,4,-1
EndSplineSet
EndChar

StartChar: idieresis
Encoding: 239 239 176
Width: 266
GlyphClass: 2
Flags: W
AnchorPoint: "Anchor-5" 0 0 basechar 0
AnchorPoint: "Anchor-4" 0 0 basechar 0
AnchorPoint: "Anchor-3" 135 517 basechar 0
AnchorPoint: "Anchor-2" 175 11 basechar 0
LayerCount: 2
Fore
SplineSet
194 0 m 1,0,-1
 72 0 l 1,1,-1
 72 517 l 1,2,-1
 194 517 l 1,3,-1
 194 0 l 1,0,-1
102 605 m 1,4,-1
 -8 605 l 1,5,-1
 -8 723 l 1,6,-1
 102 723 l 1,7,-1
 102 605 l 1,4,-1
278 605 m 1,8,-1
 167 605 l 1,9,-1
 167 723 l 1,10,-1
 278 723 l 1,11,-1
 278 605 l 1,8,-1
EndSplineSet
EndChar

StartChar: eth
Encoding: 240 240 177
Width: 593
GlyphClass: 2
Flags: W
LayerCount: 2
Fore
SplineSet
520.5 120 m 128,-1,1
 489 58 489 58 431 24 c 128,-1,2
 373 -10 373 -10 295 -10 c 0,3,4
 221 -10 221 -10 163 23 c 128,-1,5
 105 56 105 56 73 114.5 c 128,-1,6
 41 173 41 173 41 246 c 0,7,8
 41 321 41 321 73.5 380.5 c 128,-1,9
 106 440 106 440 163.5 473.5 c 128,-1,10
 221 507 221 507 292 507 c 0,11,12
 343 507 343 507 372 478 c 1,13,14
 335 549 335 549 261 602 c 1,15,-1
 123 524 l 1,16,-1
 97 567 l 1,17,-1
 213 631 l 1,18,19
 172 654 172 654 107 679 c 1,20,-1
 177 734 l 1,21,22
 245 714 245 714 304 682 c 1,23,-1
 400 736 l 1,24,-1
 424 692 l 1,25,-1
 352 652 l 1,26,27
 452 584 452 584 502 484 c 128,-1,28
 552 384 552 384 552 263 c 0,29,0
 552 182 552 182 520.5 120 c 128,-1,1
392.5 121.5 m 128,-1,31
 428 169 428 169 428 249 c 128,-1,32
 428 329 428 329 392.5 377 c 128,-1,33
 357 425 357 425 297 425 c 128,-1,34
 237 425 237 425 201 377 c 128,-1,35
 165 329 165 329 165 249 c 128,-1,36
 165 169 165 169 201 121.5 c 128,-1,37
 237 74 237 74 297 74 c 128,-1,30
 357 74 357 74 392.5 121.5 c 128,-1,31
EndSplineSet
EndChar

StartChar: ntilde
Encoding: 241 241 178
Width: 600
GlyphClass: 2
Flags: W
AnchorPoint: "Anchor-5" 0 0 basechar 0
AnchorPoint: "Anchor-4" 300 0 basechar 0
AnchorPoint: "Anchor-3" 305 517 basechar 0
AnchorPoint: "Anchor-2" 0 0 basechar 0
LayerCount: 2
Fore
SplineSet
72 517 m 1,0,-1
 191 517 l 1,1,-1
 191 448 l 1,2,3
 217 483 217 483 253.5 503 c 128,-1,4
 290 523 290 523 347 523 c 0,5,6
 396 523 396 523 437 501 c 128,-1,7
 478 479 478 479 503 438 c 128,-1,8
 528 397 528 397 528 342 c 2,9,-1
 528 0 l 1,10,-1
 406 0 l 1,11,-1
 406 329 l 2,12,13
 406 374 406 374 378.5 400 c 128,-1,14
 351 426 351 426 307 426 c 0,15,16
 260 426 260 426 227 403.5 c 128,-1,17
 194 381 194 381 194 340 c 2,18,-1
 194 0 l 1,19,-1
 72 0 l 1,20,-1
 72 517 l 1,0,-1
376 623 m 0,21,22
 347 623 347 623 303 637 c 0,23,24
 266 650 266 650 240 650 c 0,25,26
 221 650 221 650 208 645 c 128,-1,27
 195 640 195 640 177 628 c 0,28,29
 171 624 171 624 168 624 c 0,30,31
 163 624 163 624 160 634 c 2,32,-1
 149 669 l 1,33,-1
 147 677 l 2,34,35
 147 682 147 682 154 689 c 0,36,37
 173 705 173 705 191 713.5 c 128,-1,38
 209 722 209 722 235 722 c 0,39,40
 253 722 253 722 273 717.5 c 128,-1,41
 293 713 293 713 311 707 c 0,42,43
 327 702 327 702 344 697.5 c 128,-1,44
 361 693 361 693 376 693 c 0,45,46
 393 693 393 693 407.5 699 c 128,-1,47
 422 705 422 705 438 715 c 0,48,49
 443 718 443 718 447 718 c 0,50,51
 454 718 454 718 457 709 c 2,52,-1
 467 667 l 2,53,54
 468 665 468 665 468 661 c 0,55,56
 468 654 468 654 458 647 c 0,57,58
 421 623 421 623 376 623 c 0,21,22
EndSplineSet
EndChar

StartChar: ograve
Encoding: 242 242 179
Width: 569
GlyphClass: 2
Flags: W
AnchorPoint: "Anchor-5" 0 0 basechar 0
AnchorPoint: "Anchor-4" 283 0 basechar 0
AnchorPoint: "Anchor-3" 286 517 basechar 0
AnchorPoint: "Anchor-2" 355 10 basechar 0
LayerCount: 2
Fore
SplineSet
155 23.5 m 128,-1,1
 100 57 100 57 70.5 117 c 128,-1,2
 41 177 41 177 41 255 c 0,3,4
 41 335 41 335 71 396.5 c 128,-1,5
 101 458 101 458 157 492.5 c 128,-1,6
 213 527 213 527 286 527 c 0,7,8
 360 527 360 527 415 492.5 c 128,-1,9
 470 458 470 458 499 396.5 c 128,-1,10
 528 335 528 335 528 256 c 0,11,12
 528 178 528 178 499 117.5 c 128,-1,13
 470 57 470 57 415 23.5 c 128,-1,14
 360 -10 360 -10 285 -10 c 128,-1,0
 210 -10 210 -10 155 23.5 c 128,-1,1
379 132.5 m 128,-1,16
 409 183 409 183 409 260 c 128,-1,17
 409 337 409 337 378.5 386 c 128,-1,18
 348 435 348 435 286 435 c 0,19,20
 222 435 222 435 191.5 386 c 128,-1,21
 161 337 161 337 161 260 c 128,-1,22
 161 183 161 183 192 132.5 c 128,-1,23
 223 82 223 82 286 82 c 128,-1,15
 349 82 349 82 379 132.5 c 128,-1,16
416 633 m 1,24,-1
 397 578 l 1,25,-1
 138 649 l 1,26,-1
 167 733 l 1,27,-1
 416 633 l 1,24,-1
EndSplineSet
EndChar

StartChar: oacute
Encoding: 243 243 180
Width: 569
GlyphClass: 2
Flags: W
AnchorPoint: "Anchor-5" 0 0 basechar 0
AnchorPoint: "Anchor-4" 283 0 basechar 0
AnchorPoint: "Anchor-3" 286 517 basechar 0
AnchorPoint: "Anchor-2" 355 10 basechar 0
LayerCount: 2
Fore
SplineSet
155 23.5 m 128,-1,1
 100 57 100 57 70.5 117 c 128,-1,2
 41 177 41 177 41 255 c 0,3,4
 41 335 41 335 71 396.5 c 128,-1,5
 101 458 101 458 157 492.5 c 128,-1,6
 213 527 213 527 286 527 c 0,7,8
 360 527 360 527 415 492.5 c 128,-1,9
 470 458 470 458 499 396.5 c 128,-1,10
 528 335 528 335 528 256 c 0,11,12
 528 178 528 178 499 117.5 c 128,-1,13
 470 57 470 57 415 23.5 c 128,-1,14
 360 -10 360 -10 285 -10 c 128,-1,0
 210 -10 210 -10 155 23.5 c 128,-1,1
379 132.5 m 128,-1,16
 409 183 409 183 409 260 c 128,-1,17
 409 337 409 337 378.5 386 c 128,-1,18
 348 435 348 435 286 435 c 0,19,20
 222 435 222 435 191.5 386 c 128,-1,21
 161 337 161 337 161 260 c 128,-1,22
 161 183 161 183 192 132.5 c 128,-1,23
 223 82 223 82 286 82 c 128,-1,15
 349 82 349 82 379 132.5 c 128,-1,16
425 649 m 1,24,-1
 166 578 l 1,25,-1
 148 633 l 1,26,-1
 397 733 l 1,27,-1
 425 649 l 1,24,-1
EndSplineSet
EndChar

StartChar: ocircumflex
Encoding: 244 244 181
Width: 569
GlyphClass: 2
Flags: W
AnchorPoint: "Anchor-5" 0 0 basechar 0
AnchorPoint: "Anchor-4" 283 0 basechar 0
AnchorPoint: "Anchor-3" 286 517 basechar 0
AnchorPoint: "Anchor-2" 355 10 basechar 0
LayerCount: 2
Fore
SplineSet
155 23.5 m 128,-1,1
 100 57 100 57 70.5 117 c 128,-1,2
 41 177 41 177 41 255 c 0,3,4
 41 335 41 335 71 396.5 c 128,-1,5
 101 458 101 458 157 492.5 c 128,-1,6
 213 527 213 527 286 527 c 0,7,8
 360 527 360 527 415 492.5 c 128,-1,9
 470 458 470 458 499 396.5 c 128,-1,10
 528 335 528 335 528 256 c 0,11,12
 528 178 528 178 499 117.5 c 128,-1,13
 470 57 470 57 415 23.5 c 128,-1,14
 360 -10 360 -10 285 -10 c 128,-1,0
 210 -10 210 -10 155 23.5 c 128,-1,1
379 132.5 m 128,-1,16
 409 183 409 183 409 260 c 128,-1,17
 409 337 409 337 378.5 386 c 128,-1,18
 348 435 348 435 286 435 c 0,19,20
 222 435 222 435 191.5 386 c 128,-1,21
 161 337 161 337 161 260 c 128,-1,22
 161 183 161 183 192 132.5 c 128,-1,23
 223 82 223 82 286 82 c 128,-1,15
 349 82 349 82 379 132.5 c 128,-1,16
286 674 m 1,24,-1
 212 603 l 1,25,-1
 115 603 l 1,26,-1
 244 728 l 1,27,-1
 329 728 l 1,28,-1
 455 603 l 1,29,-1
 353 603 l 1,30,-1
 286 674 l 1,24,-1
EndSplineSet
EndChar

StartChar: otilde
Encoding: 245 245 182
Width: 569
GlyphClass: 2
Flags: W
AnchorPoint: "Anchor-5" 0 0 basechar 0
AnchorPoint: "Anchor-4" 283 0 basechar 0
AnchorPoint: "Anchor-3" 286 517 basechar 0
AnchorPoint: "Anchor-2" 355 10 basechar 0
LayerCount: 2
Fore
SplineSet
155 23.5 m 128,-1,1
 100 57 100 57 70.5 117 c 128,-1,2
 41 177 41 177 41 255 c 0,3,4
 41 335 41 335 71 396.5 c 128,-1,5
 101 458 101 458 157 492.5 c 128,-1,6
 213 527 213 527 286 527 c 0,7,8
 360 527 360 527 415 492.5 c 128,-1,9
 470 458 470 458 499 396.5 c 128,-1,10
 528 335 528 335 528 256 c 0,11,12
 528 178 528 178 499 117.5 c 128,-1,13
 470 57 470 57 415 23.5 c 128,-1,14
 360 -10 360 -10 285 -10 c 128,-1,0
 210 -10 210 -10 155 23.5 c 128,-1,1
379 132.5 m 128,-1,16
 409 183 409 183 409 260 c 128,-1,17
 409 337 409 337 378.5 386 c 128,-1,18
 348 435 348 435 286 435 c 0,19,20
 222 435 222 435 191.5 386 c 128,-1,21
 161 337 161 337 161 260 c 128,-1,22
 161 183 161 183 192 132.5 c 128,-1,23
 223 82 223 82 286 82 c 128,-1,15
 349 82 349 82 379 132.5 c 128,-1,16
357 623 m 0,24,25
 328 623 328 623 284 637 c 0,26,27
 247 650 247 650 221 650 c 0,28,29
 202 650 202 650 189 645 c 128,-1,30
 176 640 176 640 158 628 c 0,31,32
 152 624 152 624 149 624 c 0,33,34
 144 624 144 624 141 634 c 2,35,-1
 130 669 l 1,36,-1
 128 677 l 2,37,38
 128 682 128 682 135 689 c 0,39,40
 154 705 154 705 172 713.5 c 128,-1,41
 190 722 190 722 216 722 c 0,42,43
 234 722 234 722 254 717.5 c 128,-1,44
 274 713 274 713 292 707 c 0,45,46
 308 702 308 702 325 697.5 c 128,-1,47
 342 693 342 693 357 693 c 0,48,49
 374 693 374 693 388.5 699 c 128,-1,50
 403 705 403 705 419 715 c 0,51,52
 424 718 424 718 428 718 c 0,53,54
 435 718 435 718 438 709 c 2,55,-1
 448 667 l 2,56,57
 449 665 449 665 449 661 c 0,58,59
 449 654 449 654 439 647 c 0,60,61
 402 623 402 623 357 623 c 0,24,25
EndSplineSet
EndChar

StartChar: odieresis
Encoding: 246 246 183
Width: 569
GlyphClass: 2
Flags: W
AnchorPoint: "Anchor-5" 0 0 basechar 0
AnchorPoint: "Anchor-4" 283 0 basechar 0
AnchorPoint: "Anchor-3" 286 517 basechar 0
AnchorPoint: "Anchor-2" 355 10 basechar 0
LayerCount: 2
Fore
SplineSet
155 23.5 m 128,-1,1
 100 57 100 57 70.5 117 c 128,-1,2
 41 177 41 177 41 255 c 0,3,4
 41 335 41 335 71 396.5 c 128,-1,5
 101 458 101 458 157 492.5 c 128,-1,6
 213 527 213 527 286 527 c 0,7,8
 360 527 360 527 415 492.5 c 128,-1,9
 470 458 470 458 499 396.5 c 128,-1,10
 528 335 528 335 528 256 c 0,11,12
 528 178 528 178 499 117.5 c 128,-1,13
 470 57 470 57 415 23.5 c 128,-1,14
 360 -10 360 -10 285 -10 c 128,-1,0
 210 -10 210 -10 155 23.5 c 128,-1,1
379 132.5 m 128,-1,16
 409 183 409 183 409 260 c 128,-1,17
 409 337 409 337 378.5 386 c 128,-1,18
 348 435 348 435 286 435 c 0,19,20
 222 435 222 435 191.5 386 c 128,-1,21
 161 337 161 337 161 260 c 128,-1,22
 161 183 161 183 192 132.5 c 128,-1,23
 223 82 223 82 286 82 c 128,-1,15
 349 82 349 82 379 132.5 c 128,-1,16
253 605 m 1,24,-1
 143 605 l 1,25,-1
 143 723 l 1,26,-1
 253 723 l 1,27,-1
 253 605 l 1,24,-1
429 605 m 1,28,-1
 318 605 l 1,29,-1
 318 723 l 1,30,-1
 429 723 l 1,31,-1
 429 605 l 1,28,-1
EndSplineSet
EndChar

StartChar: divide
Encoding: 247 247 184
Width: 571
GlyphClass: 2
Flags: W
LayerCount: 2
Fore
SplineSet
352 486 m 1,0,-1
 216 486 l 1,1,-1
 216 617 l 1,2,-1
 352 617 l 1,3,-1
 352 486 l 1,0,-1
510 318 m 1,4,-1
 56 318 l 1,5,-1
 56 409 l 1,6,-1
 510 409 l 1,7,-1
 510 318 l 1,4,-1
352 111 m 1,8,-1
 216 111 l 1,9,-1
 216 242 l 1,10,-1
 352 242 l 1,11,-1
 352 111 l 1,8,-1
EndSplineSet
EndChar

StartChar: oslash
Encoding: 248 248 185
Width: 588
GlyphClass: 2
Flags: W
AnchorPoint: "Anchor-5" 0 0 basechar 0
AnchorPoint: "Anchor-4" 289 0 basechar 0
AnchorPoint: "Anchor-3" 292 517 basechar 0
AnchorPoint: "Anchor-2" 361 10 basechar 0
LayerCount: 2
Fore
SplineSet
497 411 m 1,0,1
 534 345 534 345 534 256 c 0,2,3
 534 178 534 178 505 117.5 c 128,-1,4
 476 57 476 57 421 23.5 c 128,-1,5
 366 -10 366 -10 291 -10 c 0,6,7
 188 -10 188 -10 122 53 c 1,8,-1
 60 -7 l 1,9,-1
 17 39 l 1,10,-1
 84 103 l 1,11,12
 47 168 47 168 47 255 c 0,13,14
 47 335 47 335 77 396.5 c 128,-1,15
 107 458 107 458 163 492.5 c 128,-1,16
 219 527 219 527 292 527 c 0,17,18
 394 527 394 527 459 462 c 1,19,-1
 522 522 l 1,20,-1
 565 476 l 1,21,-1
 497 411 l 1,0,1
175 190 m 1,22,-1
 383 389 l 1,23,24
 350 435 350 435 292 435 c 0,25,26
 228 435 228 435 197.5 386 c 128,-1,27
 167 337 167 337 167 260 c 0,28,29
 167 219 167 219 175 190 c 1,22,-1
408 326 m 1,30,-1
 201 128 l 1,31,32
 234 82 234 82 292 82 c 0,33,34
 355 82 355 82 385 132.5 c 128,-1,35
 415 183 415 183 415 260 c 0,36,37
 415 298 415 298 408 326 c 1,30,-1
EndSplineSet
EndChar

StartChar: ugrave
Encoding: 249 249 186
Width: 600
GlyphClass: 2
Flags: W
AnchorPoint: "Anchor-5" 0 0 basechar 0
AnchorPoint: "Anchor-4" 299 0 basechar 0
AnchorPoint: "Anchor-3" 294 517 basechar 0
AnchorPoint: "Anchor-2" 507 10 basechar 0
LayerCount: 2
Fore
SplineSet
174.5 9.5 m 128,-1,1
 130 28 130 28 101 67 c 128,-1,2
 72 106 72 106 72 163 c 2,3,-1
 72 518 l 1,4,-1
 194 518 l 1,5,-1
 194 177 l 2,6,7
 194 129 194 129 224.5 105 c 128,-1,8
 255 81 255 81 297 81 c 0,9,10
 343 81 343 81 373.5 107.5 c 128,-1,11
 404 134 404 134 405 181 c 2,12,-1
 405 518 l 1,13,-1
 528 518 l 1,14,-1
 526 0 l 1,15,-1
 432 0 l 1,16,-1
 425 76 l 1,17,18
 406 39 406 39 359 14.5 c 128,-1,19
 312 -10 312 -10 265 -10 c 0,20,0
 219 -9 219 -9 174.5 9.5 c 128,-1,1
424 633 m 1,21,-1
 405 578 l 1,22,-1
 146 649 l 1,23,-1
 175 733 l 1,24,-1
 424 633 l 1,21,-1
EndSplineSet
EndChar

StartChar: uacute
Encoding: 250 250 187
Width: 600
GlyphClass: 2
Flags: W
AnchorPoint: "Anchor-5" 0 0 basechar 0
AnchorPoint: "Anchor-4" 299 0 basechar 0
AnchorPoint: "Anchor-3" 294 517 basechar 0
AnchorPoint: "Anchor-2" 507 10 basechar 0
LayerCount: 2
Fore
SplineSet
174.5 9.5 m 128,-1,1
 130 28 130 28 101 67 c 128,-1,2
 72 106 72 106 72 163 c 2,3,-1
 72 518 l 1,4,-1
 194 518 l 1,5,-1
 194 177 l 2,6,7
 194 129 194 129 224.5 105 c 128,-1,8
 255 81 255 81 297 81 c 0,9,10
 343 81 343 81 373.5 107.5 c 128,-1,11
 404 134 404 134 405 181 c 2,12,-1
 405 518 l 1,13,-1
 528 518 l 1,14,-1
 526 0 l 1,15,-1
 432 0 l 1,16,-1
 425 76 l 1,17,18
 406 39 406 39 359 14.5 c 128,-1,19
 312 -10 312 -10 265 -10 c 0,20,0
 219 -9 219 -9 174.5 9.5 c 128,-1,1
433 649 m 1,21,-1
 174 578 l 1,22,-1
 156 633 l 1,23,-1
 405 733 l 1,24,-1
 433 649 l 1,21,-1
EndSplineSet
EndChar

StartChar: ucircumflex
Encoding: 251 251 188
Width: 600
GlyphClass: 2
Flags: W
AnchorPoint: "Anchor-5" 0 0 basechar 0
AnchorPoint: "Anchor-4" 299 0 basechar 0
AnchorPoint: "Anchor-3" 294 517 basechar 0
AnchorPoint: "Anchor-2" 507 10 basechar 0
LayerCount: 2
Fore
SplineSet
174.5 9.5 m 128,-1,1
 130 28 130 28 101 67 c 128,-1,2
 72 106 72 106 72 163 c 2,3,-1
 72 518 l 1,4,-1
 194 518 l 1,5,-1
 194 177 l 2,6,7
 194 129 194 129 224.5 105 c 128,-1,8
 255 81 255 81 297 81 c 0,9,10
 343 81 343 81 373.5 107.5 c 128,-1,11
 404 134 404 134 405 181 c 2,12,-1
 405 518 l 1,13,-1
 528 518 l 1,14,-1
 526 0 l 1,15,-1
 432 0 l 1,16,-1
 425 76 l 1,17,18
 406 39 406 39 359 14.5 c 128,-1,19
 312 -10 312 -10 265 -10 c 0,20,0
 219 -9 219 -9 174.5 9.5 c 128,-1,1
294 674 m 1,21,-1
 220 603 l 1,22,-1
 123 603 l 1,23,-1
 252 728 l 1,24,-1
 337 728 l 1,25,-1
 463 603 l 1,26,-1
 361 603 l 1,27,-1
 294 674 l 1,21,-1
EndSplineSet
EndChar

StartChar: udieresis
Encoding: 252 252 189
Width: 600
GlyphClass: 2
Flags: W
AnchorPoint: "Anchor-5" 0 0 basechar 0
AnchorPoint: "Anchor-4" 299 0 basechar 0
AnchorPoint: "Anchor-3" 294 517 basechar 0
AnchorPoint: "Anchor-2" 507 10 basechar 0
LayerCount: 2
Fore
SplineSet
174.5 9.5 m 128,-1,1
 130 28 130 28 101 67 c 128,-1,2
 72 106 72 106 72 163 c 2,3,-1
 72 518 l 1,4,-1
 194 518 l 1,5,-1
 194 177 l 2,6,7
 194 129 194 129 224.5 105 c 128,-1,8
 255 81 255 81 297 81 c 0,9,10
 343 81 343 81 373.5 107.5 c 128,-1,11
 404 134 404 134 405 181 c 2,12,-1
 405 518 l 1,13,-1
 528 518 l 1,14,-1
 526 0 l 1,15,-1
 432 0 l 1,16,-1
 425 76 l 1,17,18
 406 39 406 39 359 14.5 c 128,-1,19
 312 -10 312 -10 265 -10 c 0,20,0
 219 -9 219 -9 174.5 9.5 c 128,-1,1
261 605 m 1,21,-1
 151 605 l 1,22,-1
 151 723 l 1,23,-1
 261 723 l 1,24,-1
 261 605 l 1,21,-1
437 605 m 1,25,-1
 326 605 l 1,26,-1
 326 723 l 1,27,-1
 437 723 l 1,28,-1
 437 605 l 1,25,-1
EndSplineSet
EndChar

StartChar: yacute
Encoding: 253 253 190
Width: 551
GlyphClass: 2
Flags: W
AnchorPoint: "Anchor-5" 0 0 basechar 0
AnchorPoint: "Anchor-4" 0 0 basechar 0
AnchorPoint: "Anchor-3" 289 517 basechar 0
AnchorPoint: "Anchor-2" 0 0 basechar 0
LayerCount: 2
Fore
SplineSet
88 -161.5 m 128,-1,1
 68 -158 68 -158 59 -154.5 c 128,-1,2
 50 -151 50 -151 48 -150 c 2,3,-1
 48 -72 l 1,4,-1
 100 -73 l 2,5,6
 155 -76 155 -76 176 -60 c 128,-1,7
 197 -44 197 -44 207 -20 c 2,8,-1
 220 17 l 1,9,-1
 19 517 l 1,10,-1
 140 517 l 1,11,-1
 277 152 l 1,12,-1
 414 517 l 1,13,-1
 533 517 l 1,14,-1
 320 -19 l 2,15,16
 286 -102 286 -102 242.5 -133.5 c 128,-1,17
 199 -165 199 -165 137 -165 c 0,18,0
 108 -165 108 -165 88 -161.5 c 128,-1,1
428 649 m 1,19,-1
 169 578 l 1,20,-1
 151 633 l 1,21,-1
 400 733 l 1,22,-1
 428 649 l 1,19,-1
EndSplineSet
EndChar

StartChar: thorn
Encoding: 254 254 191
Width: 600
GlyphClass: 2
Flags: W
LayerCount: 2
Fore
SplineSet
193 449 m 1,0,1
 226 485 226 485 261 506 c 128,-1,2
 296 527 296 527 353 527 c 0,3,4
 412 527 412 527 458.5 497.5 c 128,-1,5
 505 468 505 468 532 409 c 128,-1,6
 559 350 559 350 559 264 c 0,7,8
 559 131 559 131 500 60.5 c 128,-1,9
 441 -10 441 -10 344 -10 c 0,10,11
 266 -10 266 -10 211 40 c 0,12,13
 203 47 203 47 198 47 c 0,14,15
 194 47 194 47 194 34 c 2,16,-1
 194 -161 l 1,17,-1
 72 -161 l 1,18,-1
 72 723 l 1,19,-1
 193 723 l 1,20,-1
 193 449 l 1,0,1
303 70 m 0,21,22
 365 70 365 70 400 118 c 128,-1,23
 435 166 435 166 435 265 c 0,24,25
 435 360 435 360 400 403.5 c 128,-1,26
 365 447 365 447 306 447 c 0,27,28
 275 447 275 447 249 433 c 128,-1,29
 223 419 223 419 208.5 397.5 c 128,-1,30
 194 376 194 376 194 354 c 2,31,-1
 194 125 l 1,32,33
 244 70 244 70 303 70 c 0,21,22
EndSplineSet
EndChar

StartChar: ydieresis
Encoding: 255 255 192
Width: 551
GlyphClass: 2
Flags: W
AnchorPoint: "Anchor-5" 0 0 basechar 0
AnchorPoint: "Anchor-4" 0 0 basechar 0
AnchorPoint: "Anchor-3" 289 517 basechar 0
AnchorPoint: "Anchor-2" 0 0 basechar 0
LayerCount: 2
Fore
SplineSet
88 -161.5 m 128,-1,1
 68 -158 68 -158 59 -154.5 c 128,-1,2
 50 -151 50 -151 48 -150 c 2,3,-1
 48 -72 l 1,4,-1
 100 -73 l 2,5,6
 155 -76 155 -76 176 -60 c 128,-1,7
 197 -44 197 -44 207 -20 c 2,8,-1
 220 17 l 1,9,-1
 19 517 l 1,10,-1
 140 517 l 1,11,-1
 277 152 l 1,12,-1
 414 517 l 1,13,-1
 533 517 l 1,14,-1
 320 -19 l 2,15,16
 286 -102 286 -102 242.5 -133.5 c 128,-1,17
 199 -165 199 -165 137 -165 c 0,18,0
 108 -165 108 -165 88 -161.5 c 128,-1,1
256 605 m 1,19,-1
 146 605 l 1,20,-1
 146 723 l 1,21,-1
 256 723 l 1,22,-1
 256 605 l 1,19,-1
432 605 m 1,23,-1
 321 605 l 1,24,-1
 321 723 l 1,25,-1
 432 723 l 1,26,-1
 432 605 l 1,23,-1
EndSplineSet
EndChar

StartChar: Amacron
Encoding: 256 256 193
Width: 705
GlyphClass: 2
Flags: W
AnchorPoint: "Anchor-5" 0 0 basechar 0
AnchorPoint: "Anchor-4" 0 0 basechar 0
AnchorPoint: "Anchor-3" 361 723 basechar 0
AnchorPoint: "Anchor-2" 675 10 basechar 0
LayerCount: 2
Fore
SplineSet
287 723 m 1,0,-1
 419 723 l 1,1,-1
 679 0 l 1,2,-1
 556 0 l 1,3,-1
 492 181 l 1,4,-1
 216 181 l 1,5,-1
 150 0 l 1,6,-1
 27 0 l 1,7,-1
 287 723 l 1,0,-1
462 290 m 1,8,-1
 354 605 l 1,9,-1
 244 290 l 1,10,-1
 462 290 l 1,8,-1
524 840 m 1,11,-1
 197 840 l 1,12,-1
 197 920 l 1,13,-1
 524 920 l 1,14,-1
 524 840 l 1,11,-1
EndSplineSet
EndChar

StartChar: amacron
Encoding: 257 257 194
Width: 567
GlyphClass: 2
Flags: W
AnchorPoint: "Anchor-5" 0 0 basechar 0
AnchorPoint: "Anchor-4" 0 0 basechar 0
AnchorPoint: "Anchor-3" 283 517 basechar 0
AnchorPoint: "Anchor-2" 477 12 basechar 0
LayerCount: 2
Fore
SplineSet
89 31 m 128,-1,1
 41 72 41 72 41 144 c 0,2,3
 41 229 41 229 103 270.5 c 128,-1,4
 165 312 165 312 300 317 c 2,5,-1
 378 322 l 1,6,-1
 378 354 l 2,7,8
 378 395 378 395 352.5 418.5 c 128,-1,9
 327 442 327 442 282 442 c 0,10,11
 245 442 245 442 212 425 c 128,-1,12
 179 408 179 408 158 373 c 1,13,-1
 58 383 l 1,14,15
 75 453 75 453 136 490 c 128,-1,16
 197 527 197 527 285 527 c 0,17,18
 392 527 392 527 443.5 483.5 c 128,-1,19
 495 440 495 440 495 362 c 2,20,-1
 495 0 l 1,21,-1
 392 0 l 1,22,-1
 383 69 l 1,23,24
 355 32 355 32 311.5 11 c 128,-1,25
 268 -10 268 -10 214 -10 c 0,26,0
 137 -10 137 -10 89 31 c 128,-1,1
312 87 m 128,-1,28
 341 101 341 101 359.5 124 c 128,-1,29
 378 147 378 147 378 171 c 2,30,-1
 378 254 l 1,31,-1
 314 250 l 2,32,33
 236 245 236 245 197 225 c 128,-1,34
 158 205 158 205 158 156 c 0,35,36
 158 118 158 118 184.5 95.5 c 128,-1,37
 211 73 211 73 253 73 c 0,38,27
 283 73 283 73 312 87 c 128,-1,28
446 634 m 1,39,-1
 119 634 l 1,40,-1
 119 714 l 1,41,-1
 446 714 l 1,42,-1
 446 634 l 1,39,-1
EndSplineSet
EndChar

StartChar: Abreve
Encoding: 258 258 195
Width: 705
GlyphClass: 2
Flags: W
AnchorPoint: "Anchor-5" 0 0 basechar 0
AnchorPoint: "Anchor-4" 0 0 basechar 0
AnchorPoint: "Anchor-3" 361 723 basechar 0
AnchorPoint: "Anchor-2" 675 10 basechar 0
LayerCount: 2
Fore
SplineSet
287 723 m 1,0,-1
 419 723 l 1,1,-1
 679 0 l 1,2,-1
 556 0 l 1,3,-1
 492 181 l 1,4,-1
 216 181 l 1,5,-1
 150 0 l 1,6,-1
 27 0 l 1,7,-1
 287 723 l 1,0,-1
462 290 m 1,8,-1
 354 605 l 1,9,-1
 244 290 l 1,10,-1
 462 290 l 1,8,-1
467 843 m 128,-1,12
 423 810 423 810 362 810 c 0,13,14
 300 810 300 810 256 842.5 c 128,-1,15
 212 875 212 875 198 929 c 1,16,-1
 276 929 l 1,17,18
 289 906 289 906 310 890.5 c 128,-1,19
 331 875 331 875 362 875 c 0,20,21
 389 875 389 875 412 891 c 128,-1,22
 435 907 435 907 447 929 c 1,23,-1
 527 929 l 1,24,11
 511 876 511 876 467 843 c 128,-1,12
EndSplineSet
EndChar

StartChar: abreve
Encoding: 259 259 196
Width: 567
GlyphClass: 2
Flags: W
AnchorPoint: "Anchor-5" 0 0 basechar 0
AnchorPoint: "Anchor-4" 0 0 basechar 0
AnchorPoint: "Anchor-3" 283 517 basechar 0
AnchorPoint: "Anchor-2" 477 12 basechar 0
LayerCount: 2
Fore
SplineSet
89 31 m 128,-1,1
 41 72 41 72 41 144 c 0,2,3
 41 229 41 229 103 270.5 c 128,-1,4
 165 312 165 312 300 317 c 2,5,-1
 378 322 l 1,6,-1
 378 354 l 2,7,8
 378 395 378 395 352.5 418.5 c 128,-1,9
 327 442 327 442 282 442 c 0,10,11
 245 442 245 442 212 425 c 128,-1,12
 179 408 179 408 158 373 c 1,13,-1
 58 383 l 1,14,15
 75 453 75 453 136 490 c 128,-1,16
 197 527 197 527 285 527 c 0,17,18
 392 527 392 527 443.5 483.5 c 128,-1,19
 495 440 495 440 495 362 c 2,20,-1
 495 0 l 1,21,-1
 392 0 l 1,22,-1
 383 69 l 1,23,24
 355 32 355 32 311.5 11 c 128,-1,25
 268 -10 268 -10 214 -10 c 0,26,0
 137 -10 137 -10 89 31 c 128,-1,1
312 87 m 128,-1,28
 341 101 341 101 359.5 124 c 128,-1,29
 378 147 378 147 378 171 c 2,30,-1
 378 254 l 1,31,-1
 314 250 l 2,32,33
 236 245 236 245 197 225 c 128,-1,34
 158 205 158 205 158 156 c 0,35,36
 158 118 158 118 184.5 95.5 c 128,-1,37
 211 73 211 73 253 73 c 0,38,27
 283 73 283 73 312 87 c 128,-1,28
389 637 m 128,-1,40
 345 604 345 604 284 604 c 0,41,42
 222 604 222 604 178 636.5 c 128,-1,43
 134 669 134 669 120 723 c 1,44,-1
 198 723 l 1,45,46
 211 700 211 700 232 684.5 c 128,-1,47
 253 669 253 669 284 669 c 0,48,49
 311 669 311 669 334 685 c 128,-1,50
 357 701 357 701 369 723 c 1,51,-1
 449 723 l 1,52,39
 433 670 433 670 389 637 c 128,-1,40
EndSplineSet
EndChar

StartChar: Aogonek
Encoding: 260 260 197
Width: 705
GlyphClass: 2
Flags: W
AnchorPoint: "Anchor-5" 0 0 basechar 0
AnchorPoint: "Anchor-4" 0 0 basechar 0
AnchorPoint: "Anchor-3" 361 723 basechar 0
AnchorPoint: "Anchor-2" 675 10 basechar 0
LayerCount: 2
Fore
SplineSet
287 723 m 1,0,-1
 419 723 l 1,1,-1
 679 0 l 1,2,-1
 556 0 l 1,3,-1
 492 181 l 1,4,-1
 216 181 l 1,5,-1
 150 0 l 1,6,-1
 27 0 l 1,7,-1
 287 723 l 1,0,-1
462 290 m 1,8,-1
 354 605 l 1,9,-1
 244 290 l 1,10,-1
 462 290 l 1,8,-1
525.5 -34 m 128,-1,12
 547 -11 547 -11 603 7 c 1,13,-1
 689 3 l 1,14,15
 637 -17 637 -17 616 -34.5 c 128,-1,16
 595 -52 595 -52 595 -74 c 0,17,18
 595 -91 595 -91 604.5 -99.5 c 128,-1,19
 614 -108 614 -108 636 -108 c 0,20,21
 669 -108 669 -108 695 -94 c 0,22,23
 698 -92 698 -92 703 -92 c 128,-1,24
 708 -92 708 -92 708 -101 c 2,25,-1
 708 -137 l 2,26,27
 708 -146 708 -146 700 -150 c 0,28,29
 687 -157 687 -157 661.5 -162.5 c 128,-1,30
 636 -168 636 -168 608 -168 c 0,31,32
 558 -168 558 -168 531 -147 c 128,-1,33
 504 -126 504 -126 504 -87 c 0,34,11
 504 -57 504 -57 525.5 -34 c 128,-1,12
EndSplineSet
EndChar

StartChar: aogonek
Encoding: 261 261 198
Width: 567
GlyphClass: 2
Flags: W
AnchorPoint: "Anchor-5" 0 0 basechar 0
AnchorPoint: "Anchor-4" 0 0 basechar 0
AnchorPoint: "Anchor-3" 283 517 basechar 0
AnchorPoint: "Anchor-2" 477 12 basechar 0
LayerCount: 2
Fore
SplineSet
89 31 m 128,-1,1
 41 72 41 72 41 144 c 0,2,3
 41 229 41 229 103 270.5 c 128,-1,4
 165 312 165 312 300 317 c 2,5,-1
 378 322 l 1,6,-1
 378 354 l 2,7,8
 378 395 378 395 352.5 418.5 c 128,-1,9
 327 442 327 442 282 442 c 0,10,11
 245 442 245 442 212 425 c 128,-1,12
 179 408 179 408 158 373 c 1,13,-1
 58 383 l 1,14,15
 75 453 75 453 136 490 c 128,-1,16
 197 527 197 527 285 527 c 0,17,18
 392 527 392 527 443.5 483.5 c 128,-1,19
 495 440 495 440 495 362 c 2,20,-1
 495 0 l 1,21,-1
 392 0 l 1,22,-1
 383 69 l 1,23,24
 355 32 355 32 311.5 11 c 128,-1,25
 268 -10 268 -10 214 -10 c 0,26,0
 137 -10 137 -10 89 31 c 128,-1,1
312 87 m 128,-1,28
 341 101 341 101 359.5 124 c 128,-1,29
 378 147 378 147 378 171 c 2,30,-1
 378 254 l 1,31,-1
 314 250 l 2,32,33
 236 245 236 245 197 225 c 128,-1,34
 158 205 158 205 158 156 c 0,35,36
 158 118 158 118 184.5 95.5 c 128,-1,37
 211 73 211 73 253 73 c 0,38,27
 283 73 283 73 312 87 c 128,-1,28
327.5 -32 m 128,-1,40
 349 -9 349 -9 405 9 c 1,41,-1
 491 5 l 1,42,43
 439 -15 439 -15 418 -32.5 c 128,-1,44
 397 -50 397 -50 397 -72 c 0,45,46
 397 -89 397 -89 406.5 -97.5 c 128,-1,47
 416 -106 416 -106 438 -106 c 0,48,49
 471 -106 471 -106 497 -92 c 0,50,51
 500 -90 500 -90 505 -90 c 128,-1,52
 510 -90 510 -90 510 -99 c 2,53,-1
 510 -135 l 2,54,55
 510 -144 510 -144 502 -148 c 0,56,57
 489 -155 489 -155 463.5 -160.5 c 128,-1,58
 438 -166 438 -166 410 -166 c 0,59,60
 360 -166 360 -166 333 -145 c 128,-1,61
 306 -124 306 -124 306 -85 c 0,62,39
 306 -55 306 -55 327.5 -32 c 128,-1,40
EndSplineSet
EndChar

StartChar: Cacute
Encoding: 262 262 199
Width: 698
GlyphClass: 2
Flags: W
AnchorPoint: "Anchor-5" 0 0 basechar 0
AnchorPoint: "Anchor-4" 367 0 basechar 0
AnchorPoint: "Anchor-3" 367 723 basechar 0
AnchorPoint: "Anchor-2" 0 0 basechar 0
LayerCount: 2
Fore
SplineSet
504.5 702.5 m 128,-1,1
 567 672 567 672 605 619 c 128,-1,2
 643 566 643 566 651 500 c 1,3,-1
 523 497 l 1,4,5
 511 559 511 559 469.5 595 c 128,-1,6
 428 631 428 631 360 631 c 0,7,8
 181 631 181 631 181 364 c 0,9,10
 181 228 181 228 227.5 160 c 128,-1,11
 274 92 274 92 364 92 c 0,12,13
 424 92 424 92 466.5 130 c 128,-1,14
 509 168 509 168 521 230 c 1,15,-1
 649 225 l 1,16,17
 636 121 636 121 565 55.5 c 128,-1,18
 494 -10 494 -10 367 -10 c 0,19,20
 269 -10 269 -10 196.5 36 c 128,-1,21
 124 82 124 82 85.5 167 c 128,-1,22
 47 252 47 252 47 365 c 128,-1,23
 47 478 47 478 85 561 c 128,-1,24
 123 644 123 644 194 688.5 c 128,-1,25
 265 733 265 733 363 733 c 0,26,0
 442 733 442 733 504.5 702.5 c 128,-1,1
506 855 m 1,27,-1
 247 784 l 1,28,-1
 229 839 l 1,29,-1
 478 939 l 1,30,-1
 506 855 l 1,27,-1
EndSplineSet
EndChar

StartChar: cacute
Encoding: 263 263 200
Width: 536
GlyphClass: 2
Flags: W
AnchorPoint: "Anchor-5" 0 0 basechar 0
AnchorPoint: "Anchor-4" 284 0 basechar 0
AnchorPoint: "Anchor-3" 284 517 basechar 0
AnchorPoint: "Anchor-2" 0 0 basechar 0
LayerCount: 2
Fore
SplineSet
421 480 m 128,-1,1
 473 433 473 433 492 357 c 1,2,-1
 393 347 l 1,3,4
 367 392 367 392 345.5 412.5 c 128,-1,5
 324 433 324 433 287 433 c 0,6,7
 226 433 226 433 190.5 386 c 128,-1,8
 155 339 155 339 155 258 c 0,9,10
 155 176 155 176 191.5 127.5 c 128,-1,11
 228 79 228 79 289 79 c 0,12,13
 329 79 329 79 353.5 102.5 c 128,-1,14
 378 126 378 126 398 168 c 1,15,-1
 494 158 l 1,16,17
 477 83 477 83 422.5 36.5 c 128,-1,18
 368 -10 368 -10 285 -10 c 0,19,20
 213 -10 213 -10 157.5 23.5 c 128,-1,21
 102 57 102 57 71.5 117.5 c 128,-1,22
 41 178 41 178 41 256 c 0,23,24
 41 335 41 335 71.5 396.5 c 128,-1,25
 102 458 102 458 157.5 492.5 c 128,-1,26
 213 527 213 527 285 527 c 0,27,0
 369 527 369 527 421 480 c 128,-1,1
423 649 m 1,28,-1
 164 578 l 1,29,-1
 146 633 l 1,30,-1
 395 733 l 1,31,-1
 423 649 l 1,28,-1
EndSplineSet
EndChar

StartChar: Ccircumflex
Encoding: 264 264 201
Width: 698
GlyphClass: 2
Flags: W
AnchorPoint: "Anchor-5" 0 0 basechar 0
AnchorPoint: "Anchor-4" 367 0 basechar 0
AnchorPoint: "Anchor-3" 367 723 basechar 0
AnchorPoint: "Anchor-2" 0 0 basechar 0
LayerCount: 2
Fore
SplineSet
504.5 702.5 m 128,-1,1
 567 672 567 672 605 619 c 128,-1,2
 643 566 643 566 651 500 c 1,3,-1
 523 497 l 1,4,5
 511 559 511 559 469.5 595 c 128,-1,6
 428 631 428 631 360 631 c 0,7,8
 181 631 181 631 181 364 c 0,9,10
 181 228 181 228 227.5 160 c 128,-1,11
 274 92 274 92 364 92 c 0,12,13
 424 92 424 92 466.5 130 c 128,-1,14
 509 168 509 168 521 230 c 1,15,-1
 649 225 l 1,16,17
 636 121 636 121 565 55.5 c 128,-1,18
 494 -10 494 -10 367 -10 c 0,19,20
 269 -10 269 -10 196.5 36 c 128,-1,21
 124 82 124 82 85.5 167 c 128,-1,22
 47 252 47 252 47 365 c 128,-1,23
 47 478 47 478 85 561 c 128,-1,24
 123 644 123 644 194 688.5 c 128,-1,25
 265 733 265 733 363 733 c 0,26,0
 442 733 442 733 504.5 702.5 c 128,-1,1
367 880 m 1,27,-1
 293 809 l 1,28,-1
 196 809 l 1,29,-1
 325 934 l 1,30,-1
 410 934 l 1,31,-1
 536 809 l 1,32,-1
 434 809 l 1,33,-1
 367 880 l 1,27,-1
EndSplineSet
EndChar

StartChar: ccircumflex
Encoding: 265 265 202
Width: 536
GlyphClass: 2
Flags: W
AnchorPoint: "Anchor-5" 0 0 basechar 0
AnchorPoint: "Anchor-4" 284 0 basechar 0
AnchorPoint: "Anchor-3" 284 517 basechar 0
AnchorPoint: "Anchor-2" 0 0 basechar 0
LayerCount: 2
Fore
SplineSet
421 480 m 128,-1,1
 473 433 473 433 492 357 c 1,2,-1
 393 347 l 1,3,4
 367 392 367 392 345.5 412.5 c 128,-1,5
 324 433 324 433 287 433 c 0,6,7
 226 433 226 433 190.5 386 c 128,-1,8
 155 339 155 339 155 258 c 0,9,10
 155 176 155 176 191.5 127.5 c 128,-1,11
 228 79 228 79 289 79 c 0,12,13
 329 79 329 79 353.5 102.5 c 128,-1,14
 378 126 378 126 398 168 c 1,15,-1
 494 158 l 1,16,17
 477 83 477 83 422.5 36.5 c 128,-1,18
 368 -10 368 -10 285 -10 c 0,19,20
 213 -10 213 -10 157.5 23.5 c 128,-1,21
 102 57 102 57 71.5 117.5 c 128,-1,22
 41 178 41 178 41 256 c 0,23,24
 41 335 41 335 71.5 396.5 c 128,-1,25
 102 458 102 458 157.5 492.5 c 128,-1,26
 213 527 213 527 285 527 c 0,27,0
 369 527 369 527 421 480 c 128,-1,1
284 674 m 1,28,-1
 210 603 l 1,29,-1
 113 603 l 1,30,-1
 242 728 l 1,31,-1
 327 728 l 1,32,-1
 453 603 l 1,33,-1
 351 603 l 1,34,-1
 284 674 l 1,28,-1
EndSplineSet
EndChar

StartChar: Cdotaccent
Encoding: 266 266 203
Width: 698
GlyphClass: 2
Flags: W
AnchorPoint: "Anchor-5" 0 0 basechar 0
AnchorPoint: "Anchor-4" 367 0 basechar 0
AnchorPoint: "Anchor-3" 367 723 basechar 0
AnchorPoint: "Anchor-2" 0 0 basechar 0
LayerCount: 2
Fore
SplineSet
504.5 702.5 m 128,-1,1
 567 672 567 672 605 619 c 128,-1,2
 643 566 643 566 651 500 c 1,3,-1
 523 497 l 1,4,5
 511 559 511 559 469.5 595 c 128,-1,6
 428 631 428 631 360 631 c 0,7,8
 181 631 181 631 181 364 c 0,9,10
 181 228 181 228 227.5 160 c 128,-1,11
 274 92 274 92 364 92 c 0,12,13
 424 92 424 92 466.5 130 c 128,-1,14
 509 168 509 168 521 230 c 1,15,-1
 649 225 l 1,16,17
 636 121 636 121 565 55.5 c 128,-1,18
 494 -10 494 -10 367 -10 c 0,19,20
 269 -10 269 -10 196.5 36 c 128,-1,21
 124 82 124 82 85.5 167 c 128,-1,22
 47 252 47 252 47 365 c 128,-1,23
 47 478 47 478 85 561 c 128,-1,24
 123 644 123 644 194 688.5 c 128,-1,25
 265 733 265 733 363 733 c 0,26,0
 442 733 442 733 504.5 702.5 c 128,-1,1
431 798 m 1,27,-1
 305 798 l 1,28,-1
 305 929 l 1,29,-1
 431 929 l 1,30,-1
 431 798 l 1,27,-1
EndSplineSet
EndChar

StartChar: cdotaccent
Encoding: 267 267 204
Width: 536
GlyphClass: 2
Flags: W
AnchorPoint: "Anchor-5" 0 0 basechar 0
AnchorPoint: "Anchor-4" 284 0 basechar 0
AnchorPoint: "Anchor-3" 284 517 basechar 0
AnchorPoint: "Anchor-2" 0 0 basechar 0
LayerCount: 2
Fore
SplineSet
421 480 m 128,-1,1
 473 433 473 433 492 357 c 1,2,-1
 393 347 l 1,3,4
 367 392 367 392 345.5 412.5 c 128,-1,5
 324 433 324 433 287 433 c 0,6,7
 226 433 226 433 190.5 386 c 128,-1,8
 155 339 155 339 155 258 c 0,9,10
 155 176 155 176 191.5 127.5 c 128,-1,11
 228 79 228 79 289 79 c 0,12,13
 329 79 329 79 353.5 102.5 c 128,-1,14
 378 126 378 126 398 168 c 1,15,-1
 494 158 l 1,16,17
 477 83 477 83 422.5 36.5 c 128,-1,18
 368 -10 368 -10 285 -10 c 0,19,20
 213 -10 213 -10 157.5 23.5 c 128,-1,21
 102 57 102 57 71.5 117.5 c 128,-1,22
 41 178 41 178 41 256 c 0,23,24
 41 335 41 335 71.5 396.5 c 128,-1,25
 102 458 102 458 157.5 492.5 c 128,-1,26
 213 527 213 527 285 527 c 0,27,0
 369 527 369 527 421 480 c 128,-1,1
348 592 m 1,28,-1
 222 592 l 1,29,-1
 222 723 l 1,30,-1
 348 723 l 1,31,-1
 348 592 l 1,28,-1
EndSplineSet
EndChar

StartChar: Ccaron
Encoding: 268 268 205
Width: 698
GlyphClass: 2
Flags: W
AnchorPoint: "Anchor-5" 0 0 basechar 0
AnchorPoint: "Anchor-4" 367 0 basechar 0
AnchorPoint: "Anchor-3" 367 723 basechar 0
AnchorPoint: "Anchor-2" 0 0 basechar 0
LayerCount: 2
Fore
SplineSet
504.5 702.5 m 128,-1,1
 567 672 567 672 605 619 c 128,-1,2
 643 566 643 566 651 500 c 1,3,-1
 523 497 l 1,4,5
 511 559 511 559 469.5 595 c 128,-1,6
 428 631 428 631 360 631 c 0,7,8
 181 631 181 631 181 364 c 0,9,10
 181 228 181 228 227.5 160 c 128,-1,11
 274 92 274 92 364 92 c 0,12,13
 424 92 424 92 466.5 130 c 128,-1,14
 509 168 509 168 521 230 c 1,15,-1
 649 225 l 1,16,17
 636 121 636 121 565 55.5 c 128,-1,18
 494 -10 494 -10 367 -10 c 0,19,20
 269 -10 269 -10 196.5 36 c 128,-1,21
 124 82 124 82 85.5 167 c 128,-1,22
 47 252 47 252 47 365 c 128,-1,23
 47 478 47 478 85 561 c 128,-1,24
 123 644 123 644 194 688.5 c 128,-1,25
 265 733 265 733 363 733 c 0,26,0
 442 733 442 733 504.5 702.5 c 128,-1,1
536 930 m 1,27,-1
 410 803 l 1,28,-1
 325 803 l 1,29,-1
 196 930 l 1,30,-1
 293 930 l 1,31,-1
 367 858 l 1,32,-1
 434 930 l 1,33,-1
 536 930 l 1,27,-1
EndSplineSet
EndChar

StartChar: ccaron
Encoding: 269 269 206
Width: 536
GlyphClass: 2
Flags: W
AnchorPoint: "Anchor-5" 0 0 basechar 0
AnchorPoint: "Anchor-4" 284 0 basechar 0
AnchorPoint: "Anchor-3" 284 517 basechar 0
AnchorPoint: "Anchor-2" 0 0 basechar 0
LayerCount: 2
Fore
SplineSet
421 480 m 128,-1,1
 473 433 473 433 492 357 c 1,2,-1
 393 347 l 1,3,4
 367 392 367 392 345.5 412.5 c 128,-1,5
 324 433 324 433 287 433 c 0,6,7
 226 433 226 433 190.5 386 c 128,-1,8
 155 339 155 339 155 258 c 0,9,10
 155 176 155 176 191.5 127.5 c 128,-1,11
 228 79 228 79 289 79 c 0,12,13
 329 79 329 79 353.5 102.5 c 128,-1,14
 378 126 378 126 398 168 c 1,15,-1
 494 158 l 1,16,17
 477 83 477 83 422.5 36.5 c 128,-1,18
 368 -10 368 -10 285 -10 c 0,19,20
 213 -10 213 -10 157.5 23.5 c 128,-1,21
 102 57 102 57 71.5 117.5 c 128,-1,22
 41 178 41 178 41 256 c 0,23,24
 41 335 41 335 71.5 396.5 c 128,-1,25
 102 458 102 458 157.5 492.5 c 128,-1,26
 213 527 213 527 285 527 c 0,27,0
 369 527 369 527 421 480 c 128,-1,1
453 724 m 1,28,-1
 327 597 l 1,29,-1
 242 597 l 1,30,-1
 113 724 l 1,31,-1
 210 724 l 1,32,-1
 284 652 l 1,33,-1
 351 724 l 1,34,-1
 453 724 l 1,28,-1
EndSplineSet
EndChar

StartChar: Dcaron
Encoding: 270 270 207
Width: 702
GlyphClass: 2
Flags: W
AnchorPoint: "Anchor-5" 0 0 basechar 0
AnchorPoint: "Anchor-4" 0 0 basechar 0
AnchorPoint: "Anchor-3" 347 723 basechar 0
AnchorPoint: "Anchor-2" 0 0 basechar 0
LayerCount: 2
Fore
SplineSet
280 722 m 0,0,1
 473 718 473 718 564 627 c 128,-1,2
 655 536 655 536 655 365 c 0,3,4
 655 188 655 188 559.5 94 c 128,-1,5
 464 0 464 0 272 0 c 2,6,-1
 85 0 l 1,7,-1
 85 723 l 1,8,9
 218 723 218 723 280 722 c 0,0,1
209 101 m 1,10,-1
 274 101 l 2,11,12
 393 101 393 101 460 163.5 c 128,-1,13
 527 226 527 226 527 365 c 0,14,15
 527 501 527 501 463 562 c 128,-1,16
 399 623 399 623 277 623 c 2,17,-1
 209 623 l 1,18,-1
 209 101 l 1,10,-1
516 930 m 1,19,-1
 390 803 l 1,20,-1
 305 803 l 1,21,-1
 176 930 l 1,22,-1
 273 930 l 1,23,-1
 347 858 l 1,24,-1
 414 930 l 1,25,-1
 516 930 l 1,19,-1
EndSplineSet
EndChar

StartChar: dcaron
Encoding: 271 271 208
Width: 595
GlyphClass: 2
Flags: W
AnchorPoint: "Anchor-5" 588 614 basechar 0
AnchorPoint: "Anchor-4" 291 0 basechar 0
AnchorPoint: "Anchor-3" 0 0 basechar 0
AnchorPoint: "Anchor-2" 0 0 basechar 0
LayerCount: 2
Fore
SplineSet
98.5 60 m 128,-1,1
 41 130 41 130 41 256 c 0,2,3
 41 381 41 381 96.5 454 c 128,-1,4
 152 527 152 527 252 527 c 0,5,6
 344 527 344 527 401 460 c 1,7,-1
 401 743 l 1,8,-1
 523 743 l 1,9,-1
 523 0 l 1,10,-1
 433 0 l 1,11,-1
 425 72 l 1,12,13
 402 41 402 41 360 15.5 c 128,-1,14
 318 -10 318 -10 257 -10 c 0,15,0
 156 -10 156 -10 98.5 60 c 128,-1,1
367.5 116.5 m 128,-1,17
 401 153 401 153 401 205 c 2,18,-1
 401 345 l 1,19,20
 370 436 370 436 287 436 c 0,21,22
 229 436 229 436 194.5 392 c 128,-1,23
 160 348 160 348 160 259 c 0,24,25
 160 168 160 168 194 124 c 128,-1,26
 228 80 228 80 285 80 c 0,27,16
 334 80 334 80 367.5 116.5 c 128,-1,17
505.5 410.5 m 128,-1,29
 503 414 503 414 505 418 c 2,30,-1
 534 490 l 1,31,-1
 536 499 l 2,32,33
 536 504 536 504 529 505 c 2,34,-1
 521 507 l 2,35,36
 513 508 513 508 510.5 510 c 128,-1,37
 508 512 508 512 508 518 c 2,38,-1
 508 603 l 2,39,40
 508 614 508 614 517 614 c 2,41,-1
 588 614 l 2,42,43
 597 614 597 614 597 605 c 2,44,-1
 597 507 l 2,45,46
 597 504 597 504 596 502.5 c 128,-1,47
 595 501 595 501 595 500 c 2,48,-1
 560 418 l 2,49,50
 558 412 558 412 553 409.5 c 128,-1,51
 548 407 548 407 538 407 c 2,52,-1
 512 407 l 2,53,28
 508 407 508 407 505.5 410.5 c 128,-1,29
EndSplineSet
EndChar

StartChar: Dcroat
Encoding: 272 272 209
Width: 719
GlyphClass: 2
Flags: W
AnchorPoint: "Anchor-5" 0 0 basechar 0
AnchorPoint: "Anchor-4" 0 0 basechar 0
AnchorPoint: "Anchor-3" 364 723 basechar 0
AnchorPoint: "Anchor-2" 0 0 basechar 0
LayerCount: 2
Fore
SplineSet
581 627 m 128,-1,1
 672 536 672 536 672 365 c 0,2,3
 672 188 672 188 576.5 94 c 128,-1,4
 481 0 481 0 289 0 c 2,5,-1
 102 0 l 1,6,-1
 102 313 l 1,7,-1
 50 313 l 2,8,9
 40 313 40 313 36 317 c 128,-1,10
 32 321 32 321 32 331 c 2,11,-1
 32 389 l 2,12,13
 32 405 32 405 45 405 c 2,14,-1
 102 405 l 1,15,-1
 102 723 l 1,16,17
 235 723 235 723 297 722 c 0,18,0
 490 718 490 718 581 627 c 128,-1,1
477 163.5 m 128,-1,20
 544 226 544 226 544 365 c 0,21,22
 544 501 544 501 480 562 c 128,-1,23
 416 623 416 623 294 623 c 2,24,-1
 226 623 l 1,25,-1
 226 405 l 1,26,-1
 371 405 l 2,27,28
 383 405 383 405 383 391 c 2,29,-1
 383 333 l 2,30,31
 383 322 383 322 378 317.5 c 128,-1,32
 373 313 373 313 361 313 c 2,33,-1
 226 313 l 1,34,-1
 226 101 l 1,35,-1
 291 101 l 2,36,19
 410 101 410 101 477 163.5 c 128,-1,20
EndSplineSet
EndChar

StartChar: dcroat
Encoding: 273 273 210
Width: 605
GlyphClass: 2
Flags: W
AnchorPoint: "Anchor-5" 588 614 basechar 0
AnchorPoint: "Anchor-4" 291 0 basechar 0
AnchorPoint: "Anchor-3" 0 0 basechar 0
AnchorPoint: "Anchor-2" 0 0 basechar 0
LayerCount: 2
Fore
SplineSet
578 587 m 1,0,-1
 523 587 l 1,1,-1
 523 0 l 1,2,-1
 433 0 l 1,3,-1
 425 72 l 1,4,5
 402 41 402 41 360 15.5 c 128,-1,6
 318 -10 318 -10 257 -10 c 0,7,8
 156 -10 156 -10 98.5 60 c 128,-1,9
 41 130 41 130 41 256 c 0,10,11
 41 381 41 381 96.5 454 c 128,-1,12
 152 527 152 527 252 527 c 0,13,14
 344 527 344 527 401 460 c 1,15,-1
 401 587 l 1,16,-1
 254 587 l 1,17,-1
 254 658 l 1,18,-1
 401 658 l 1,19,-1
 401 743 l 1,20,-1
 523 743 l 1,21,-1
 523 658 l 1,22,-1
 578 658 l 1,23,-1
 578 587 l 1,0,-1
401 345 m 1,24,25
 370 436 370 436 287 436 c 0,26,27
 229 436 229 436 194.5 392 c 128,-1,28
 160 348 160 348 160 259 c 0,29,30
 160 168 160 168 194 124 c 128,-1,31
 228 80 228 80 285 80 c 0,32,33
 334 80 334 80 367.5 116.5 c 128,-1,34
 401 153 401 153 401 205 c 2,35,-1
 401 345 l 1,24,25
EndSplineSet
EndChar

StartChar: Emacron
Encoding: 274 274 211
Width: 630
GlyphClass: 2
Flags: W
AnchorPoint: "Anchor-5" 0 0 basechar 0
AnchorPoint: "Anchor-4" 340 0 basechar 0
AnchorPoint: "Anchor-3" 331 723 basechar 0
AnchorPoint: "Anchor-2" 566 10 basechar 0
LayerCount: 2
Fore
SplineSet
85 723 m 1,0,-1
 563 723 l 1,1,-1
 563 619 l 1,2,-1
 208 619 l 1,3,-1
 208 416 l 1,4,-1
 521 416 l 1,5,-1
 521 313 l 1,6,-1
 207 313 l 1,7,-1
 207 106 l 1,8,-1
 570 105 l 1,9,-1
 570 0 l 1,10,-1
 85 0 l 1,11,-1
 85 723 l 1,0,-1
494 840 m 1,12,-1
 167 840 l 1,13,-1
 167 920 l 1,14,-1
 494 920 l 1,15,-1
 494 840 l 1,12,-1
EndSplineSet
EndChar

StartChar: emacron
Encoding: 275 275 212
Width: 559
GlyphClass: 2
Flags: W
AnchorPoint: "Anchor-5" 0 0 basechar 0
AnchorPoint: "Anchor-4" 283 0 basechar 0
AnchorPoint: "Anchor-3" 285 517 basechar 0
AnchorPoint: "Anchor-2" 397 22 basechar 0
LayerCount: 2
Fore
SplineSet
196 122 m 128,-1,1
 230 81 230 81 291 81 c 0,2,3
 334 81 334 81 362.5 98 c 128,-1,4
 391 115 391 115 405 151 c 1,5,-1
 514 143 l 1,6,7
 499 73 499 73 436.5 31.5 c 128,-1,8
 374 -10 374 -10 294 -10 c 0,9,10
 220 -10 220 -10 162.5 22 c 128,-1,11
 105 54 105 54 73 113.5 c 128,-1,12
 41 173 41 173 41 253 c 128,-1,13
 41 333 41 333 70 395 c 128,-1,14
 99 457 99 457 154 492 c 128,-1,15
 209 527 209 527 285 527 c 0,16,17
 396 527 396 527 457 456.5 c 128,-1,18
 518 386 518 386 518 267 c 2,19,-1
 518 230 l 1,20,-1
 162 230 l 1,21,0
 162 163 162 163 196 122 c 128,-1,1
404 306 m 1,22,23
 404 365 404 365 373 402 c 128,-1,24
 342 439 342 439 284 439 c 0,25,26
 227 439 227 439 194.5 399 c 128,-1,27
 162 359 162 359 162 306 c 1,28,-1
 404 306 l 1,22,23
448 634 m 1,29,-1
 121 634 l 1,30,-1
 121 714 l 1,31,-1
 448 714 l 1,32,-1
 448 634 l 1,29,-1
EndSplineSet
EndChar

StartChar: Ebreve
Encoding: 276 276 213
Width: 630
GlyphClass: 2
Flags: W
AnchorPoint: "Anchor-5" 0 0 basechar 0
AnchorPoint: "Anchor-4" 340 0 basechar 0
AnchorPoint: "Anchor-3" 331 723 basechar 0
AnchorPoint: "Anchor-2" 566 10 basechar 0
LayerCount: 2
Fore
SplineSet
85 723 m 1,0,-1
 563 723 l 1,1,-1
 563 619 l 1,2,-1
 208 619 l 1,3,-1
 208 416 l 1,4,-1
 521 416 l 1,5,-1
 521 313 l 1,6,-1
 207 313 l 1,7,-1
 207 106 l 1,8,-1
 570 105 l 1,9,-1
 570 0 l 1,10,-1
 85 0 l 1,11,-1
 85 723 l 1,0,-1
437 843 m 128,-1,13
 393 810 393 810 332 810 c 0,14,15
 270 810 270 810 226 842.5 c 128,-1,16
 182 875 182 875 168 929 c 1,17,-1
 246 929 l 1,18,19
 259 906 259 906 280 890.5 c 128,-1,20
 301 875 301 875 332 875 c 0,21,22
 359 875 359 875 382 891 c 128,-1,23
 405 907 405 907 417 929 c 1,24,-1
 497 929 l 1,25,12
 481 876 481 876 437 843 c 128,-1,13
EndSplineSet
EndChar

StartChar: ebreve
Encoding: 277 277 214
Width: 559
GlyphClass: 2
Flags: W
AnchorPoint: "Anchor-5" 0 0 basechar 0
AnchorPoint: "Anchor-4" 283 0 basechar 0
AnchorPoint: "Anchor-3" 285 517 basechar 0
AnchorPoint: "Anchor-2" 397 22 basechar 0
LayerCount: 2
Fore
SplineSet
196 122 m 128,-1,1
 230 81 230 81 291 81 c 0,2,3
 334 81 334 81 362.5 98 c 128,-1,4
 391 115 391 115 405 151 c 1,5,-1
 514 143 l 1,6,7
 499 73 499 73 436.5 31.5 c 128,-1,8
 374 -10 374 -10 294 -10 c 0,9,10
 220 -10 220 -10 162.5 22 c 128,-1,11
 105 54 105 54 73 113.5 c 128,-1,12
 41 173 41 173 41 253 c 128,-1,13
 41 333 41 333 70 395 c 128,-1,14
 99 457 99 457 154 492 c 128,-1,15
 209 527 209 527 285 527 c 0,16,17
 396 527 396 527 457 456.5 c 128,-1,18
 518 386 518 386 518 267 c 2,19,-1
 518 230 l 1,20,-1
 162 230 l 1,21,0
 162 163 162 163 196 122 c 128,-1,1
404 306 m 1,22,23
 404 365 404 365 373 402 c 128,-1,24
 342 439 342 439 284 439 c 0,25,26
 227 439 227 439 194.5 399 c 128,-1,27
 162 359 162 359 162 306 c 1,28,-1
 404 306 l 1,22,23
391 637 m 128,-1,30
 347 604 347 604 286 604 c 0,31,32
 224 604 224 604 180 636.5 c 128,-1,33
 136 669 136 669 122 723 c 1,34,-1
 200 723 l 1,35,36
 213 700 213 700 234 684.5 c 128,-1,37
 255 669 255 669 286 669 c 0,38,39
 313 669 313 669 336 685 c 128,-1,40
 359 701 359 701 371 723 c 1,41,-1
 451 723 l 1,42,29
 435 670 435 670 391 637 c 128,-1,30
EndSplineSet
EndChar

StartChar: Edotaccent
Encoding: 278 278 215
Width: 630
GlyphClass: 2
Flags: W
AnchorPoint: "Anchor-5" 0 0 basechar 0
AnchorPoint: "Anchor-4" 340 0 basechar 0
AnchorPoint: "Anchor-3" 331 723 basechar 0
AnchorPoint: "Anchor-2" 566 10 basechar 0
LayerCount: 2
Fore
SplineSet
85 723 m 1,0,-1
 563 723 l 1,1,-1
 563 619 l 1,2,-1
 208 619 l 1,3,-1
 208 416 l 1,4,-1
 521 416 l 1,5,-1
 521 313 l 1,6,-1
 207 313 l 1,7,-1
 207 106 l 1,8,-1
 570 105 l 1,9,-1
 570 0 l 1,10,-1
 85 0 l 1,11,-1
 85 723 l 1,0,-1
395 798 m 1,12,-1
 269 798 l 1,13,-1
 269 929 l 1,14,-1
 395 929 l 1,15,-1
 395 798 l 1,12,-1
EndSplineSet
EndChar

StartChar: edotaccent
Encoding: 279 279 216
Width: 559
GlyphClass: 2
Flags: W
AnchorPoint: "Anchor-5" 0 0 basechar 0
AnchorPoint: "Anchor-4" 283 0 basechar 0
AnchorPoint: "Anchor-3" 285 517 basechar 0
AnchorPoint: "Anchor-2" 397 22 basechar 0
LayerCount: 2
Fore
SplineSet
196 122 m 128,-1,1
 230 81 230 81 291 81 c 0,2,3
 334 81 334 81 362.5 98 c 128,-1,4
 391 115 391 115 405 151 c 1,5,-1
 514 143 l 1,6,7
 499 73 499 73 436.5 31.5 c 128,-1,8
 374 -10 374 -10 294 -10 c 0,9,10
 220 -10 220 -10 162.5 22 c 128,-1,11
 105 54 105 54 73 113.5 c 128,-1,12
 41 173 41 173 41 253 c 128,-1,13
 41 333 41 333 70 395 c 128,-1,14
 99 457 99 457 154 492 c 128,-1,15
 209 527 209 527 285 527 c 0,16,17
 396 527 396 527 457 456.5 c 128,-1,18
 518 386 518 386 518 267 c 2,19,-1
 518 230 l 1,20,-1
 162 230 l 1,21,0
 162 163 162 163 196 122 c 128,-1,1
404 306 m 1,22,23
 404 365 404 365 373 402 c 128,-1,24
 342 439 342 439 284 439 c 0,25,26
 227 439 227 439 194.5 399 c 128,-1,27
 162 359 162 359 162 306 c 1,28,-1
 404 306 l 1,22,23
349 592 m 1,29,-1
 223 592 l 1,30,-1
 223 723 l 1,31,-1
 349 723 l 1,32,-1
 349 592 l 1,29,-1
EndSplineSet
EndChar

StartChar: Eogonek
Encoding: 280 280 217
Width: 630
GlyphClass: 2
Flags: W
AnchorPoint: "Anchor-5" 0 0 basechar 0
AnchorPoint: "Anchor-4" 340 0 basechar 0
AnchorPoint: "Anchor-3" 331 723 basechar 0
AnchorPoint: "Anchor-2" 566 10 basechar 0
LayerCount: 2
Fore
SplineSet
85 723 m 1,0,-1
 563 723 l 1,1,-1
 563 619 l 1,2,-1
 208 619 l 1,3,-1
 208 416 l 1,4,-1
 521 416 l 1,5,-1
 521 313 l 1,6,-1
 207 313 l 1,7,-1
 207 106 l 1,8,-1
 570 105 l 1,9,-1
 570 0 l 1,10,-1
 85 0 l 1,11,-1
 85 723 l 1,0,-1
416.5 -34 m 128,-1,13
 438 -11 438 -11 494 7 c 1,14,-1
 580 3 l 1,15,16
 528 -17 528 -17 507 -34.5 c 128,-1,17
 486 -52 486 -52 486 -74 c 0,18,19
 486 -91 486 -91 495.5 -99.5 c 128,-1,20
 505 -108 505 -108 527 -108 c 0,21,22
 560 -108 560 -108 586 -94 c 0,23,24
 589 -92 589 -92 594 -92 c 128,-1,25
 599 -92 599 -92 599 -101 c 2,26,-1
 599 -137 l 2,27,28
 599 -146 599 -146 591 -150 c 0,29,30
 578 -157 578 -157 552.5 -162.5 c 128,-1,31
 527 -168 527 -168 499 -168 c 0,32,33
 449 -168 449 -168 422 -147 c 128,-1,34
 395 -126 395 -126 395 -87 c 0,35,12
 395 -57 395 -57 416.5 -34 c 128,-1,13
EndSplineSet
EndChar

StartChar: eogonek
Encoding: 281 281 218
Width: 559
GlyphClass: 2
Flags: W
AnchorPoint: "Anchor-5" 0 0 basechar 0
AnchorPoint: "Anchor-4" 283 0 basechar 0
AnchorPoint: "Anchor-3" 285 517 basechar 0
AnchorPoint: "Anchor-2" 397 22 basechar 0
LayerCount: 2
Fore
SplineSet
196 122 m 128,-1,1
 230 81 230 81 291 81 c 0,2,3
 334 81 334 81 362.5 98 c 128,-1,4
 391 115 391 115 405 151 c 1,5,-1
 514 143 l 1,6,7
 499 73 499 73 436.5 31.5 c 128,-1,8
 374 -10 374 -10 294 -10 c 0,9,10
 220 -10 220 -10 162.5 22 c 128,-1,11
 105 54 105 54 73 113.5 c 128,-1,12
 41 173 41 173 41 253 c 128,-1,13
 41 333 41 333 70 395 c 128,-1,14
 99 457 99 457 154 492 c 128,-1,15
 209 527 209 527 285 527 c 0,16,17
 396 527 396 527 457 456.5 c 128,-1,18
 518 386 518 386 518 267 c 2,19,-1
 518 230 l 1,20,-1
 162 230 l 1,21,0
 162 163 162 163 196 122 c 128,-1,1
404 306 m 1,22,23
 404 365 404 365 373 402 c 128,-1,24
 342 439 342 439 284 439 c 0,25,26
 227 439 227 439 194.5 399 c 128,-1,27
 162 359 162 359 162 306 c 1,28,-1
 404 306 l 1,22,23
247.5 -22 m 128,-1,30
 269 1 269 1 325 19 c 1,31,-1
 411 15 l 1,32,33
 359 -5 359 -5 338 -22.5 c 128,-1,34
 317 -40 317 -40 317 -62 c 0,35,36
 317 -79 317 -79 326.5 -87.5 c 128,-1,37
 336 -96 336 -96 358 -96 c 0,38,39
 391 -96 391 -96 417 -82 c 0,40,41
 420 -80 420 -80 425 -80 c 128,-1,42
 430 -80 430 -80 430 -89 c 2,43,-1
 430 -125 l 2,44,45
 430 -134 430 -134 422 -138 c 0,46,47
 409 -145 409 -145 383.5 -150.5 c 128,-1,48
 358 -156 358 -156 330 -156 c 0,49,50
 280 -156 280 -156 253 -135 c 128,-1,51
 226 -114 226 -114 226 -75 c 0,52,29
 226 -45 226 -45 247.5 -22 c 128,-1,30
EndSplineSet
EndChar

StartChar: Ecaron
Encoding: 282 282 219
Width: 630
GlyphClass: 2
Flags: W
AnchorPoint: "Anchor-5" 0 0 basechar 0
AnchorPoint: "Anchor-4" 340 0 basechar 0
AnchorPoint: "Anchor-3" 331 723 basechar 0
AnchorPoint: "Anchor-2" 566 10 basechar 0
LayerCount: 2
Fore
SplineSet
85 723 m 1,0,-1
 563 723 l 1,1,-1
 563 619 l 1,2,-1
 208 619 l 1,3,-1
 208 416 l 1,4,-1
 521 416 l 1,5,-1
 521 313 l 1,6,-1
 207 313 l 1,7,-1
 207 106 l 1,8,-1
 570 105 l 1,9,-1
 570 0 l 1,10,-1
 85 0 l 1,11,-1
 85 723 l 1,0,-1
500 930 m 1,12,-1
 374 803 l 1,13,-1
 289 803 l 1,14,-1
 160 930 l 1,15,-1
 257 930 l 1,16,-1
 331 858 l 1,17,-1
 398 930 l 1,18,-1
 500 930 l 1,12,-1
EndSplineSet
EndChar

StartChar: ecaron
Encoding: 283 283 220
Width: 559
GlyphClass: 2
Flags: W
AnchorPoint: "Anchor-5" 0 0 basechar 0
AnchorPoint: "Anchor-4" 283 0 basechar 0
AnchorPoint: "Anchor-3" 285 517 basechar 0
AnchorPoint: "Anchor-2" 397 22 basechar 0
LayerCount: 2
Fore
SplineSet
196 122 m 128,-1,1
 230 81 230 81 291 81 c 0,2,3
 334 81 334 81 362.5 98 c 128,-1,4
 391 115 391 115 405 151 c 1,5,-1
 514 143 l 1,6,7
 499 73 499 73 436.5 31.5 c 128,-1,8
 374 -10 374 -10 294 -10 c 0,9,10
 220 -10 220 -10 162.5 22 c 128,-1,11
 105 54 105 54 73 113.5 c 128,-1,12
 41 173 41 173 41 253 c 128,-1,13
 41 333 41 333 70 395 c 128,-1,14
 99 457 99 457 154 492 c 128,-1,15
 209 527 209 527 285 527 c 0,16,17
 396 527 396 527 457 456.5 c 128,-1,18
 518 386 518 386 518 267 c 2,19,-1
 518 230 l 1,20,-1
 162 230 l 1,21,0
 162 163 162 163 196 122 c 128,-1,1
404 306 m 1,22,23
 404 365 404 365 373 402 c 128,-1,24
 342 439 342 439 284 439 c 0,25,26
 227 439 227 439 194.5 399 c 128,-1,27
 162 359 162 359 162 306 c 1,28,-1
 404 306 l 1,22,23
454 724 m 1,29,-1
 328 597 l 1,30,-1
 243 597 l 1,31,-1
 114 724 l 1,32,-1
 211 724 l 1,33,-1
 285 652 l 1,34,-1
 352 724 l 1,35,-1
 454 724 l 1,29,-1
EndSplineSet
EndChar

StartChar: Gcircumflex
Encoding: 284 284 221
Width: 741
GlyphClass: 2
Flags: W
AnchorPoint: "Anchor-5" 0 0 basechar 0
AnchorPoint: "Anchor-4" 368 0 basechar 0
AnchorPoint: "Anchor-3" 365 723 basechar 0
AnchorPoint: "Anchor-2" 0 0 basechar 0
LayerCount: 2
Fore
SplineSet
196.5 35.5 m 128,-1,1
 125 81 125 81 86 164 c 128,-1,2
 47 247 47 247 47 359 c 0,3,4
 47 473 47 473 87.5 557.5 c 128,-1,5
 128 642 128 642 201 687.5 c 128,-1,6
 274 733 274 733 371 733 c 0,7,8
 448 733 448 733 512 700.5 c 128,-1,9
 576 668 576 668 614 614.5 c 128,-1,10
 652 561 652 561 655 501 c 1,11,-1
 526 497 l 1,12,13
 515 554 515 554 472.5 591 c 128,-1,14
 430 628 430 628 368 628 c 0,15,16
 281 628 281 628 230 561.5 c 128,-1,17
 179 495 179 495 179 365 c 0,18,19
 179 227 179 227 232 162.5 c 128,-1,20
 285 98 285 98 372 98 c 0,21,22
 420 98 420 98 455.5 119.5 c 128,-1,23
 491 141 491 141 510.5 173 c 128,-1,24
 530 205 530 205 533 237 c 2,25,-1
 538 291 l 1,26,-1
 376 291 l 1,27,-1
 376 377 l 1,28,-1
 665 375 l 1,29,-1
 665 0 l 1,30,-1
 579 0 l 1,31,-1
 579 102 l 1,32,33
 545 52 545 52 494 21 c 128,-1,34
 443 -10 443 -10 364 -10 c 0,35,0
 268 -10 268 -10 196.5 35.5 c 128,-1,1
365 880 m 1,36,-1
 291 809 l 1,37,-1
 194 809 l 1,38,-1
 323 934 l 1,39,-1
 408 934 l 1,40,-1
 534 809 l 1,41,-1
 432 809 l 1,42,-1
 365 880 l 1,36,-1
EndSplineSet
EndChar

StartChar: gcircumflex
Encoding: 285 285 222
Width: 618
GlyphClass: 2
Flags: W
AnchorPoint: "Anchor-5" 0 0 basechar 0
AnchorPoint: "Anchor-4" 0 0 basechar 0
AnchorPoint: "Anchor-3" 304 517 basechar 0
AnchorPoint: "Anchor-2" 0 0 basechar 0
LayerCount: 2
Fore
SplineSet
100 -135.5 m 128,-1,1
 30 -100 30 -100 30 -40 c 0,2,3
 30 0 30 0 57 22 c 128,-1,4
 84 44 84 44 104.5 53 c 128,-1,5
 125 62 125 62 129 64 c 1,6,7
 126 66 126 66 109.5 75 c 128,-1,8
 93 84 93 84 81.5 100 c 128,-1,9
 70 116 70 116 70 136 c 0,10,11
 70 163 70 163 95.5 185 c 128,-1,12
 121 207 121 207 169 216 c 1,13,14
 69 265 69 265 69 362 c 0,15,16
 69 438 69 438 134.5 481.5 c 128,-1,17
 200 525 200 525 304 525 c 0,18,19
 353 525 353 525 387.5 514 c 128,-1,20
 422 503 422 503 454 482 c 1,21,-1
 597 540 l 1,22,-1
 596 440 l 1,23,-1
 506 424 l 1,24,25
 512 412 512 412 516 393.5 c 128,-1,26
 520 375 520 375 520 363 c 0,27,28
 520 318 520 318 494.5 279.5 c 128,-1,29
 469 241 469 241 418.5 218 c 128,-1,30
 368 195 368 195 295 195 c 0,31,32
 275 195 275 195 253 197 c 0,33,34
 183 194 183 194 183 169 c 0,35,36
 183 157 183 157 203 152 c 128,-1,37
 223 147 223 147 277 143 c 2,38,-1
 387 137 l 2,39,40
 477 131 477 131 521.5 93 c 128,-1,41
 566 55 566 55 566 -7 c 0,42,43
 566 -83 566 -83 497 -127 c 128,-1,44
 428 -171 428 -171 300 -171 c 0,45,0
 170 -171 170 -171 100 -135.5 c 128,-1,1
377 291 m 128,-1,47
 405 315 405 315 405 359 c 0,48,49
 405 404 405 404 376.5 430.5 c 128,-1,50
 348 457 348 457 298 457 c 128,-1,51
 248 457 248 457 219 430.5 c 128,-1,52
 190 404 190 404 190 359 c 0,53,54
 190 316 190 316 218.5 291.5 c 128,-1,55
 247 267 247 267 298 267 c 128,-1,46
 349 267 349 267 377 291 c 128,-1,47
418.5 -82 m 128,-1,57
 449 -65 449 -65 449 -29 c 0,58,59
 449 29 449 29 364 35 c 2,60,-1
 233 44 l 2,61,62
 201 46 201 46 175 24.5 c 128,-1,63
 149 3 149 3 149 -26 c 0,64,65
 149 -64 149 -64 192 -81.5 c 128,-1,66
 235 -99 235 -99 320 -99 c 0,67,56
 388 -99 388 -99 418.5 -82 c 128,-1,57
304 674 m 1,68,-1
 230 603 l 1,69,-1
 133 603 l 1,70,-1
 262 728 l 1,71,-1
 347 728 l 1,72,-1
 473 603 l 1,73,-1
 371 603 l 1,74,-1
 304 674 l 1,68,-1
EndSplineSet
EndChar

StartChar: Gbreve
Encoding: 286 286 223
Width: 741
GlyphClass: 2
Flags: W
AnchorPoint: "Anchor-5" 0 0 basechar 0
AnchorPoint: "Anchor-4" 368 0 basechar 0
AnchorPoint: "Anchor-3" 365 723 basechar 0
AnchorPoint: "Anchor-2" 0 0 basechar 0
LayerCount: 2
Fore
SplineSet
196.5 35.5 m 128,-1,1
 125 81 125 81 86 164 c 128,-1,2
 47 247 47 247 47 359 c 0,3,4
 47 473 47 473 87.5 557.5 c 128,-1,5
 128 642 128 642 201 687.5 c 128,-1,6
 274 733 274 733 371 733 c 0,7,8
 448 733 448 733 512 700.5 c 128,-1,9
 576 668 576 668 614 614.5 c 128,-1,10
 652 561 652 561 655 501 c 1,11,-1
 526 497 l 1,12,13
 515 554 515 554 472.5 591 c 128,-1,14
 430 628 430 628 368 628 c 0,15,16
 281 628 281 628 230 561.5 c 128,-1,17
 179 495 179 495 179 365 c 0,18,19
 179 227 179 227 232 162.5 c 128,-1,20
 285 98 285 98 372 98 c 0,21,22
 420 98 420 98 455.5 119.5 c 128,-1,23
 491 141 491 141 510.5 173 c 128,-1,24
 530 205 530 205 533 237 c 2,25,-1
 538 291 l 1,26,-1
 376 291 l 1,27,-1
 376 377 l 1,28,-1
 665 375 l 1,29,-1
 665 0 l 1,30,-1
 579 0 l 1,31,-1
 579 102 l 1,32,33
 545 52 545 52 494 21 c 128,-1,34
 443 -10 443 -10 364 -10 c 0,35,0
 268 -10 268 -10 196.5 35.5 c 128,-1,1
471 843 m 128,-1,37
 427 810 427 810 366 810 c 0,38,39
 304 810 304 810 260 842.5 c 128,-1,40
 216 875 216 875 202 929 c 1,41,-1
 280 929 l 1,42,43
 293 906 293 906 314 890.5 c 128,-1,44
 335 875 335 875 366 875 c 0,45,46
 393 875 393 875 416 891 c 128,-1,47
 439 907 439 907 451 929 c 1,48,-1
 531 929 l 1,49,36
 515 876 515 876 471 843 c 128,-1,37
EndSplineSet
EndChar

